<?xml version="1.0" encoding="UTF-8"?>
<!DOCTYPE svg PUBLIC "-//W3C//DTD SVG 1.1//EN" "http://www.w3.org/Graphics/SVG/1.1/DTD/svg11.dtd">
<!-- Creator: CorelDRAW 2017 -->
<svg xmlns="http://www.w3.org/2000/svg" xml:space="preserve" width="0.304in" height="0.356in" version="1.1" style="shape-rendering:geometricPrecision; text-rendering:geometricPrecision; image-rendering:optimizeQuality; fill-rule:evenodd; clip-rule:evenodd"
viewBox="0 0 304 356"
 xmlns:xlink="http://www.w3.org/1999/xlink">
 <defs>
  <style type="text/css">
   <![CDATA[
    .str3 {stroke:black;stroke-width:10.42;stroke-miterlimit:2.61313}
    .str6 {stroke:#042433;stroke-width:20.83;stroke-miterlimit:2.61313}
    .str4 {stroke:black;stroke-width:20.83;stroke-miterlimit:2.61313}
    .str1 {stroke:#042433;stroke-width:6.94;stroke-miterlimit:2.61313}
    .str0 {stroke:#FF9736;stroke-width:6.94;stroke-miterlimit:2.61313}
    .str5 {stroke:#373435;stroke-width:6.94;stroke-miterlimit:2.61313}
    .str2 {stroke:#373435;stroke-width:6.94;stroke-miterlimit:2.61313}
    .str8 {stroke:#ED3237;stroke-width:3;stroke-miterlimit:2.61313}
    .str7 {stroke:black;stroke-width:3;stroke-miterlimit:2.61313}
    .fil7 {fill:none}
    .fil2 {fill:#373435}
    .fil19 {fill:#F8BBC1}
    .fil20 {fill:#F59DA9}
    .fil21 {fill:#F3828B}
    .fil18 {fill:#EA3637}
    .fil5 {fill:black}
    .fil15 {fill:#33CCCC}
    .fil12 {fill:#4274E7}
    .fil17 {fill:#9DD3AF}
    .fil4 {fill:#C28181}
    .fil8 {fill:#D47495}
    .fil6 {fill:#D9EFFE}
    .fil11 {fill:#EC97F2}
    .fil3 {fill:#F1C7B3}
    .fil14 {fill:#F58634}
    .fil16 {fill:#F5874F}
    .fil9 {fill:#FF7D04}
    .fil0 {fill:#FF9736}
    .fil10 {fill:white}
    .fil13 {fill:#373435;fill-rule:nonzero}
    .fil1 {fill:#042433;fill-rule:nonzero}
   ]]>
  </style>
   <clipPath id="id0">
    <path d="M14588.74 13700.76l2269.51 0 0 -2586.05 -2269.51 0 0 2586.05z"/>
   </clipPath>
   <clipPath id="id1">
    <path d="M14588.74 13700.76l2269.51 0 0 -2586.05 -2269.51 0 0 2586.05z"/>
   </clipPath>
 </defs>
 <g id="Layer_x0020_1">
  <metadata id="CorelCorpID_0Corel-Layer"/>
  <g id="_1434753782432">
   <circle class="fil0 str0" cx="-37491.22" cy="3825.83" r="1100"/>
   <path class="fil1 str1" d="M-37195.87 4025.84l912.98 0 0 200 912.98 -400 -912.98 -400 0 200 -912.98 0 0 400zm456.48 0m456.49 100m456.49 -100m0 -400m-456.49 -100m-456.49 100m-456.48 200z"/>
   <path class="fil1 str1" d="M-37784.41 4025.84l-914.06 0 0 200 -914.07 -400 914.07 -400 0 200 914.06 0 0 400zm-457.03 0m-457.03 100m-457.03 -100m0 -400m457.03 -100m457.03 100m457.03 200z"/>
   <rect class="fil2 str2" x="-37784.42" y="3625.84" width="588.55" height="400"/>
  </g>
  <g id="Encode_x0020_machine.svg">
   <polygon class="fil3" points="-42117.22,1519.86 -42247.87,1735.72 -42247.87,1303.99 "/>
   <rect class="fil3" transform="matrix(1.47052E-14 0.541615 -0.541615 1.47052E-14 -42061.9 1467.06)" width="194.96" height="204.14"/>
   <rect class="fil3" transform="matrix(1.47052E-14 0.541615 -0.541615 1.47052E-14 -42246.5 1353.66)" width="171.6" height="190.68"/>
   <rect class="fil3" transform="matrix(1.47052E-14 0.541615 -0.541615 1.47052E-14 -42246.5 1589.53)" width="171.6" height="190.68"/>
   <path class="fil4" d="M-42011.76 1525.84c3.31,-3.31 3.31,-8.66 0,-11.97l-53.85 -53.85c-3.31,-3.31 -8.67,-3.31 -11.97,0 -3.31,3.3 -3.31,8.66 0,11.96l47.87 47.87 -47.87 47.87c-3.31,3.3 -3.31,8.66 0,11.96 3.3,3.31 8.66,3.31 11.97,0l53.85 -53.85zm-113.49 -5.98l0 8.46 107.51 0 0 -8.46 0 -8.46 -107.51 0 0 8.46z"/>
   <path class="fil4" d="M-42271.7 1401.23c3.35,-3.28 3.44,-8.63 0.19,-11.96l-53.02 -54.27c-3.25,-3.33 -8.61,-3.37 -11.97,-0.09 -3.35,3.28 -3.44,8.64 -0.19,11.97l47.13 48.24 -48.61 47.49c-3.35,3.28 -3.44,8.64 -0.19,11.97 3.26,3.33 8.61,3.37 11.97,0.09l54.69 -53.43zm-96.91 -6.74l-0.13 8.46 91.01 0.71 0.13 -8.46 0.13 -8.46 -91.02 -0.71 -0.13 8.46z"/>
   <path class="fil4" d="M-42278.63 1642.04c3.35,-3.28 3.44,-8.64 0.19,-11.97l-53.02 -54.27c-3.25,-3.33 -8.61,-3.37 -11.96,-0.09 -3.36,3.28 -3.44,8.64 -0.19,11.97l47.13 48.24 -48.61 47.49c-3.35,3.28 -3.44,8.64 -0.19,11.97 3.25,3.33 8.61,3.37 11.97,0.09l54.69 -53.43zm-96.91 -6.74l-0.13 8.46 91.02 0.71 0.13 -8.46 0.13 -8.46 -91.02 -0.71 -0.13 8.46z"/>
   <g>
    <path class="fil5" d="M-42190.76 1551.98c4.08,0 7.7,-4.81 9.91,-12.2 7.51,1.78 13.49,1 15.51,-2.54 0.48,-0.87 0.72,-1.85 0.71,-2.84 0,-3.3 -2.3,-7.48 -6.3,-11.69 3.96,-4.22 6.25,-8.38 6.25,-11.67 0.02,-1 -0.23,-2 -0.72,-2.88 -2.02,-3.52 -7.96,-4.25 -15.44,-2.5 -2.2,-7.35 -5.79,-12.13 -9.86,-12.15 -4.07,-0.01 -7.7,4.81 -9.91,12.2 -7.52,-1.78 -13.48,-1.01 -15.51,2.54 -0.48,0.87 -0.73,1.85 -0.71,2.83 0,3.31 2.3,7.48 6.3,11.69 -3.96,4.21 -6.25,8.37 -6.25,11.67 -0.02,1.01 0.23,2 0.72,2.88 2.03,3.52 7.96,4.24 15.41,2.5 2.23,7.35 5.82,12.14 9.88,12.15zm18.5 -26.55c4.34,4.85 4.81,7.89 4.81,8.97 0.02,0.5 -0.1,0.99 -0.35,1.43 -0.96,1.7 -4.37,2.37 -8.89,1.83 -1.15,-0.14 -2.3,-0.33 -3.43,-0.59 0.57,-2.45 0.98,-4.94 1.22,-7.45 2.1,-1.49 4.09,-3.13 5.98,-4.88 0.22,0.22 0.43,0.45 0.65,0.7l0 -0zm-21.85 -14.69c-0.89,0.46 -1.78,0.95 -2.67,1.46 -0.89,0.51 -1.8,1.05 -2.7,1.64 0.22,-1.56 0.51,-3.11 0.87,-4.64 1.5,0.41 2.98,0.94 4.5,1.54zm11.28 -1.64c0.35,1.5 0.64,3.07 0.87,4.7 -0.87,-0.59 -1.78,-1.1 -2.72,-1.63 -0.94,-0.54 -1.78,-1 -2.68,-1.46 1.5,-0.59 3.01,-1.12 4.54,-1.6l-0 -0zm-7.91 3.09c1.55,0.74 3.11,1.54 4.66,2.43 1.55,0.89 3.06,1.84 4.51,2.83 0.13,1.72 0.2,3.5 0.2,5.33 -0,1.83 -0.07,3.56 -0.21,5.26 -1.44,0.99 -2.96,1.93 -4.47,2.82 -1.51,0.89 -3.09,1.7 -4.64,2.44 -3.19,-1.5 -6.26,-3.26 -9.17,-5.24 -0.28,-3.53 -0.28,-7.07 0.01,-10.6 1.45,-1 2.94,-1.94 4.47,-2.82 1.52,-0.87 3.06,-1.67 4.64,-2.42l0 -0.02zm8.76 19.48c-0.23,1.61 -0.52,3.17 -0.86,4.65 -1.46,-0.44 -2.96,-0.96 -4.48,-1.57 0.89,-0.46 1.78,-0.95 2.67,-1.47 0.9,-0.52 1.78,-1.05 2.67,-1.59l0 -0.02zm-14.77 1.63c0.89,0.51 1.79,1 2.69,1.46 -1.54,0.59 -3.06,1.19 -4.54,1.6 -0.35,-1.5 -0.64,-3.07 -0.86,-4.7 0.88,0.57 1.78,1.13 2.72,1.66l0 -0.02zm21.83 -10.57c-1.14,1.07 -2.37,2.12 -3.69,3.14 0.04,-1.03 0.07,-2.07 0.07,-3.1 0,-1.05 0,-2.12 -0.07,-3.16 1.28,0.98 2.52,2.02 3.69,3.11zm7.11 -13.15c0.24,0.45 0.35,0.95 0.33,1.46 -0.04,1.07 -0.31,2.12 -0.78,3.08 -1.02,2.17 -2.38,4.17 -4.02,5.93l-0.63 0.7c-1.87,-1.74 -3.85,-3.36 -5.93,-4.84 -0.25,-2.52 -0.65,-5.03 -1.22,-7.5 1.11,-0.26 2.23,-0.46 3.36,-0.59 4.47,-0.62 7.89,0.09 8.86,1.76l0.02 0.01zm-30.05 -3.14c0.34,-1.11 0.74,-2.21 1.19,-3.28 1.78,-4.21 4.06,-6.82 6.01,-6.82 1.95,0 4.23,2.62 5.98,6.83 0.44,1.06 0.83,2.13 1.15,3.22 -2.46,0.74 -4.86,1.64 -7.19,2.7 -2.32,-1.04 -4.7,-1.92 -7.12,-2.65l-0.01 -0.01zm-11.31 13.64c-4.35,-4.85 -4.81,-7.89 -4.81,-8.97 -0.02,-0.5 0.1,-1 0.34,-1.43 0.97,-1.69 4.37,-2.37 8.89,-1.83 1.15,0.14 2.3,0.33 3.43,0.59 -0.57,2.46 -0.98,4.94 -1.22,7.46 -2.1,1.5 -4.09,3.12 -5.98,4.89l-0.65 -0.7zm2.67 2.71c1.14,-1.07 2.37,-2.12 3.69,-3.15 -0.05,1.02 -0.07,2.06 -0.07,3.11 0,1.05 0,2.12 0.07,3.16 -1.32,-1.03 -2.55,-2.07 -3.69,-3.12l0 0zm-7.11 13.15c-0.24,-0.45 -0.37,-0.96 -0.35,-1.47 0,-1.08 0.48,-4.15 4.8,-8.99l0.63 -0.69c1.87,1.74 3.85,3.35 5.93,4.83 0.24,2.52 0.65,5.03 1.22,7.5 -1.15,0.26 -2.28,0.46 -3.36,0.59 -4.46,0.59 -7.88,-0.1 -8.85,-1.79l-0.02 0.01zm16.85 6.4c-0.42,-1.01 -0.8,-2.09 -1.15,-3.22 2.46,-0.74 4.86,-1.65 7.19,-2.71 2.31,1.05 4.69,1.93 7.11,2.67 -0.34,1.11 -0.73,2.21 -1.18,3.28 -1.78,4.2 -4.06,6.81 -6.01,6.81 -1.95,-0 -4.2,-2.62 -5.94,-6.83l-0.02 0.01zm0.6 -19.61c0,1.07 0.32,2.13 0.91,3.02 0.59,0.89 1.44,1.59 2.44,2 0.99,0.41 2.09,0.52 3.15,0.31 1.05,-0.21 2.02,-0.72 2.79,-1.48 0.76,-0.76 1.28,-1.73 1.49,-2.79 0.21,-1.05 0.1,-2.15 -0.31,-3.14 -0.41,-1 -1.11,-1.84 -2,-2.44 -0.89,-0.6 -1.94,-0.92 -3.02,-0.92 -0.71,-0 -1.42,0.13 -2.08,0.41 -0.99,0.41 -1.85,1.11 -2.44,2 -0.6,0.9 -0.92,1.95 -0.92,3.02l0 0zm38.23 -36.16l-65.57 0 0 72.34 65.57 0 0 -72.34zm-62.76 69.52l0 -66.68 59.93 0 0 66.68 -59.93 0zm20.09 -50.37c-7.51,-1.78 -13.48,-1.01 -15.5,2.53 -0.48,0.87 -0.72,1.84 -0.71,2.83 0,3.31 2.3,7.48 6.3,11.69 -3.96,4.2 -6.25,8.37 -6.25,11.67 -0.02,1.01 0.23,2 0.72,2.88 2.02,3.52 7.96,4.24 15.41,2.5 2.2,7.35 5.8,12.13 9.86,12.14 4.06,0.01 7.7,-4.81 9.91,-12.19 7.51,1.78 13.48,1 15.5,-2.54 0.48,-0.87 0.73,-1.84 0.71,-2.83 0,-3.3 -2.3,-7.48 -6.3,-11.69 3.96,-4.21 6.25,-8.37 6.25,-11.67 0.02,-1.01 -0.23,-2 -0.72,-2.88 -2.03,-3.52 -7.97,-4.25 -15.44,-2.5 -2.2,-7.35 -5.79,-12.14 -9.86,-12.15 -4.06,-0.01 -7.67,4.82 -9.88,12.21l0 -0zm-8.59 14.34c-4.34,-4.85 -4.81,-7.89 -4.81,-8.97 -0.02,-0.5 0.1,-1 0.35,-1.43 0.97,-1.69 4.37,-2.37 8.89,-1.83 1.15,0.14 2.3,0.34 3.43,0.59 -0.56,2.46 -0.97,4.94 -1.22,7.45 -2.1,1.5 -4.09,3.13 -5.98,4.88l-0.66 -0.69zm21.86 14.7c0.9,-0.48 1.79,-0.96 2.67,-1.47 0.9,-0.52 1.78,-1.07 2.67,-1.61 -0.23,1.61 -0.52,3.17 -0.86,4.65 -1.46,-0.43 -2.96,-0.95 -4.48,-1.56l0 0zm-11.26 1.61c-0.35,-1.5 -0.64,-3.06 -0.86,-4.7 1.75,1.11 3.55,2.15 5.4,3.09 -1.57,0.63 -3.07,1.16 -4.57,1.59l0.03 0.01zm7.91 -3.09c-3.19,-1.51 -6.26,-3.26 -9.17,-5.25 -0.28,-3.53 -0.27,-7.07 0.01,-10.6 2.89,-1.99 5.94,-3.75 9.11,-5.26 1.55,0.74 3.1,1.54 4.66,2.42 1.55,0.89 3.06,1.85 4.5,2.83 0.27,3.53 0.26,7.07 -0.01,10.6 -1.43,0.98 -2.96,1.93 -4.47,2.81 -1.51,0.89 -3.12,1.71 -4.67,2.44l0.03 0zm-8.82 -19.45c0.22,-1.56 0.51,-3.11 0.86,-4.64 1.46,0.43 2.97,0.96 4.48,1.57 -0.89,0.46 -1.78,0.95 -2.67,1.46 -0.9,0.51 -1.78,1.02 -2.67,1.61l0 0zm14.81 -1.65c-0.89,-0.51 -1.78,-1 -2.68,-1.46 1.48,-0.61 2.99,-1.15 4.52,-1.63 0.35,1.5 0.63,3.07 0.87,4.7 -0.88,-0.55 -1.78,-1.08 -2.7,-1.61zm-21.84 10.6c1.14,-1.07 2.37,-2.11 3.69,-3.15 -0.05,1.02 -0.07,2.06 -0.07,3.1 0,1.05 0,2.13 0.07,3.16 -1.28,-0.98 -2.51,-2.02 -3.69,-3.11zm-7.11 13.14c-0.24,-0.45 -0.37,-0.96 -0.35,-1.47 0,-1.08 0.47,-4.15 4.8,-8.98l0.64 -0.69c1.87,1.74 3.84,3.35 5.92,4.83 0.24,2.52 0.65,5.03 1.22,7.5 -1.15,0.27 -2.28,0.46 -3.36,0.59 -4.47,0.59 -7.88,-0.09 -8.84,-1.78l-0.03 0zm30.02 3.13c-0.34,1.11 -0.74,2.2 -1.19,3.28 -1.78,4.2 -4.06,6.81 -6.01,6.81 -1.95,0 -4.25,-2.61 -6,-6.82 -0.42,-1.01 -0.8,-2.09 -1.14,-3.22 2.46,-0.74 4.86,-1.65 7.19,-2.7 2.33,1.04 4.72,1.93 7.16,2.66l-0.02 0zm11.31 -13.63c4.35,4.85 4.81,7.89 4.81,8.97 0.02,0.5 -0.1,1 -0.35,1.44 -0.96,1.69 -4.37,2.37 -8.89,1.83 -1.15,-0.14 -2.3,-0.33 -3.43,-0.59 0.57,-2.45 0.98,-4.94 1.22,-7.45 2.1,-1.49 4.09,-3.13 5.98,-4.88 0.24,0.22 0.46,0.46 0.67,0.7l-0.02 -0.01zm-2.64 -2.7c-1.14,1.07 -2.37,2.12 -3.69,3.14 0.04,-1.03 0.07,-2.07 0.07,-3.1 0,-1.05 -0,-2.12 -0.07,-3.16 1.28,0.98 2.51,2.02 3.69,3.11zm7.11 -13.15c0.24,0.45 0.35,0.95 0.33,1.46 -0.04,1.07 -0.31,2.12 -0.78,3.08 -1.02,2.17 -2.38,4.17 -4.02,5.93l-0.63 0.7c-1.87,-1.74 -3.85,-3.36 -5.93,-4.84 -0.25,-2.52 -0.65,-5.03 -1.21,-7.5 1.11,-0.26 2.22,-0.46 3.35,-0.59 4.47,-0.62 7.89,0.09 8.86,1.76l0.02 0.01zm-16.88 -6.41c0.44,1.06 0.83,2.13 1.15,3.23 -2.46,0.74 -4.86,1.64 -7.19,2.7 -2.31,-1.04 -4.69,-1.93 -7.11,-2.67 0.33,-1.11 0.73,-2.21 1.18,-3.28 1.78,-4.2 4.06,-6.81 6.01,-6.81 1.95,0 4.22,2.63 5.96,6.83zm-0.59 19.56c0,-1.08 -0.31,-2.13 -0.91,-3.02 -0.6,-0.9 -1.44,-1.59 -2.44,-2.01 -1,-0.41 -2.09,-0.52 -3.15,-0.31 -1.32,0.26 -2.5,1 -3.31,2.09 -0.8,1.08 -1.18,2.43 -1.05,3.77 0.13,1.34 0.76,2.59 1.76,3.5 1,0.91 2.3,1.41 3.65,1.41 0.72,0.01 1.43,-0.13 2.09,-0.4 0.67,-0.27 1.27,-0.67 1.78,-1.18 0.51,-0.5 0.92,-1.11 1.19,-1.77 0.28,-0.66 0.42,-1.37 0.42,-2.09l-0.03 0zm0 0c0,-1.08 -0.31,-2.13 -0.91,-3.02 -0.6,-0.9 -1.44,-1.59 -2.44,-2.01 -1,-0.41 -2.09,-0.52 -3.15,-0.31 -1.32,0.26 -2.5,1 -3.31,2.09 -0.8,1.08 -1.18,2.43 -1.05,3.77 0.13,1.34 0.76,2.59 1.76,3.5 1,0.91 2.3,1.41 3.65,1.41 0.72,0.01 1.43,-0.13 2.09,-0.4 0.67,-0.27 1.27,-0.67 1.78,-1.18 0.51,-0.5 0.92,-1.11 1.19,-1.77 0.28,-0.66 0.42,-1.37 0.42,-2.09l-0.03 0zm0 0c0,-1.08 -0.31,-2.13 -0.91,-3.02 -0.6,-0.9 -1.44,-1.59 -2.44,-2.01 -1,-0.41 -2.09,-0.52 -3.15,-0.31 -1.32,0.26 -2.5,1 -3.31,2.09 -0.8,1.08 -1.18,2.43 -1.05,3.77 0.13,1.34 0.76,2.59 1.76,3.5 1,0.91 2.3,1.41 3.65,1.41 0.72,0.01 1.43,-0.13 2.09,-0.4 0.67,-0.27 1.27,-0.67 1.78,-1.18 0.51,-0.5 0.92,-1.11 1.19,-1.77 0.28,-0.66 0.42,-1.37 0.42,-2.09l-0.03 0zm-5.47 29.24c4.08,0 7.7,-4.81 9.91,-12.2 7.51,1.78 13.48,1 15.5,-2.54 0.48,-0.87 0.73,-1.85 0.71,-2.84 0,-3.3 -2.3,-7.48 -6.29,-11.69 3.96,-4.22 6.25,-8.38 6.25,-11.67 0.02,-1.01 -0.23,-2 -0.72,-2.88 -2.03,-3.52 -7.96,-4.25 -15.44,-2.5 -2.2,-7.35 -5.79,-12.13 -9.85,-12.15 -4.06,-0.01 -7.7,4.81 -9.91,12.2 -7.51,-1.78 -13.48,-1.01 -15.5,2.54 -0.48,0.87 -0.73,1.85 -0.71,2.83 0,3.31 2.3,7.48 6.29,11.69 -3.96,4.21 -6.25,8.37 -6.25,11.67 -0.02,1.01 0.23,2 0.72,2.88 2.03,3.52 7.96,4.24 15.41,2.5 2.24,7.35 5.83,12.13 9.89,12.14l-0.01 0zm18.5 -26.54c4.34,4.85 4.82,7.89 4.82,8.96 0.01,0.5 -0.1,1 -0.34,1.44 -0.97,1.69 -4.37,2.37 -8.89,1.83 -1.16,-0.14 -2.3,-0.33 -3.43,-0.59 0.57,-2.45 0.98,-4.94 1.22,-7.45 2.1,-1.5 4.09,-3.13 5.98,-4.89 0.22,0.22 0.43,0.45 0.65,0.7l0 -0zm-21.85 -14.69c-0.89,0.46 -1.78,0.95 -2.67,1.46 -0.89,0.51 -1.8,1.04 -2.7,1.63 0.22,-1.56 0.51,-3.11 0.86,-4.64 1.51,0.41 2.99,0.94 4.51,1.54l-0 0zm11.29 -1.64c0.35,1.5 0.64,3.07 0.87,4.7 -0.88,-0.59 -1.78,-1.1 -2.72,-1.64 -0.94,-0.53 -1.78,-1 -2.67,-1.46 1.49,-0.59 3,-1.12 4.53,-1.6l-0 -0zm-7.91 3.09c1.55,0.74 3.11,1.54 4.66,2.43 1.55,0.89 3.06,1.84 4.51,2.83 0.13,1.72 0.2,3.5 0.2,5.33 -0,1.83 -0.07,3.56 -0.21,5.26 -1.44,0.99 -2.96,1.93 -4.47,2.82 -1.51,0.89 -3.09,1.7 -4.64,2.44 -3.19,-1.5 -6.26,-3.26 -9.17,-5.24 -0.28,-3.53 -0.28,-7.07 0.01,-10.6 1.45,-1 2.94,-1.94 4.47,-2.82 1.52,-0.87 3.06,-1.67 4.64,-2.42l0 -0.02zm8.76 19.48c-0.23,1.61 -0.52,3.17 -0.86,4.65 -1.46,-0.44 -2.96,-0.96 -4.48,-1.57 0.89,-0.46 1.78,-0.95 2.67,-1.47 0.9,-0.52 1.78,-1.05 2.67,-1.59l0 -0.02zm-14.77 1.63c0.89,0.51 1.79,1 2.69,1.46 -1.54,0.59 -3.06,1.19 -4.54,1.6 -0.35,-1.5 -0.64,-3.07 -0.86,-4.7 0.88,0.57 1.78,1.13 2.72,1.66l0 -0.02zm21.83 -10.57c-1.14,1.07 -2.37,2.12 -3.69,3.14 0.04,-1.03 0.07,-2.07 0.07,-3.1 0,-1.05 0,-2.12 -0.07,-3.16 1.28,0.98 2.51,2.02 3.69,3.11l0 0zm7.11 -13.15c0.24,0.45 0.35,0.95 0.33,1.46 -0.04,1.07 -0.31,2.12 -0.78,3.08 -1.02,2.17 -2.38,4.17 -4.02,5.93l-0.63 0.7c-1.87,-1.74 -3.85,-3.36 -5.93,-4.84 -0.25,-2.52 -0.65,-5.03 -1.22,-7.5 1.11,-0.26 2.23,-0.46 3.36,-0.59 4.47,-0.62 7.89,0.09 8.86,1.76l0.02 0.01zm-30.05 -3.14c0.34,-1.11 0.74,-2.21 1.19,-3.28 1.78,-4.21 4.06,-6.82 6.01,-6.82 1.95,0 4.23,2.62 5.98,6.83 0.44,1.06 0.83,2.13 1.15,3.22 -2.46,0.74 -4.86,1.64 -7.19,2.7 -2.32,-1.04 -4.7,-1.92 -7.12,-2.65l-0.01 -0.01zm-11.31 13.64c-4.35,-4.85 -4.81,-7.89 -4.81,-8.97 -0.02,-0.5 0.1,-1 0.34,-1.43 0.97,-1.69 4.37,-2.37 8.89,-1.83 1.15,0.14 2.3,0.33 3.43,0.59 -0.57,2.46 -0.98,4.94 -1.22,7.46 -2.1,1.5 -4.09,3.12 -5.98,4.89l-0.65 -0.7zm2.67 2.71c1.14,-1.07 2.37,-2.12 3.69,-3.15 -0.05,1.02 -0.07,2.06 -0.07,3.11 0,1.05 0,2.12 0.07,3.16 -1.32,-1.03 -2.55,-2.07 -3.69,-3.12l0 0zm-7.11 13.15c-0.24,-0.45 -0.37,-0.96 -0.35,-1.47 0,-1.08 0.48,-4.15 4.8,-8.99l0.63 -0.69c1.87,1.74 3.85,3.35 5.93,4.83 0.24,2.52 0.65,5.03 1.22,7.5 -1.15,0.26 -2.28,0.46 -3.36,0.59 -4.46,0.59 -7.88,-0.1 -8.85,-1.79l-0.02 0.01zm16.85 6.4c-0.42,-1.01 -0.8,-2.09 -1.15,-3.22 2.46,-0.74 4.86,-1.65 7.19,-2.71 2.31,1.05 4.69,1.93 7.11,2.67 -0.34,1.11 -0.73,2.21 -1.18,3.28 -1.78,4.2 -4.06,6.81 -6.01,6.81 -1.95,-0 -4.2,-2.62 -5.94,-6.83l-0.02 0.01zm0.6 -19.61c0,1.07 0.32,2.13 0.91,3.02 0.59,0.89 1.44,1.59 2.44,2 0.99,0.41 2.09,0.52 3.15,0.31 1.05,-0.21 2.02,-0.72 2.79,-1.48 0.76,-0.76 1.28,-1.73 1.49,-2.79 0.21,-1.05 0.1,-2.15 -0.31,-3.14 -0.41,-1 -1.11,-1.84 -2,-2.44 -0.89,-0.6 -1.94,-0.92 -3.02,-0.92 -0.71,-0 -1.42,0.13 -2.08,0.41 -0.99,0.41 -1.85,1.11 -2.44,2 -0.6,0.9 -0.92,1.95 -0.92,3.02l0 0zm-32.3 -41.09l65.59 0 -2.84 -2.84 -65.58 0 0 72.33 2.83 2.83 0 -72.33z"/>
   </g>
  </g>
  <g>
   <g id="Group_x0020_16.svg">
    <polygon class="fil6" points="-36936.27,275.3 -34207.1,275.3 -34207.1,891.12 -36936.27,891.12 "/>
    <line class="fil7 str3" x1="-36932.36" y1="290.46" x2="-34211.01" y2= "290.46" />
    <line class="fil7 str3" x1="-36932.36" y1="897.74" x2="-34211.01" y2= "897.74" />
   </g>
   <g id="Group_x0020_17.svg">
    <polygon class="fil6" points="-43430.17,275.3 -40701.01,275.3 -40701.01,891.12 -43430.17,891.12 "/>
    <line class="fil7 str3" x1="-43426.27" y1="290.46" x2="-40704.91" y2= "290.46" />
    <line class="fil7 str3" x1="-43426.27" y1="897.74" x2="-40704.91" y2= "897.74" />
   </g>
  </g>
  <g id="Group_x0020_18.svg">
   <polygon class="fil8" points="-38535.96,-208.03 -35806.79,-208.03 -35806.79,407.79 -38535.96,407.79 "/>
   <line class="fil7 str3" x1="-38532.05" y1="-192.87" x2="-35810.7" y2= "-192.87" />
   <line class="fil7 str3" x1="-38532.05" y1="414.41" x2="-35810.7" y2= "414.41" />
  </g>
  <g>
   <g id="Diagonal_x0020_Basis.svg">
    <rect class="fil9 str4" x="-32232.91" y="3225.45" width="242.7" height="242.7"/>
    <path class="fil10" d="M-32030.63 3278.02c-0.01,-3.1 -1.25,-6.07 -3.44,-8.26 -2.19,-2.19 -5.17,-3.43 -8.26,-3.44l-44.16 -0.01c-2.2,0.05 -4.34,0.72 -6.17,1.93 -1.84,1.21 -3.3,2.91 -4.22,4.91 -1.04,2.14 -1.4,4.55 -1.02,6.91 0.37,2.35 1.47,4.53 3.13,6.24l11.04 11.04c0.73,0.73 1.15,1.72 1.15,2.76 0,1.04 -0.41,2.03 -1.13,2.76l-24.85 24.85c-0.74,0.73 -1.73,1.15 -2.77,1.15 -1.04,0 -2.04,-0.41 -2.77,-1.15l-24.84 -24.85c-0.74,-0.73 -1.15,-1.73 -1.15,-2.76 0,-1.04 0.41,-2.04 1.15,-2.77l11.04 -11.04c1.66,-1.71 2.76,-3.89 3.13,-6.24 0.38,-2.35 0.02,-4.76 -1.02,-6.9 -0.88,-2.15 -2.38,-3.99 -4.31,-5.29 -1.93,-1.3 -4.2,-1.99 -6.52,-2l-44.14 0.01c-3.11,0.01 -6.08,1.24 -8.27,3.44 -2.2,2.2 -3.43,5.17 -3.44,8.28l-0.01 44.14c0.01,2.32 0.7,4.59 2,6.52 1.3,1.93 3.14,3.43 5.29,4.31 2.14,1.04 4.55,1.4 6.9,1.03 2.35,-0.37 4.53,-1.46 6.24,-3.12l11.05 -11.05c0.74,-0.73 1.73,-1.14 2.76,-1.14 1.04,0 2.03,0.42 2.76,1.15l24.83 24.83c0.74,0.74 1.15,1.73 1.15,2.77 0,1.04 -0.41,2.04 -1.15,2.77l-24.82 24.82c-0.74,0.74 -1.73,1.15 -2.77,1.15 -1.04,0 -2.03,-0.41 -2.77,-1.15l-11.04 -11.04c-1.64,-1.63 -3.72,-2.75 -5.99,-3.19 -2.27,-0.45 -4.62,-0.22 -6.76,0.66 -2.13,0.89 -3.96,2.39 -5.25,4.31 -1.29,1.92 -1.98,4.19 -1.98,6.5l0.01 44.17c0.01,3.1 1.24,6.07 3.44,8.26 2.2,2.2 5.17,3.43 8.26,3.44l44.16 0c3.1,-0.02 6.05,-1.25 8.29,-3.42 0.87,-1.02 1.58,-2.18 2.09,-3.43 1.04,-2.14 1.41,-4.55 1.03,-6.9 -0.37,-2.35 -1.46,-4.53 -3.12,-6.24l-11.05 -11.05c-0.72,-0.73 -1.14,-1.72 -1.14,-2.76 0,-1.03 0.41,-2.02 1.14,-2.76l24.84 -24.84c0.74,-0.73 1.73,-1.14 2.76,-1.13 1.04,0 2.03,0.41 2.76,1.14l24.83 24.83c0.73,0.74 1.15,1.73 1.15,2.77 0,1.04 -0.41,2.03 -1.15,2.76l-11.04 11.04c-1.64,1.62 -2.76,3.7 -3.21,5.96 -0.45,2.26 -0.22,4.6 0.67,6.73 0.88,2.15 2.38,3.99 4.31,5.28 1.93,1.3 4.19,1.99 6.52,2l44.15 0c3.11,-0.01 6.08,-1.24 8.28,-3.44 2.19,-2.19 3.43,-5.17 3.44,-8.27l0 -44.15c-0.06,-2.2 -0.73,-4.34 -1.94,-6.17 -1.21,-1.84 -2.91,-3.3 -4.91,-4.21 -2.14,-1.04 -4.55,-1.4 -6.9,-1.02 -2.35,0.38 -4.53,1.48 -6.24,3.13l-11.04 11.04c-0.74,0.74 -1.73,1.15 -2.77,1.15 -1.04,0 -2.03,-0.41 -2.76,-1.15l-24.85 -24.84c-0.73,-0.74 -1.13,-1.73 -1.13,-2.76 0,-1.04 0.41,-2.03 1.15,-2.76l24.85 -24.85c0.73,-0.73 1.73,-1.14 2.77,-1.14 1.04,0 2.03,0.41 2.76,1.14l11.04 11.04c1.62,1.64 3.7,2.75 5.96,3.21 2.26,0.45 4.6,0.22 6.73,-0.66 1.46,-0.58 2.76,-1.43 3.88,-2.55 2.16,-2.22 3.37,-5.19 3.41,-8.28l-0.01 -44.14z"/>
   </g>
   <g id="Measure_x0020_machine.svg">
    <rect class="fil11" x="-32325.7" y="2973.77" width="81.28" height="76.54"/>
    <rect class="fil11" x="-31995.92" y="2977.89" width="81.28" height="76.54"/>
    <rect class="fil11" x="-32170.67" y="3082.83" width="104.86" height="76.54"/>
    <rect class="fil11" x="-32247.74" y="2920.22" width="257.4" height="162.61"/>
    <path class="fil12" d="M-32279.33 3017.78c3.17,-3.17 3.17,-8.3 0,-11.47l-51.63 -51.63c-3.17,-3.17 -8.3,-3.17 -11.48,0 -3.17,3.17 -3.17,8.3 0,11.47l45.89 45.89 -45.89 45.89c-3.17,3.17 -3.17,8.3 0,11.47 3.17,3.17 8.31,3.17 11.48,0l51.63 -51.63zm-75.61 -5.74l0 8.11 69.88 0 0 -8.11 0 -8.11 -69.88 0 0 8.11z"/>
    <path class="fil12" d="M-31870.57 3021.89c3.17,-3.17 3.17,-8.3 0,-11.47l-51.63 -51.63c-3.17,-3.17 -8.31,-3.17 -11.48,0 -3.17,3.17 -3.17,8.3 0,11.47l45.89 45.89 -45.89 45.89c-3.17,3.17 -3.17,8.31 0,11.48 3.17,3.17 8.3,3.17 11.48,0l51.63 -51.63zm-65.3 -5.74l0 8.11 59.56 0 0 -8.11 0 -8.11 -59.56 0 0 8.11z"/>
    <path class="fil12" d="M-32112.51 3115.36c-3.17,-3.16 -8.3,-3.16 -11.47,0.02l-51.63 51.7c-3.17,3.18 -3.17,8.31 0,11.47 3.17,3.17 8.3,3.16 11.47,-0.02l45.89 -45.96 45.89 45.83c3.17,3.16 8.31,3.16 11.47,-0.02 3.17,-3.17 3.17,-8.31 0,-11.48l-51.63 -51.55zm-5.73 63.33l8.11 -0.01 -0 -57.59 -8.11 0.01 -8.11 0.01 0 57.59 8.11 -0.01z"/>
    <path class="fil5" d="M-32136 2942.39c-7.33,0 -13.35,6.02 -13.35,13.35 0,4.13 1.91,7.85 4.9,10.3l-10.77 22.25c-0.68,-0.11 -1.36,-0.17 -2.05,-0.18 -7.32,0 -13.35,6.02 -13.35,13.35 0,7.33 6.02,13.35 13.35,13.35 7.07,0 12.87,-5.63 13.27,-12.6 0.05,-0.25 0.07,-0.5 0.07,-0.74 0,-0.25 -0.02,-0.5 -0.07,-0.74 -0.21,-3.66 -1.91,-6.93 -4.49,-9.23l10.89 -22.51c0.52,0.06 1.06,0.1 1.6,0.1 4.91,0 9.19,-2.7 11.5,-6.69l18.93 5c1,6.22 6.33,11.04 12.77,11.24l7.44 22.71c-3.32,2.44 -5.5,6.35 -5.5,10.76 0,7.32 6.02,13.34 13.35,13.34 7.07,0 12.87,-5.62 13.27,-12.6 0.06,-0.24 0.08,-0.49 0.08,-0.74 0,-0.25 -0.02,-0.5 -0.07,-0.74 -0.4,-6.98 -6.2,-12.6 -13.27,-12.6 -0.28,0 -0.56,0.02 -0.84,0.04l-7.23 -22.06c3.67,-2.22 6.2,-6.17 6.46,-10.69 0.05,-0.25 0.07,-0.5 0.07,-0.74 0,-0.25 -0.02,-0.5 -0.07,-0.74 -0.4,-6.98 -6.2,-12.61 -13.27,-12.61 -5.43,0 -10.12,3.3 -12.2,7.99l-18.09 -4.79 -0.03 -0.17c-0.4,-6.98 -6.2,-12.61 -13.27,-12.61zm0 7.44c3.3,0 5.9,2.6 5.9,5.9 0,3.3 -2.59,5.9 -5.9,5.9 -3.31,0 -5.9,-2.59 -5.9,-5.9 0,-3.3 2.59,-5.9 5.9,-5.9zm43.6 9.57c3.3,0 5.9,2.6 5.9,5.91 0,3.3 -2.6,5.9 -5.9,5.9 -3.31,0 -5.91,-2.6 -5.91,-5.9 0,-3.3 2.6,-5.91 5.91,-5.91zm-64.87 36.16c3.3,0 5.9,2.6 5.9,5.9 0,3.3 -2.59,5.9 -5.9,5.9 -3.3,0 -5.91,-2.6 -5.91,-5.9 0,-3.3 2.6,-5.9 5.91,-5.9zm79.75 10.63c3.3,0 5.9,2.6 5.9,5.91 0,3.3 -2.6,5.9 -5.9,5.9 -3.3,0 -5.9,-2.59 -5.9,-5.9 0,-3.31 2.6,-5.91 5.9,-5.91zm-93.1 26.09l0 28.38 106.44 0 0 -28.38 -7.42 0 0 21.17 -9.09 0 0 -15.04 -7.41 0 0 15.04 -9.09 0 0 -15.04 -7.41 0 0 15.04 -9.09 0 0 -21.17 -7.42 0 0 21.17 -9.09 0 0 -15.04 -7.41 0 0 15.04 -9.09 0 0 -15.04 -7.42 0 0 15.04 -9.09 0 0 -21.17 -7.41 0z"/>
   </g>
  </g>
  <g>
   <polygon class="fil3" points="-26515.22,4474.11 -26611.59,4633.34 -26611.59,4314.89 "/>
   <rect class="fil3" transform="matrix(2.58103E-14 0.950632 -0.950632 2.58103E-14 -26394.3 4399.31)" width="194.96" height="204.14"/>
   <path class="fil4" d="M-26305.25 4502.48c4.52,-5.8 4.52,-15.2 0,-21l-73.58 -94.53c-4.52,-5.8 -11.83,-5.8 -16.35,0 -4.52,5.8 -4.52,15.21 0,21l65.4 84.03 -65.4 84.03c-4.52,5.8 -4.52,15.2 0,21 4.51,5.8 11.83,5.8 16.35,0l73.58 -94.53zm-155.06 -10.5l0 14.85 146.88 0 0 -14.85 0 -14.85 -146.88 0 0 14.85z"/>
   <g>
    <path class="fil5" d="M-26533.04 4550.09c7.17,0 13.52,-8.43 17.4,-21.41 13.19,3.12 23.67,1.76 27.22,-4.45 0.84,-1.52 1.27,-3.24 1.24,-4.98 0,-5.79 -4.04,-13.12 -11.05,-20.51 6.94,-7.4 10.97,-14.7 10.97,-20.48 0.04,-1.77 -0.4,-3.52 -1.26,-5.06 -3.56,-6.18 -13.98,-7.46 -27.1,-4.37 -3.86,-12.91 -10.17,-21.3 -17.3,-21.33 -7.14,-0.02 -13.52,8.45 -17.39,21.42 -13.19,-3.13 -23.67,-1.77 -27.22,4.45 -0.85,1.52 -1.28,3.24 -1.25,4.97 0,5.8 4.04,13.13 11.05,20.52 -6.95,7.38 -10.98,14.69 -10.98,20.48 -0.03,1.77 0.41,3.52 1.27,5.06 3.56,6.18 13.98,7.45 27.04,4.38 3.91,12.91 10.22,21.31 17.34,21.31zm32.46 -46.6c7.62,8.52 8.45,13.85 8.45,15.74 0.03,0.87 -0.18,1.75 -0.6,2.52 -1.7,2.98 -7.68,4.16 -15.61,3.22 -2.02,-0.24 -4.03,-0.59 -6.02,-1.04 1,-4.31 1.72,-8.68 2.15,-13.08 3.68,-2.62 7.19,-5.48 10.49,-8.57 0.38,0.38 0.76,0.79 1.14,1.23l0 -0zm-38.36 -25.78c-1.56,0.81 -3.12,1.67 -4.69,2.56 -1.57,0.9 -3.16,1.83 -4.74,2.87 0.39,-2.74 0.9,-5.46 1.52,-8.15 2.64,0.72 5.24,1.65 7.91,2.71zm19.81 -2.88c0.62,2.63 1.13,5.39 1.52,8.25 -1.54,-1.04 -3.12,-1.93 -4.77,-2.87 -1.66,-0.94 -3.13,-1.76 -4.7,-2.56 2.62,-1.03 5.27,-1.97 7.96,-2.81l-0.01 -0zm-13.87 5.43c2.72,1.29 5.45,2.7 8.18,4.26 2.72,1.56 5.38,3.23 7.91,4.96 0.23,3.03 0.35,6.15 0.35,9.36 -0.01,3.22 -0.13,6.24 -0.37,9.24 -2.52,1.73 -5.2,3.38 -7.85,4.94 -2.65,1.56 -5.43,3 -8.14,4.28 -5.6,-2.64 -10.98,-5.72 -16.09,-9.2 -0.49,-6.19 -0.48,-12.42 0.02,-18.61 2.55,-1.75 5.17,-3.41 7.85,-4.95 2.66,-1.52 5.38,-2.93 8.15,-4.25l0 -0.04zm15.37 34.18c-0.4,2.83 -0.91,5.56 -1.51,8.15 -2.57,-0.77 -5.2,-1.69 -7.85,-2.75 1.55,-0.81 3.11,-1.67 4.69,-2.58 1.57,-0.91 3.13,-1.84 4.68,-2.79l0 -0.04zm-25.93 2.87c1.57,0.89 3.15,1.75 4.72,2.56 -2.71,1.04 -5.37,2.08 -7.97,2.81 -0.61,-2.63 -1.12,-5.38 -1.51,-8.24 1.54,1 3.13,1.98 4.76,2.91l0 -0.04zm38.31 -18.54c-2,1.87 -4.17,3.71 -6.48,5.51 0.07,-1.81 0.12,-3.62 0.12,-5.44 0,-1.84 0,-3.72 -0.12,-5.54 2.24,1.72 4.41,3.55 6.48,5.47zm12.47 -23.08c0.42,0.79 0.62,1.68 0.58,2.57 -0.07,1.87 -0.54,3.72 -1.37,5.4 -1.8,3.81 -4.18,7.31 -7.05,10.4l-1.11 1.22c-3.28,-3.06 -6.76,-5.89 -10.41,-8.49 -0.43,-4.43 -1.15,-8.82 -2.13,-13.16 1.94,-0.46 3.91,-0.8 5.89,-1.04 7.85,-1.09 13.84,0.17 15.56,3.09l0.04 0.01zm-52.74 -5.5c0.59,-1.96 1.29,-3.88 2.07,-5.76 3.13,-7.39 7.13,-11.97 10.55,-11.97 3.42,0 7.43,4.6 10.49,11.98 0.77,1.85 1.45,3.74 2.02,5.66 -4.31,1.3 -8.53,2.88 -12.62,4.74 -4.07,-1.81 -8.24,-3.37 -12.5,-4.65l-0.01 -0.01zm-19.85 23.94c-7.63,-8.52 -8.44,-13.85 -8.44,-15.75 -0.04,-0.88 0.18,-1.75 0.6,-2.52 1.7,-2.97 7.67,-4.16 15.6,-3.21 2.03,0.24 4.03,0.59 6.02,1.04 -1,4.32 -1.71,8.68 -2.15,13.09 -3.69,2.63 -7.19,5.48 -10.48,8.57l-1.15 -1.22zm4.69 4.75c1.99,-1.87 4.15,-3.72 6.48,-5.52 -0.08,1.79 -0.12,3.6 -0.12,5.45 0,1.84 0,3.73 0.11,5.54 -2.31,-1.8 -4.47,-3.63 -6.47,-5.48l0 0.01zm-12.48 23.07c-0.43,-0.79 -0.64,-1.68 -0.61,-2.57 0,-1.89 0.83,-7.28 8.42,-15.78l1.11 -1.21c3.28,3.05 6.75,5.88 10.4,8.48 0.42,4.43 1.14,8.83 2.14,13.16 -2.02,0.46 -3.99,0.81 -5.9,1.05 -7.84,1.03 -13.83,-0.17 -15.53,-3.14l-0.04 0.01zm29.58 11.24c-0.73,-1.78 -1.4,-3.67 -2.01,-5.66 4.31,-1.31 8.52,-2.9 12.62,-4.76 4.07,1.83 8.22,3.39 12.48,4.68 -0.6,1.95 -1.29,3.87 -2.07,5.76 -3.13,7.37 -7.13,11.96 -10.55,11.95 -3.42,-0.01 -7.37,-4.6 -10.43,-11.98l-0.04 0.01zm1.06 -34.41c0,1.89 0.56,3.73 1.61,5.31 1.04,1.57 2.54,2.8 4.28,3.52 1.74,0.73 3.66,0.92 5.52,0.56 1.85,-0.37 3.56,-1.28 4.89,-2.61 1.34,-1.33 2.25,-3.04 2.62,-4.89 0.37,-1.85 0.18,-3.78 -0.54,-5.52 -0.72,-1.75 -1.94,-3.24 -3.52,-4.29 -1.57,-1.05 -3.41,-1.61 -5.3,-1.62 -1.25,-0.01 -2.5,0.24 -3.65,0.72 -1.75,0.72 -3.24,1.94 -4.29,3.51 -1.05,1.57 -1.61,3.42 -1.61,5.31l-0 0zm67.11 -63.46l-115.1 0 0 126.97 115.09 0 0 -126.97zm-110.15 122.01l0 -117.04 105.18 0 0 117.04 -105.18 0zm35.26 -88.41c-13.19,-3.12 -23.67,-1.77 -27.21,4.45 -0.85,1.52 -1.28,3.23 -1.25,4.97 0,5.8 4.04,13.13 11.05,20.52 -6.95,7.38 -10.98,14.69 -10.98,20.48 -0.03,1.77 0.4,3.52 1.27,5.06 3.56,6.18 13.98,7.44 27.04,4.38 3.87,12.91 10.18,21.3 17.3,21.31 7.12,0.02 13.52,-8.44 17.4,-21.4 13.18,3.12 23.67,1.76 27.21,-4.45 0.85,-1.52 1.28,-3.24 1.25,-4.98 0,-5.8 -4.04,-13.12 -11.05,-20.52 6.95,-7.39 10.97,-14.7 10.97,-20.48 0.03,-1.76 -0.4,-3.51 -1.27,-5.05 -3.57,-6.18 -13.98,-7.46 -27.11,-4.38 -3.86,-12.91 -10.17,-21.3 -17.3,-21.33 -7.13,-0.02 -13.45,8.46 -17.34,21.43l0 -0.01zm-15.07 25.18c-7.62,-8.52 -8.44,-13.84 -8.44,-15.75 -0.03,-0.88 0.18,-1.75 0.61,-2.52 1.7,-2.97 7.67,-4.16 15.6,-3.21 2.03,0.24 4.03,0.59 6.02,1.04 -0.99,4.31 -1.7,8.68 -2.15,13.08 -3.69,2.63 -7.19,5.48 -10.48,8.57l-1.16 -1.22zm38.38 25.79c1.58,-0.83 3.14,-1.69 4.69,-2.58 1.58,-0.91 3.13,-1.87 4.68,-2.83 -0.4,2.83 -0.91,5.56 -1.51,8.15 -2.57,-0.76 -5.2,-1.67 -7.85,-2.74l0 -0zm-19.76 2.83c-0.61,-2.63 -1.12,-5.38 -1.51,-8.24 3.08,1.95 6.24,3.76 9.47,5.43 -2.75,1.09 -5.39,2.04 -8.01,2.79l0.05 0.02zm13.89 -5.42c-5.6,-2.64 -10.98,-5.72 -16.09,-9.21 -0.48,-6.2 -0.48,-12.42 0.02,-18.61 5.08,-3.49 10.43,-6.58 16,-9.23 2.72,1.29 5.44,2.7 8.18,4.25 2.72,1.56 5.38,3.24 7.91,4.96 0.47,6.19 0.46,12.42 -0.02,18.61 -2.51,1.72 -5.19,3.38 -7.85,4.94 -2.65,1.56 -5.48,3 -8.19,4.29l0.05 -0zm-15.48 -34.13c0.39,-2.74 0.89,-5.46 1.51,-8.15 2.56,0.76 5.21,1.69 7.86,2.76 -1.56,0.81 -3.12,1.67 -4.69,2.57 -1.57,0.89 -3.11,1.79 -4.69,2.83l0.01 0zm26 -2.89c-1.55,-0.9 -3.12,-1.76 -4.7,-2.56 2.61,-1.06 5.25,-2.02 7.93,-2.86 0.61,2.63 1.11,5.39 1.52,8.25 -1.54,-0.96 -3.13,-1.89 -4.75,-2.83zm-38.33 18.6c2,-1.88 4.15,-3.72 6.48,-5.53 -0.08,1.79 -0.12,3.61 -0.12,5.45 0,1.84 0,3.73 0.12,5.54 -2.24,-1.72 -4.4,-3.55 -6.47,-5.46zm-12.48 23.07c-0.43,-0.79 -0.65,-1.68 -0.61,-2.58 0,-1.89 0.83,-7.28 8.43,-15.77l1.11 -1.22c3.28,3.05 6.75,5.88 10.4,8.48 0.42,4.43 1.14,8.83 2.14,13.17 -2.02,0.47 -3.99,0.81 -5.9,1.04 -7.84,1.04 -13.83,-0.16 -15.52,-3.12l-0.04 0zm52.69 5.5c-0.6,1.95 -1.29,3.87 -2.08,5.76 -3.12,7.38 -7.13,11.96 -10.54,11.95 -3.43,-0 -7.46,-4.59 -10.52,-11.97 -0.74,-1.78 -1.41,-3.67 -2,-5.66 4.31,-1.3 8.53,-2.89 12.63,-4.75 4.09,1.83 8.28,3.39 12.57,4.67l-0.04 0zm19.86 -23.93c7.62,8.52 8.45,13.85 8.45,15.74 0.03,0.88 -0.19,1.74 -0.61,2.52 -1.7,2.97 -7.67,4.16 -15.6,3.21 -2.02,-0.24 -4.04,-0.59 -6.03,-1.04 1.01,-4.31 1.73,-8.68 2.15,-13.08 3.68,-2.62 7.18,-5.48 10.49,-8.57 0.42,0.39 0.81,0.81 1.18,1.24l-0.04 -0.01zm-4.64 -4.73c-2,1.87 -4.15,3.71 -6.47,5.51 0.07,-1.81 0.12,-3.62 0.12,-5.44 0,-1.84 -0,-3.72 -0.12,-5.54 2.24,1.72 4.41,3.55 6.47,5.47zm12.48 -23.08c0.42,0.79 0.62,1.68 0.58,2.57 -0.07,1.87 -0.54,3.72 -1.37,5.4 -1.8,3.81 -4.18,7.31 -7.05,10.4l-1.11 1.22c-3.28,-3.06 -6.76,-5.89 -10.41,-8.49 -0.43,-4.43 -1.14,-8.82 -2.13,-13.16 1.94,-0.46 3.91,-0.8 5.89,-1.04 7.85,-1.09 13.84,0.17 15.56,3.09l0.04 0.01zm-29.63 -11.26c0.77,1.85 1.45,3.75 2.02,5.67 -4.31,1.3 -8.53,2.87 -12.62,4.74 -4.06,-1.82 -8.23,-3.38 -12.48,-4.67 0.59,-1.96 1.28,-3.88 2.07,-5.76 3.12,-7.39 7.12,-11.96 10.55,-11.96 3.42,0 7.4,4.61 10.46,11.99zm-1.04 34.33c0,-1.89 -0.56,-3.74 -1.61,-5.31 -1.04,-1.57 -2.54,-2.8 -4.28,-3.52 -1.75,-0.72 -3.67,-0.92 -5.52,-0.55 -2.32,0.46 -4.4,1.77 -5.81,3.67 -1.41,1.9 -2.07,4.26 -1.84,6.62 0.23,2.35 1.32,4.55 3.08,6.14 1.76,1.59 4.04,2.48 6.41,2.48 1.26,0.02 2.51,-0.22 3.67,-0.7 1.17,-0.47 2.23,-1.17 3.12,-2.07 0.9,-0.88 1.61,-1.94 2.09,-3.11 0.48,-1.15 0.74,-2.4 0.73,-3.66l-0.05 0zm0 0c0,-1.89 -0.56,-3.74 -1.61,-5.31 -1.04,-1.57 -2.54,-2.8 -4.28,-3.52 -1.75,-0.72 -3.67,-0.92 -5.52,-0.55 -2.32,0.46 -4.4,1.77 -5.81,3.67 -1.41,1.9 -2.07,4.26 -1.84,6.62 0.23,2.35 1.32,4.55 3.08,6.14 1.76,1.59 4.04,2.48 6.41,2.48 1.26,0.02 2.51,-0.22 3.67,-0.7 1.17,-0.47 2.23,-1.17 3.12,-2.07 0.9,-0.88 1.61,-1.94 2.09,-3.11 0.48,-1.15 0.74,-2.4 0.73,-3.66l-0.05 0zm0 0c0,-1.89 -0.56,-3.74 -1.61,-5.31 -1.04,-1.57 -2.54,-2.8 -4.28,-3.52 -1.75,-0.72 -3.67,-0.92 -5.52,-0.55 -2.32,0.46 -4.4,1.77 -5.81,3.67 -1.41,1.9 -2.07,4.26 -1.84,6.62 0.23,2.35 1.32,4.55 3.08,6.14 1.76,1.59 4.04,2.48 6.41,2.48 1.26,0.02 2.51,-0.22 3.67,-0.7 1.17,-0.47 2.23,-1.17 3.12,-2.07 0.9,-0.88 1.61,-1.94 2.09,-3.11 0.48,-1.15 0.74,-2.4 0.73,-3.66l-0.05 0zm-9.61 51.33c7.17,0 13.52,-8.44 17.4,-21.41 13.19,3.12 23.67,1.76 27.21,-4.45 0.85,-1.52 1.28,-3.24 1.25,-4.98 0,-5.79 -4.04,-13.12 -11.04,-20.51 6.95,-7.4 10.97,-14.7 10.97,-20.48 0.03,-1.77 -0.41,-3.52 -1.27,-5.06 -3.56,-6.18 -13.98,-7.46 -27.09,-4.37 -3.86,-12.91 -10.16,-21.3 -17.3,-21.33 -7.14,-0.02 -13.52,8.45 -17.4,21.42 -13.18,-3.13 -23.67,-1.77 -27.21,4.45 -0.85,1.52 -1.28,3.24 -1.24,4.97 0,5.8 4.04,13.13 11.04,20.52 -6.95,7.38 -10.97,14.69 -10.97,20.48 -0.03,1.77 0.41,3.52 1.27,5.06 3.56,6.18 13.98,7.45 27.04,4.38 3.93,12.91 10.24,21.3 17.36,21.31l-0.02 0zm32.48 -46.59c7.62,8.52 8.45,13.85 8.45,15.74 0.03,0.88 -0.18,1.74 -0.6,2.52 -1.7,2.98 -7.67,4.16 -15.6,3.22 -2.02,-0.24 -4.04,-0.59 -6.02,-1.04 1,-4.31 1.72,-8.68 2.15,-13.09 3.69,-2.62 7.19,-5.48 10.49,-8.57 0.39,0.39 0.76,0.8 1.14,1.23l0 -0.01zm-38.36 -25.78c-1.56,0.81 -3.12,1.67 -4.69,2.56 -1.57,0.9 -3.16,1.83 -4.74,2.87 0.39,-2.74 0.9,-5.45 1.52,-8.14 2.65,0.72 5.25,1.65 7.91,2.71l-0.01 0zm19.81 -2.89c0.62,2.64 1.13,5.39 1.52,8.25 -1.54,-1.04 -3.12,-1.93 -4.78,-2.87 -1.65,-0.93 -3.12,-1.76 -4.7,-2.56 2.62,-1.03 5.27,-1.96 7.96,-2.81l-0.01 -0.01zm-13.88 5.42c2.72,1.29 5.45,2.7 8.18,4.26 2.72,1.56 5.38,3.23 7.91,4.96 0.23,3.03 0.35,6.15 0.35,9.36 -0.01,3.22 -0.13,6.24 -0.37,9.24 -2.52,1.73 -5.2,3.38 -7.85,4.94 -2.65,1.56 -5.43,3 -8.14,4.28 -5.6,-2.64 -10.98,-5.72 -16.09,-9.2 -0.49,-6.19 -0.48,-12.42 0.02,-18.61 2.55,-1.75 5.17,-3.41 7.85,-4.95 2.66,-1.52 5.38,-2.93 8.15,-4.25l0 -0.04zm15.37 34.18c-0.4,2.83 -0.91,5.56 -1.51,8.15 -2.57,-0.77 -5.2,-1.69 -7.85,-2.75 1.55,-0.81 3.11,-1.67 4.69,-2.58 1.57,-0.91 3.13,-1.84 4.68,-2.79l0 -0.04zm-25.93 2.87c1.57,0.89 3.15,1.75 4.72,2.56 -2.71,1.04 -5.37,2.08 -7.97,2.81 -0.61,-2.63 -1.12,-5.38 -1.51,-8.24 1.54,1 3.13,1.98 4.76,2.91l0 -0.04zm38.31 -18.54c-2,1.87 -4.17,3.71 -6.48,5.51 0.07,-1.81 0.12,-3.62 0.12,-5.44 0,-1.84 0,-3.72 -0.12,-5.54 2.24,1.72 4.41,3.55 6.47,5.47l0.01 0zm12.47 -23.08c0.42,0.79 0.62,1.68 0.58,2.57 -0.07,1.87 -0.54,3.72 -1.37,5.4 -1.8,3.81 -4.18,7.31 -7.05,10.4l-1.11 1.22c-3.28,-3.06 -6.76,-5.89 -10.41,-8.49 -0.43,-4.43 -1.15,-8.82 -2.13,-13.16 1.94,-0.46 3.91,-0.8 5.89,-1.04 7.85,-1.09 13.84,0.17 15.56,3.09l0.04 0.01zm-52.74 -5.5c0.59,-1.96 1.29,-3.88 2.07,-5.76 3.13,-7.39 7.13,-11.97 10.55,-11.97 3.42,0 7.43,4.6 10.49,11.98 0.77,1.85 1.45,3.74 2.02,5.66 -4.31,1.3 -8.53,2.88 -12.62,4.74 -4.07,-1.81 -8.24,-3.37 -12.5,-4.65l-0.01 -0.01zm-19.85 23.94c-7.63,-8.52 -8.44,-13.85 -8.44,-15.75 -0.04,-0.88 0.18,-1.75 0.6,-2.52 1.7,-2.97 7.67,-4.16 15.6,-3.21 2.03,0.24 4.03,0.59 6.02,1.04 -1,4.32 -1.71,8.68 -2.15,13.09 -3.69,2.63 -7.19,5.48 -10.48,8.57l-1.15 -1.22zm4.69 4.75c1.99,-1.87 4.15,-3.72 6.48,-5.52 -0.08,1.79 -0.12,3.6 -0.12,5.45 0,1.84 0,3.73 0.11,5.54 -2.31,-1.8 -4.47,-3.63 -6.47,-5.48l0 0.01zm-12.48 23.07c-0.43,-0.79 -0.64,-1.68 -0.61,-2.57 0,-1.89 0.83,-7.28 8.42,-15.78l1.11 -1.21c3.28,3.05 6.75,5.88 10.4,8.48 0.42,4.43 1.14,8.83 2.14,13.16 -2.02,0.46 -3.99,0.81 -5.9,1.05 -7.84,1.03 -13.83,-0.17 -15.53,-3.14l-0.04 0.01zm29.58 11.24c-0.73,-1.78 -1.4,-3.67 -2.01,-5.66 4.31,-1.31 8.52,-2.9 12.62,-4.76 4.07,1.83 8.22,3.39 12.48,4.68 -0.6,1.95 -1.29,3.87 -2.07,5.76 -3.13,7.37 -7.13,11.96 -10.55,11.95 -3.42,-0.01 -7.37,-4.6 -10.43,-11.98l-0.04 0.01zm1.06 -34.41c0,1.89 0.56,3.73 1.61,5.31 1.04,1.57 2.54,2.8 4.28,3.52 1.74,0.73 3.66,0.92 5.52,0.56 1.85,-0.37 3.56,-1.28 4.89,-2.61 1.34,-1.33 2.25,-3.04 2.62,-4.89 0.37,-1.85 0.18,-3.78 -0.54,-5.52 -0.72,-1.75 -1.94,-3.24 -3.52,-4.29 -1.57,-1.05 -3.41,-1.61 -5.3,-1.62 -1.25,-0.01 -2.5,0.24 -3.65,0.72 -1.75,0.72 -3.24,1.94 -4.29,3.51 -1.05,1.57 -1.61,3.42 -1.61,5.31l-0 0zm-56.69 -72.12l115.13 0 -4.98 -4.98 -115.11 0 0 126.96 4.96 4.97 0 -126.94z"/>
   </g>
  </g>
  <g>
   <g id="Diagonal_x0020_Basis.svg_0">
    <rect class="fil9 str4" x="-23295.33" y="4729.62" width="242.7" height="242.7"/>
    <path class="fil10" d="M-23093.05 4782.19c-0.01,-3.1 -1.25,-6.07 -3.44,-8.26 -2.19,-2.19 -5.17,-3.43 -8.26,-3.44l-44.16 -0.01c-2.2,0.05 -4.34,0.72 -6.17,1.93 -1.84,1.21 -3.3,2.91 -4.22,4.91 -1.04,2.14 -1.4,4.55 -1.02,6.91 0.37,2.35 1.47,4.53 3.13,6.24l11.04 11.04c0.73,0.73 1.15,1.72 1.15,2.76 0,1.04 -0.41,2.03 -1.13,2.76l-24.85 24.85c-0.74,0.73 -1.73,1.15 -2.77,1.15 -1.04,0 -2.04,-0.41 -2.77,-1.15l-24.84 -24.85c-0.74,-0.73 -1.15,-1.73 -1.15,-2.76 0,-1.04 0.41,-2.04 1.15,-2.77l11.04 -11.04c1.66,-1.71 2.76,-3.89 3.13,-6.24 0.38,-2.35 0.02,-4.76 -1.02,-6.9 -0.88,-2.15 -2.38,-3.99 -4.31,-5.29 -1.93,-1.3 -4.2,-1.99 -6.52,-2l-44.14 0.01c-3.11,0.01 -6.08,1.24 -8.27,3.44 -2.2,2.2 -3.43,5.17 -3.44,8.28l-0.01 44.14c0.01,2.32 0.7,4.59 2,6.52 1.3,1.93 3.14,3.43 5.29,4.31 2.14,1.04 4.55,1.4 6.9,1.03 2.35,-0.37 4.53,-1.46 6.24,-3.12l11.05 -11.05c0.74,-0.73 1.73,-1.14 2.76,-1.14 1.04,0 2.03,0.42 2.76,1.15l24.83 24.83c0.74,0.74 1.15,1.73 1.15,2.77 0,1.04 -0.41,2.04 -1.15,2.77l-24.82 24.82c-0.74,0.74 -1.73,1.15 -2.77,1.15 -1.04,0 -2.03,-0.41 -2.77,-1.15l-11.04 -11.04c-1.64,-1.63 -3.72,-2.75 -5.99,-3.19 -2.27,-0.45 -4.62,-0.22 -6.76,0.66 -2.13,0.89 -3.96,2.39 -5.25,4.31 -1.29,1.92 -1.98,4.19 -1.98,6.5l0.01 44.17c0.01,3.1 1.24,6.07 3.44,8.26 2.2,2.2 5.17,3.43 8.26,3.44l44.16 0c3.1,-0.02 6.05,-1.25 8.29,-3.42 0.87,-1.02 1.58,-2.18 2.09,-3.43 1.04,-2.14 1.41,-4.55 1.03,-6.9 -0.37,-2.35 -1.46,-4.53 -3.12,-6.24l-11.05 -11.05c-0.72,-0.73 -1.14,-1.72 -1.14,-2.76 0,-1.03 0.41,-2.02 1.14,-2.76l24.84 -24.84c0.74,-0.73 1.73,-1.14 2.76,-1.13 1.04,0 2.03,0.41 2.76,1.14l24.83 24.83c0.73,0.74 1.15,1.73 1.15,2.77 0,1.04 -0.41,2.03 -1.15,2.76l-11.04 11.04c-1.64,1.62 -2.76,3.7 -3.21,5.96 -0.45,2.26 -0.22,4.6 0.67,6.73 0.88,2.15 2.38,3.99 4.31,5.28 1.93,1.3 4.19,1.99 6.52,2l44.15 0c3.11,-0.01 6.08,-1.24 8.28,-3.44 2.19,-2.19 3.43,-5.17 3.44,-8.27l0 -44.15c-0.06,-2.2 -0.73,-4.34 -1.94,-6.17 -1.21,-1.84 -2.91,-3.3 -4.91,-4.21 -2.14,-1.04 -4.55,-1.4 -6.9,-1.02 -2.35,0.38 -4.53,1.48 -6.24,3.13l-11.04 11.04c-0.74,0.74 -1.73,1.15 -2.77,1.15 -1.04,0 -2.03,-0.41 -2.76,-1.15l-24.85 -24.84c-0.73,-0.74 -1.13,-1.73 -1.13,-2.76 0,-1.04 0.41,-2.03 1.15,-2.76l24.85 -24.85c0.73,-0.73 1.73,-1.14 2.77,-1.14 1.04,0 2.03,0.41 2.76,1.14l11.04 11.04c1.62,1.64 3.7,2.75 5.96,3.21 2.26,0.45 4.6,0.22 6.73,-0.66 1.46,-0.58 2.76,-1.43 3.88,-2.55 2.16,-2.22 3.37,-5.19 3.41,-8.28l-0.01 -44.14z"/>
   </g>
   <g id="Measure_x0020_machine.svg_1">
    <rect class="fil11" x="-23388.12" y="4477.94" width="81.28" height="76.54"/>
    <rect class="fil11" x="-23058.34" y="4482.05" width="81.28" height="76.54"/>
    <rect class="fil11" x="-23233.09" y="4587" width="104.86" height="76.54"/>
    <rect class="fil11" x="-23310.16" y="4424.39" width="257.4" height="162.61"/>
    <path class="fil12" d="M-23341.74 4521.94c3.17,-3.17 3.17,-8.3 0,-11.47l-51.63 -51.63c-3.17,-3.17 -8.3,-3.17 -11.48,0 -3.17,3.17 -3.17,8.3 0,11.47l45.89 45.89 -45.89 45.89c-3.17,3.17 -3.17,8.3 0,11.47 3.17,3.17 8.31,3.17 11.48,0l51.63 -51.63zm-75.61 -5.74l0 8.11 69.88 0 0 -8.11 0 -8.11 -69.88 0 0 8.11z"/>
    <path class="fil12" d="M-22932.98 4526.06c3.17,-3.17 3.17,-8.3 0,-11.47l-51.63 -51.63c-3.17,-3.17 -8.31,-3.17 -11.48,0 -3.17,3.17 -3.17,8.3 0,11.47l45.89 45.89 -45.89 45.89c-3.17,3.17 -3.17,8.31 0,11.48 3.17,3.17 8.3,3.17 11.48,0l51.63 -51.63zm-65.3 -5.74l0 8.11 59.56 0 0 -8.11 0 -8.11 -59.56 0 0 8.11z"/>
    <path class="fil12" d="M-23174.93 4619.52c-3.17,-3.16 -8.3,-3.16 -11.47,0.02l-51.63 51.7c-3.17,3.18 -3.17,8.31 0,11.47 3.17,3.17 8.3,3.16 11.47,-0.02l45.89 -45.96 45.89 45.83c3.17,3.16 8.31,3.16 11.47,-0.02 3.17,-3.17 3.17,-8.31 0,-11.48l-51.63 -51.55zm-5.73 63.33l8.11 -0.01 -0 -57.59 -8.11 0.01 -8.11 0.01 0 57.59 8.11 -0.01z"/>
    <path class="fil5" d="M-23198.41 4446.56c-7.33,0 -13.35,6.02 -13.35,13.35 0,4.13 1.91,7.85 4.9,10.3l-10.77 22.25c-0.68,-0.11 -1.36,-0.17 -2.05,-0.18 -7.32,0 -13.35,6.02 -13.35,13.35 0,7.33 6.02,13.35 13.35,13.35 7.07,0 12.87,-5.63 13.27,-12.6 0.05,-0.25 0.07,-0.5 0.07,-0.74 0,-0.25 -0.02,-0.5 -0.07,-0.74 -0.21,-3.66 -1.91,-6.93 -4.49,-9.23l10.89 -22.51c0.52,0.06 1.06,0.1 1.6,0.1 4.91,0 9.19,-2.7 11.5,-6.69l18.93 5c1,6.22 6.33,11.04 12.77,11.24l7.44 22.71c-3.32,2.44 -5.5,6.35 -5.5,10.76 0,7.32 6.02,13.34 13.35,13.34 7.07,0 12.87,-5.62 13.27,-12.6 0.06,-0.24 0.08,-0.49 0.08,-0.74 0,-0.25 -0.02,-0.5 -0.07,-0.74 -0.4,-6.98 -6.2,-12.6 -13.27,-12.6 -0.28,0 -0.56,0.02 -0.84,0.04l-7.23 -22.06c3.67,-2.22 6.2,-6.17 6.46,-10.69 0.05,-0.25 0.07,-0.5 0.07,-0.74 0,-0.25 -0.02,-0.5 -0.07,-0.74 -0.4,-6.98 -6.2,-12.61 -13.27,-12.61 -5.43,0 -10.12,3.3 -12.2,7.99l-18.09 -4.79 -0.03 -0.17c-0.4,-6.98 -6.2,-12.61 -13.27,-12.61zm0 7.44c3.3,0 5.9,2.6 5.9,5.9 0,3.3 -2.59,5.9 -5.9,5.9 -3.31,0 -5.9,-2.59 -5.9,-5.9 0,-3.3 2.59,-5.9 5.9,-5.9zm43.6 9.57c3.3,0 5.9,2.6 5.9,5.91 0,3.3 -2.6,5.9 -5.9,5.9 -3.31,0 -5.91,-2.6 -5.91,-5.9 0,-3.3 2.6,-5.91 5.91,-5.91zm-64.87 36.16c3.3,0 5.9,2.6 5.9,5.9 0,3.3 -2.59,5.9 -5.9,5.9 -3.3,0 -5.91,-2.6 -5.91,-5.9 0,-3.3 2.6,-5.9 5.91,-5.9zm79.75 10.63c3.3,0 5.9,2.6 5.9,5.91 0,3.3 -2.6,5.9 -5.9,5.9 -3.3,0 -5.9,-2.59 -5.9,-5.9 0,-3.31 2.6,-5.91 5.9,-5.91zm-93.1 26.09l0 28.38 106.44 0 0 -28.38 -7.42 0 0 21.17 -9.09 0 0 -15.04 -7.41 0 0 15.04 -9.09 0 0 -15.04 -7.41 0 0 15.04 -9.09 0 0 -21.17 -7.42 0 0 21.17 -9.09 0 0 -15.04 -7.41 0 0 15.04 -9.09 0 0 -15.04 -7.42 0 0 15.04 -9.09 0 0 -21.17 -7.41 0z"/>
   </g>
  </g>
  <path class="fil13" d="M-34242.32 3417.57c6.13,4.22 11.78,7.27 16.97,9.22l-3.91 9.17c-7.15,-2.57 -14.28,-6.62 -21.39,-12.18 -7.36,4.1 -15.49,6.13 -24.38,6.13 -8.98,0 -17.13,-2.17 -24.44,-6.5 -7.31,-4.33 -12.94,-10.44 -16.9,-18.29 -3.96,-7.87 -5.93,-16.71 -5.93,-26.57 0,-9.79 1.99,-18.7 5.97,-26.76 3.96,-8.03 9.63,-14.14 16.97,-18.35 7.34,-4.19 15.56,-6.3 24.63,-6.3 9.17,0 17.43,2.17 24.79,6.53 7.36,4.37 12.98,10.46 16.85,18.31 3.87,7.83 5.79,16.67 5.79,26.51 0,8.19 -1.25,15.53 -3.75,22.06 -2.48,6.53 -6.25,12.2 -11.28,17.04zm-28.89 -16.8c7.57,2.13 13.82,5.3 18.73,9.49 7.71,-7.04 11.57,-17.61 11.57,-31.74 0,-8.03 -1.37,-15.04 -4.1,-21.04 -2.73,-6.02 -6.71,-10.67 -11.97,-13.98 -5.25,-3.31 -11.16,-4.98 -17.69,-4.98 -9.79,0 -17.92,3.36 -24.35,10.05 -6.46,6.71 -9.68,16.71 -9.68,30.02 0,12.89 3.2,22.8 9.56,29.72 6.39,6.9 14.54,10.35 24.46,10.35 4.68,0 9.1,-0.88 13.26,-2.64 -4.12,-2.67 -8.45,-4.56 -12.98,-5.7l3.17 -9.56zm107.22 27.48l0 -10.72c-5.6,8.17 -13.2,12.24 -22.8,12.24 -4.24,0 -8.19,-0.81 -11.87,-2.43 -3.68,-1.65 -6.41,-3.68 -8.2,-6.13 -1.78,-2.48 -3.03,-5.49 -3.75,-9.05 -0.49,-2.41 -0.74,-6.2 -0.74,-11.39l0 -44.61 12.22 0 0 39.88c0,6.37 0.26,10.67 0.74,12.87 0.76,3.22 2.39,5.72 4.89,7.55 2.48,1.83 5.53,2.76 9.19,2.76 3.66,0 7.08,-0.93 10.28,-2.8 3.19,-1.87 5.46,-4.44 6.8,-7.66 1.32,-3.22 1.99,-7.92 1.99,-14.05l0 -38.54 12.22 0 0 72.08 -10.97 0zm77.24 -9.03c-4.54,3.87 -8.91,6.57 -13.1,8.17 -4.19,1.6 -8.68,2.39 -13.5,2.39 -7.92,0 -14,-1.92 -18.26,-5.79 -4.26,-3.84 -6.39,-8.77 -6.39,-14.77 0,-3.52 0.81,-6.74 2.41,-9.65 1.62,-2.92 3.73,-5.23 6.32,-6.99 2.61,-1.76 5.53,-3.1 8.8,-4 2.41,-0.62 6.04,-1.22 10.88,-1.83 9.86,-1.16 17.15,-2.57 21.81,-4.19 0.05,-1.67 0.07,-2.73 0.07,-3.17 0,-4.95 -1.16,-8.45 -3.47,-10.48 -3.13,-2.76 -7.78,-4.12 -13.94,-4.12 -5.76,0 -10.02,1.02 -12.76,3.03 -2.75,2.02 -4.77,5.58 -6.09,10.72l-11.94 -1.67c1.09,-5.11 2.87,-9.26 5.37,-12.41 2.5,-3.15 6.11,-5.56 10.83,-7.27 4.7,-1.69 10.19,-2.54 16.39,-2.54 6.16,0 11.18,0.72 15.05,2.17 3.84,1.46 6.69,3.26 8.49,5.46 1.81,2.2 3.08,4.98 3.82,8.33 0.39,2.08 0.6,5.83 0.6,11.22l0 16.2c0,11.32 0.26,18.47 0.76,21.5 0.49,3.03 1.51,5.93 2.99,8.7l-12.78 0c-1.22,-2.57 -2.01,-5.58 -2.36,-9.03zm-0.97 -27.08c-4.44,1.8 -11.11,3.33 -20,4.58 -5.05,0.72 -8.61,1.53 -10.7,2.43 -2.08,0.91 -3.68,2.22 -4.81,3.94 -1.13,1.74 -1.71,3.66 -1.71,5.79 0,3.22 1.23,5.93 3.7,8.08 2.48,2.15 6.09,3.24 10.83,3.24 4.7,0 8.89,-1.02 12.57,-3.08 3.66,-2.04 6.37,-4.84 8.08,-8.38 1.32,-2.75 1.97,-6.8 1.97,-12.15l0.07 -4.44zm31.13 36.11l0 -72.08 10.97 0 0 10.23c5.28,-7.85 12.92,-11.76 22.89,-11.76 4.35,0 8.33,0.79 11.97,2.34 3.63,1.55 6.37,3.61 8.17,6.13 1.8,2.52 3.08,5.53 3.8,9 0.44,2.27 0.67,6.22 0.67,11.87l0 44.26 -12.22 0 0 -43.8c0,-4.98 -0.46,-8.7 -1.41,-11.16 -0.95,-2.46 -2.64,-4.42 -5.05,-5.91 -2.41,-1.46 -5.25,-2.2 -8.49,-2.2 -5.19,0 -9.65,1.64 -13.43,4.95 -3.77,3.29 -5.65,9.56 -5.65,18.77l0 39.33 -12.22 0zm103.77 -10.9l1.67 10.79c-3.43,0.72 -6.5,1.09 -9.19,1.09 -4.42,0 -7.85,-0.69 -10.3,-2.11 -2.43,-1.41 -4.14,-3.24 -5.14,-5.53 -1,-2.29 -1.48,-7.11 -1.48,-14.44l0 -41.53 -9.03 0 0 -9.44 9.03 0 0 -17.83 12.22 -7.33 0 25.16 12.22 0 0 9.44 -12.22 0 0 42.22c0,3.5 0.21,5.74 0.65,6.74 0.41,1 1.11,1.78 2.08,2.39 0.97,0.58 2.36,0.88 4.17,0.88 1.34,0 3.13,-0.16 5.32,-0.48zm59.15 10.9l0 -10.72c-5.6,8.17 -13.2,12.24 -22.8,12.24 -4.24,0 -8.19,-0.81 -11.87,-2.43 -3.68,-1.65 -6.41,-3.68 -8.2,-6.13 -1.78,-2.48 -3.03,-5.49 -3.75,-9.05 -0.49,-2.41 -0.74,-6.2 -0.74,-11.39l0 -44.61 12.22 0 0 39.88c0,6.37 0.26,10.67 0.74,12.87 0.76,3.22 2.39,5.72 4.89,7.55 2.48,1.83 5.53,2.76 9.19,2.76 3.66,0 7.08,-0.93 10.28,-2.8 3.19,-1.87 5.46,-4.44 6.8,-7.66 1.32,-3.22 1.99,-7.92 1.99,-14.05l0 -38.54 12.22 0 0 72.08 -10.97 0zm30.16 0l0 -72.08 10.97 0 0 10.19c2.25,-3.52 5.26,-6.37 9.01,-8.5 3.75,-2.15 8.01,-3.22 12.8,-3.22 5.32,0 9.7,1.11 13.1,3.31 3.4,2.22 5.81,5.3 7.2,9.28 5.74,-8.4 13.17,-12.59 22.34,-12.59 7.18,0 12.71,1.96 16.55,5.93 3.87,3.96 5.81,10.05 5.81,18.26l0 49.42 -12.22 0 0 -45.37c0,-4.86 -0.42,-8.38 -1.2,-10.53 -0.79,-2.15 -2.22,-3.87 -4.33,-5.19 -2.08,-1.32 -4.54,-1.97 -7.33,-1.97 -5.09,0 -9.31,1.69 -12.67,5.05 -3.35,3.38 -5.02,8.77 -5.02,16.18l0 41.83 -12.22 0 0 -46.78c0,-5.42 -1,-9.49 -2.99,-12.2 -1.99,-2.71 -5.25,-4.07 -9.77,-4.07 -3.43,0 -6.59,0.9 -9.51,2.71 -2.92,1.8 -5.02,4.44 -6.34,7.94 -1.3,3.47 -1.94,8.5 -1.94,15.05l0 37.36 -12.22 0zm201.37 -26.39l11.94 1.67c-1.32,8.22 -4.65,14.63 -10.04,19.28 -5.39,4.65 -12.04,6.97 -19.89,6.97 -9.84,0 -17.76,-3.22 -23.73,-9.65 -5.99,-6.43 -8.98,-15.65 -8.98,-27.64 0,-7.78 1.3,-14.56 3.87,-20.39 2.57,-5.81 6.48,-10.19 11.76,-13.08 5.26,-2.92 10.97,-4.37 17.18,-4.37 7.8,0 14.21,1.96 19.17,5.93 4.98,3.96 8.17,9.58 9.56,16.85l-11.8 1.81c-1.13,-4.84 -3.13,-8.47 -6.02,-10.93 -2.87,-2.43 -6.34,-3.66 -10.42,-3.66 -6.16,0 -11.16,2.2 -15.02,6.59 -3.84,4.42 -5.76,11.37 -5.76,20.91 0,9.67 1.85,16.69 5.56,21.06 3.73,4.37 8.57,6.57 14.52,6.57 4.81,0 8.82,-1.46 12.01,-4.4 3.22,-2.92 5.26,-7.43 6.11,-13.52zm22.36 26.39l0 -99.44 12.22 0 0 35.79c5.67,-6.65 12.82,-9.95 21.48,-9.95 5.3,0 9.91,1.04 13.84,3.15 3.91,2.11 6.71,5 8.41,8.7 1.69,3.7 2.52,9.1 2.52,16.13l0 45.63 -12.22 0 0 -45.58c0,-6.09 -1.32,-10.53 -3.94,-13.31 -2.64,-2.78 -6.34,-4.17 -11.16,-4.17 -3.59,0 -6.96,0.93 -10.14,2.8 -3.17,1.87 -5.42,4.42 -6.78,7.64 -1.34,3.19 -2.01,7.61 -2.01,13.26l0 39.35 -12.22 0zm124.33 -9.03c-4.54,3.87 -8.91,6.57 -13.1,8.17 -4.19,1.6 -8.68,2.39 -13.5,2.39 -7.92,0 -14,-1.92 -18.26,-5.79 -4.26,-3.84 -6.39,-8.77 -6.39,-14.77 0,-3.52 0.81,-6.74 2.41,-9.65 1.62,-2.92 3.73,-5.23 6.32,-6.99 2.61,-1.76 5.53,-3.1 8.8,-4 2.41,-0.62 6.04,-1.22 10.88,-1.83 9.86,-1.16 17.15,-2.57 21.81,-4.19 0.05,-1.67 0.07,-2.73 0.07,-3.17 0,-4.95 -1.16,-8.45 -3.47,-10.48 -3.13,-2.76 -7.78,-4.12 -13.94,-4.12 -5.76,0 -10.02,1.02 -12.76,3.03 -2.75,2.02 -4.77,5.58 -6.09,10.72l-11.94 -1.67c1.09,-5.11 2.87,-9.26 5.37,-12.41 2.5,-3.15 6.11,-5.56 10.83,-7.27 4.7,-1.69 10.19,-2.54 16.39,-2.54 6.16,0 11.18,0.72 15.05,2.17 3.84,1.46 6.69,3.26 8.49,5.46 1.81,2.2 3.08,4.98 3.82,8.33 0.39,2.08 0.6,5.83 0.6,11.22l0 16.2c0,11.32 0.26,18.47 0.76,21.5 0.49,3.03 1.51,5.93 2.99,8.7l-12.78 0c-1.22,-2.57 -2.01,-5.58 -2.36,-9.03zm-0.97 -27.08c-4.44,1.8 -11.11,3.33 -20,4.58 -5.05,0.72 -8.61,1.53 -10.7,2.43 -2.08,0.91 -3.68,2.22 -4.81,3.94 -1.13,1.74 -1.71,3.66 -1.71,5.79 0,3.22 1.23,5.93 3.7,8.08 2.48,2.15 6.09,3.24 10.83,3.24 4.7,0 8.89,-1.02 12.57,-3.08 3.66,-2.04 6.37,-4.84 8.08,-8.38 1.32,-2.75 1.97,-6.8 1.97,-12.15l0.07 -4.44zm31.13 36.11l0 -72.08 10.97 0 0 10.23c5.28,-7.85 12.92,-11.76 22.89,-11.76 4.35,0 8.33,0.79 11.97,2.34 3.63,1.55 6.37,3.61 8.17,6.13 1.8,2.52 3.08,5.53 3.8,9 0.44,2.27 0.67,6.22 0.67,11.87l0 44.26 -12.22 0 0 -43.8c0,-4.98 -0.46,-8.7 -1.41,-11.16 -0.95,-2.46 -2.64,-4.42 -5.05,-5.91 -2.41,-1.46 -5.25,-2.2 -8.49,-2.2 -5.19,0 -9.65,1.64 -13.43,4.95 -3.77,3.29 -5.65,9.56 -5.65,18.77l0 39.33 -12.22 0zm77.24 0l0 -72.08 10.97 0 0 10.23c5.28,-7.85 12.92,-11.76 22.89,-11.76 4.35,0 8.33,0.79 11.97,2.34 3.63,1.55 6.37,3.61 8.17,6.13 1.8,2.52 3.08,5.53 3.8,9 0.44,2.27 0.67,6.22 0.67,11.87l0 44.26 -12.22 0 0 -43.8c0,-4.98 -0.46,-8.7 -1.41,-11.16 -0.95,-2.46 -2.64,-4.42 -5.05,-5.91 -2.41,-1.46 -5.25,-2.2 -8.49,-2.2 -5.19,0 -9.65,1.64 -13.43,4.95 -3.77,3.29 -5.65,9.56 -5.65,18.77l0 39.33 -12.22 0zm126.41 -23.33l12.64 1.67c-1.97,7.33 -5.65,13.06 -11.02,17.11 -5.37,4.05 -12.22,6.09 -20.58,6.09 -10.51,0 -18.84,-3.24 -25,-9.72 -6.16,-6.46 -9.24,-15.56 -9.24,-27.25 0,-12.08 3.1,-21.48 9.33,-28.15 6.22,-6.69 14.3,-10.02 24.24,-10.02 9.61,0 17.45,3.26 23.54,9.81 6.09,6.55 9.15,15.76 9.15,27.64 0,0.72 -0.02,1.81 -0.07,3.24l-53.68 0c0.46,7.89 2.69,13.96 6.71,18.15 4.01,4.19 9.03,6.3 15.02,6.3 4.47,0 8.29,-1.18 11.44,-3.54 3.17,-2.36 5.67,-6.13 7.52,-11.32zm-40 -19.58l40.14 0c-0.53,-6.06 -2.08,-10.6 -4.61,-13.63 -3.87,-4.7 -8.91,-7.06 -15.09,-7.06 -5.6,0 -10.3,1.87 -14.12,5.62 -3.8,3.75 -5.9,8.78 -6.32,15.07zm67.8 42.92l0 -99.44 12.22 0 0 99.44 -12.22 0z"/>
  <path class="fil13" d="M-25331.75 4921.74c6.13,4.22 11.78,7.27 16.97,9.22l-3.91 9.17c-7.15,-2.57 -14.28,-6.62 -21.39,-12.18 -7.36,4.1 -15.49,6.13 -24.38,6.13 -8.98,0 -17.13,-2.17 -24.44,-6.5 -7.31,-4.33 -12.94,-10.44 -16.9,-18.29 -3.96,-7.87 -5.93,-16.71 -5.93,-26.57 0,-9.79 1.99,-18.7 5.97,-26.76 3.96,-8.03 9.63,-14.14 16.97,-18.35 7.34,-4.19 15.56,-6.3 24.63,-6.3 9.17,0 17.43,2.17 24.79,6.53 7.36,4.37 12.98,10.46 16.85,18.31 3.87,7.83 5.79,16.67 5.79,26.51 0,8.19 -1.25,15.53 -3.75,22.06 -2.48,6.53 -6.25,12.2 -11.28,17.04zm-28.89 -16.8c7.57,2.13 13.82,5.3 18.73,9.49 7.71,-7.04 11.57,-17.61 11.57,-31.74 0,-8.03 -1.37,-15.04 -4.1,-21.04 -2.73,-6.02 -6.71,-10.67 -11.97,-13.98 -5.25,-3.31 -11.16,-4.98 -17.69,-4.98 -9.79,0 -17.92,3.36 -24.35,10.05 -6.46,6.71 -9.68,16.71 -9.68,30.02 0,12.89 3.2,22.8 9.56,29.72 6.39,6.9 14.54,10.35 24.46,10.35 4.68,0 9.1,-0.88 13.26,-2.64 -4.12,-2.67 -8.45,-4.56 -12.98,-5.7l3.17 -9.56zm107.22 27.48l0 -10.72c-5.6,8.17 -13.2,12.24 -22.8,12.24 -4.24,0 -8.19,-0.81 -11.87,-2.43 -3.68,-1.65 -6.41,-3.68 -8.2,-6.13 -1.78,-2.48 -3.03,-5.49 -3.75,-9.05 -0.49,-2.41 -0.74,-6.2 -0.74,-11.39l0 -44.61 12.22 0 0 39.88c0,6.37 0.26,10.67 0.74,12.87 0.76,3.22 2.39,5.72 4.89,7.55 2.48,1.83 5.53,2.76 9.19,2.76 3.66,0 7.08,-0.93 10.28,-2.8 3.19,-1.87 5.46,-4.44 6.8,-7.66 1.32,-3.22 1.99,-7.92 1.99,-14.05l0 -38.54 12.22 0 0 72.08 -10.97 0zm77.24 -9.03c-4.54,3.87 -8.91,6.57 -13.1,8.17 -4.19,1.6 -8.68,2.39 -13.5,2.39 -7.92,0 -14,-1.92 -18.26,-5.79 -4.26,-3.84 -6.39,-8.77 -6.39,-14.77 0,-3.52 0.81,-6.74 2.41,-9.65 1.62,-2.92 3.73,-5.23 6.32,-6.99 2.61,-1.76 5.53,-3.1 8.8,-4 2.41,-0.62 6.04,-1.22 10.88,-1.83 9.86,-1.16 17.15,-2.57 21.81,-4.19 0.05,-1.67 0.07,-2.73 0.07,-3.17 0,-4.95 -1.16,-8.45 -3.47,-10.48 -3.13,-2.76 -7.78,-4.12 -13.94,-4.12 -5.76,0 -10.02,1.02 -12.76,3.03 -2.75,2.02 -4.77,5.58 -6.09,10.72l-11.94 -1.67c1.09,-5.11 2.87,-9.26 5.37,-12.41 2.5,-3.15 6.11,-5.56 10.83,-7.27 4.7,-1.69 10.19,-2.54 16.39,-2.54 6.16,0 11.18,0.72 15.05,2.17 3.84,1.46 6.69,3.26 8.49,5.46 1.81,2.2 3.08,4.98 3.82,8.33 0.39,2.08 0.6,5.83 0.6,11.22l0 16.2c0,11.32 0.26,18.47 0.76,21.5 0.49,3.03 1.51,5.93 2.99,8.7l-12.78 0c-1.22,-2.57 -2.01,-5.58 -2.36,-9.03zm-0.97 -27.08c-4.44,1.8 -11.11,3.33 -20,4.58 -5.05,0.72 -8.61,1.53 -10.7,2.43 -2.08,0.91 -3.68,2.22 -4.81,3.94 -1.13,1.74 -1.71,3.66 -1.71,5.79 0,3.22 1.23,5.93 3.7,8.08 2.48,2.15 6.09,3.24 10.83,3.24 4.7,0 8.89,-1.02 12.57,-3.08 3.66,-2.04 6.37,-4.84 8.08,-8.38 1.32,-2.75 1.97,-6.8 1.97,-12.15l0.07 -4.44zm31.13 36.11l0 -72.08 10.97 0 0 10.23c5.28,-7.85 12.92,-11.76 22.89,-11.76 4.35,0 8.33,0.79 11.97,2.34 3.63,1.55 6.37,3.61 8.17,6.13 1.8,2.52 3.08,5.53 3.8,9 0.44,2.27 0.67,6.22 0.67,11.87l0 44.26 -12.22 0 0 -43.8c0,-4.98 -0.46,-8.7 -1.41,-11.16 -0.95,-2.46 -2.64,-4.42 -5.05,-5.91 -2.41,-1.46 -5.25,-2.2 -8.49,-2.2 -5.19,0 -9.65,1.64 -13.43,4.95 -3.77,3.29 -5.65,9.56 -5.65,18.77l0 39.33 -12.22 0zm103.77 -10.9l1.67 10.79c-3.43,0.72 -6.5,1.09 -9.19,1.09 -4.42,0 -7.85,-0.69 -10.3,-2.11 -2.43,-1.41 -4.14,-3.24 -5.14,-5.53 -1,-2.29 -1.48,-7.11 -1.48,-14.44l0 -41.53 -9.03 0 0 -9.44 9.03 0 0 -17.83 12.22 -7.33 0 25.16 12.22 0 0 9.44 -12.22 0 0 42.22c0,3.5 0.21,5.74 0.65,6.74 0.41,1 1.11,1.78 2.08,2.39 0.97,0.58 2.36,0.88 4.17,0.88 1.34,0 3.13,-0.16 5.32,-0.48zm59.15 10.9l0 -10.72c-5.6,8.17 -13.2,12.24 -22.8,12.24 -4.24,0 -8.19,-0.81 -11.87,-2.43 -3.68,-1.65 -6.41,-3.68 -8.2,-6.13 -1.78,-2.48 -3.03,-5.49 -3.75,-9.05 -0.49,-2.41 -0.74,-6.2 -0.74,-11.39l0 -44.61 12.22 0 0 39.88c0,6.37 0.26,10.67 0.74,12.87 0.76,3.22 2.39,5.72 4.89,7.55 2.48,1.83 5.53,2.76 9.19,2.76 3.66,0 7.08,-0.93 10.28,-2.8 3.19,-1.87 5.46,-4.44 6.8,-7.66 1.32,-3.22 1.99,-7.92 1.99,-14.05l0 -38.54 12.22 0 0 72.08 -10.97 0zm30.16 0l0 -72.08 10.97 0 0 10.19c2.25,-3.52 5.26,-6.37 9.01,-8.5 3.75,-2.15 8.01,-3.22 12.8,-3.22 5.32,0 9.7,1.11 13.1,3.31 3.4,2.22 5.81,5.3 7.2,9.28 5.74,-8.4 13.17,-12.59 22.34,-12.59 7.18,0 12.71,1.96 16.55,5.93 3.87,3.96 5.81,10.05 5.81,18.26l0 49.42 -12.22 0 0 -45.37c0,-4.86 -0.42,-8.38 -1.2,-10.53 -0.79,-2.15 -2.22,-3.87 -4.33,-5.19 -2.08,-1.32 -4.54,-1.97 -7.33,-1.97 -5.09,0 -9.31,1.69 -12.67,5.05 -3.35,3.38 -5.02,8.77 -5.02,16.18l0 41.83 -12.22 0 0 -46.78c0,-5.42 -1,-9.49 -2.99,-12.2 -1.99,-2.71 -5.25,-4.07 -9.77,-4.07 -3.43,0 -6.59,0.9 -9.51,2.71 -2.92,1.8 -5.02,4.44 -6.34,7.94 -1.3,3.47 -1.94,8.5 -1.94,15.05l0 37.36 -12.22 0zm201.37 -26.39l11.94 1.67c-1.32,8.22 -4.65,14.63 -10.04,19.28 -5.39,4.65 -12.04,6.97 -19.89,6.97 -9.84,0 -17.76,-3.22 -23.73,-9.65 -5.99,-6.43 -8.98,-15.65 -8.98,-27.64 0,-7.78 1.3,-14.56 3.87,-20.39 2.57,-5.81 6.48,-10.19 11.76,-13.08 5.26,-2.92 10.97,-4.37 17.18,-4.37 7.8,0 14.21,1.96 19.17,5.93 4.98,3.96 8.17,9.58 9.56,16.85l-11.8 1.81c-1.13,-4.84 -3.13,-8.47 -6.02,-10.93 -2.87,-2.43 -6.34,-3.66 -10.42,-3.66 -6.16,0 -11.16,2.2 -15.02,6.59 -3.84,4.42 -5.76,11.37 -5.76,20.91 0,9.67 1.85,16.69 5.56,21.06 3.73,4.37 8.57,6.57 14.52,6.57 4.81,0 8.82,-1.46 12.01,-4.4 3.22,-2.92 5.26,-7.43 6.11,-13.52zm22.36 26.39l0 -99.44 12.22 0 0 35.79c5.67,-6.65 12.82,-9.95 21.48,-9.95 5.3,0 9.91,1.04 13.84,3.15 3.91,2.11 6.71,5 8.41,8.7 1.69,3.7 2.52,9.1 2.52,16.13l0 45.63 -12.22 0 0 -45.58c0,-6.09 -1.32,-10.53 -3.94,-13.31 -2.64,-2.78 -6.34,-4.17 -11.16,-4.17 -3.59,0 -6.96,0.93 -10.14,2.8 -3.17,1.87 -5.42,4.42 -6.78,7.64 -1.34,3.19 -2.01,7.61 -2.01,13.26l0 39.35 -12.22 0zm124.33 -9.03c-4.54,3.87 -8.91,6.57 -13.1,8.17 -4.19,1.6 -8.68,2.39 -13.5,2.39 -7.92,0 -14,-1.92 -18.26,-5.79 -4.26,-3.84 -6.39,-8.77 -6.39,-14.77 0,-3.52 0.81,-6.74 2.41,-9.65 1.62,-2.92 3.73,-5.23 6.32,-6.99 2.61,-1.76 5.53,-3.1 8.8,-4 2.41,-0.62 6.04,-1.22 10.88,-1.83 9.86,-1.16 17.15,-2.57 21.81,-4.19 0.05,-1.67 0.07,-2.73 0.07,-3.17 0,-4.95 -1.16,-8.45 -3.47,-10.48 -3.13,-2.76 -7.78,-4.12 -13.94,-4.12 -5.76,0 -10.02,1.02 -12.76,3.03 -2.75,2.02 -4.77,5.58 -6.09,10.72l-11.94 -1.67c1.09,-5.11 2.87,-9.26 5.37,-12.41 2.5,-3.15 6.11,-5.56 10.83,-7.27 4.7,-1.69 10.19,-2.54 16.39,-2.54 6.16,0 11.18,0.72 15.05,2.17 3.84,1.46 6.69,3.26 8.49,5.46 1.81,2.2 3.08,4.98 3.82,8.33 0.39,2.08 0.6,5.83 0.6,11.22l0 16.2c0,11.32 0.26,18.47 0.76,21.5 0.49,3.03 1.51,5.93 2.99,8.7l-12.78 0c-1.22,-2.57 -2.01,-5.58 -2.36,-9.03zm-0.97 -27.08c-4.44,1.8 -11.11,3.33 -20,4.58 -5.05,0.72 -8.61,1.53 -10.7,2.43 -2.08,0.91 -3.68,2.22 -4.81,3.94 -1.13,1.74 -1.71,3.66 -1.71,5.79 0,3.22 1.23,5.93 3.7,8.08 2.48,2.15 6.09,3.24 10.83,3.24 4.7,0 8.89,-1.02 12.57,-3.08 3.66,-2.04 6.37,-4.84 8.08,-8.38 1.32,-2.75 1.97,-6.8 1.97,-12.15l0.07 -4.44zm31.13 36.11l0 -72.08 10.97 0 0 10.23c5.28,-7.85 12.92,-11.76 22.89,-11.76 4.35,0 8.33,0.79 11.97,2.34 3.63,1.55 6.37,3.61 8.17,6.13 1.8,2.52 3.08,5.53 3.8,9 0.44,2.27 0.67,6.22 0.67,11.87l0 44.26 -12.22 0 0 -43.8c0,-4.98 -0.46,-8.7 -1.41,-11.16 -0.95,-2.46 -2.64,-4.42 -5.05,-5.91 -2.41,-1.46 -5.25,-2.2 -8.49,-2.2 -5.19,0 -9.65,1.64 -13.43,4.95 -3.77,3.29 -5.65,9.56 -5.65,18.77l0 39.33 -12.22 0zm77.24 0l0 -72.08 10.97 0 0 10.23c5.28,-7.85 12.92,-11.76 22.89,-11.76 4.35,0 8.33,0.79 11.97,2.34 3.63,1.55 6.37,3.61 8.17,6.13 1.8,2.52 3.08,5.53 3.8,9 0.44,2.27 0.67,6.22 0.67,11.87l0 44.26 -12.22 0 0 -43.8c0,-4.98 -0.46,-8.7 -1.41,-11.16 -0.95,-2.46 -2.64,-4.42 -5.05,-5.91 -2.41,-1.46 -5.25,-2.2 -8.49,-2.2 -5.19,0 -9.65,1.64 -13.43,4.95 -3.77,3.29 -5.65,9.56 -5.65,18.77l0 39.33 -12.22 0zm126.41 -23.33l12.64 1.67c-1.97,7.33 -5.65,13.06 -11.02,17.11 -5.37,4.05 -12.22,6.09 -20.58,6.09 -10.51,0 -18.84,-3.24 -25,-9.72 -6.16,-6.46 -9.24,-15.56 -9.24,-27.25 0,-12.08 3.1,-21.48 9.33,-28.15 6.22,-6.69 14.3,-10.02 24.24,-10.02 9.61,0 17.45,3.26 23.54,9.81 6.09,6.55 9.15,15.76 9.15,27.64 0,0.72 -0.02,1.81 -0.07,3.24l-53.68 0c0.46,7.89 2.69,13.96 6.71,18.15 4.01,4.19 9.03,6.3 15.02,6.3 4.47,0 8.29,-1.18 11.44,-3.54 3.17,-2.36 5.67,-6.13 7.52,-11.32zm-40 -19.58l40.14 0c-0.53,-6.06 -2.08,-10.6 -4.61,-13.63 -3.87,-4.7 -8.91,-7.06 -15.09,-7.06 -5.6,0 -10.3,1.87 -14.12,5.62 -3.8,3.75 -5.9,8.78 -6.32,15.07zm67.8 42.92l0 -99.44 12.22 0 0 99.44 -12.22 0z"/>
  <path class="fil13" d="M-37797.44 1483.37l15.83 4c-3.3,12.97 -9.25,22.83 -17.83,29.64 -8.58,6.8 -19.08,10.22 -31.5,10.22 -12.83,0 -23.28,-2.61 -31.33,-7.86 -8.06,-5.22 -14.17,-12.8 -18.36,-22.72 -4.19,-9.94 -6.3,-20.58 -6.3,-31.97 0,-12.42 2.36,-23.25 7.11,-32.5 4.75,-9.25 11.5,-16.28 20.25,-21.08 8.75,-4.81 18.39,-7.19 28.89,-7.19 11.94,0 21.97,3.03 30.08,9.11 8.14,6.08 13.81,14.61 17,25.61l-15.5 3.67c-2.75,-8.67 -6.78,-15 -12.03,-18.94 -5.25,-3.97 -11.86,-5.94 -19.83,-5.94 -9.14,0 -16.8,2.19 -22.94,6.58 -6.14,4.39 -10.47,10.3 -12.94,17.69 -2.5,7.42 -3.75,15.06 -3.75,22.92 0,10.14 1.47,19 4.42,26.56 2.94,7.58 7.53,13.22 13.75,16.97 6.22,3.75 12.94,5.61 20.19,5.61 8.83,0 16.28,-2.56 22.39,-7.64 6.11,-5.11 10.25,-12.67 12.41,-22.72zm33.19 41.86l0 -119.33 14.67 0 0 119.33 -14.67 0zm93.86 -10.83c-5.44,4.64 -10.7,7.89 -15.72,9.81 -5.03,1.92 -10.41,2.86 -16.19,2.86 -9.5,0 -16.8,-2.31 -21.92,-6.94 -5.11,-4.61 -7.67,-10.53 -7.67,-17.72 0,-4.22 0.97,-8.08 2.89,-11.58 1.94,-3.5 4.47,-6.28 7.58,-8.39 3.14,-2.11 6.64,-3.72 10.56,-4.8 2.89,-0.75 7.25,-1.47 13.06,-2.2 11.83,-1.39 20.58,-3.08 26.17,-5.03 0.06,-2 0.09,-3.28 0.09,-3.8 0,-5.94 -1.39,-10.14 -4.17,-12.58 -3.75,-3.31 -9.33,-4.94 -16.72,-4.94 -6.92,0 -12.03,1.22 -15.31,3.64 -3.3,2.42 -5.72,6.69 -7.3,12.86l-14.33 -2c1.31,-6.14 3.44,-11.11 6.44,-14.89 3,-3.78 7.33,-6.67 13,-8.72 5.64,-2.03 12.22,-3.06 19.67,-3.06 7.39,0 13.42,0.86 18.06,2.61 4.61,1.75 8.03,3.92 10.2,6.56 2.17,2.64 3.69,5.97 4.58,10 0.47,2.5 0.72,7 0.72,13.47l0 19.44c0,13.58 0.31,22.17 0.92,25.8 0.58,3.64 1.81,7.11 3.58,10.44l-15.33 0c-1.47,-3.08 -2.42,-6.69 -2.83,-10.83zm-1.17 -32.5c-5.33,2.17 -13.33,4 -24,5.5 -6.06,0.86 -10.33,1.83 -12.83,2.92 -2.5,1.08 -4.42,2.67 -5.78,4.72 -1.36,2.08 -2.06,4.39 -2.06,6.94 0,3.86 1.47,7.11 4.44,9.69 2.97,2.58 7.31,3.89 13,3.89 5.64,0 10.67,-1.22 15.08,-3.7 4.39,-2.44 7.64,-5.8 9.7,-10.06 1.58,-3.3 2.36,-8.17 2.36,-14.58l0.09 -5.33zm31.52 17.5l14.5 -2.33c0.81,5.8 3.08,10.25 6.81,13.36 3.72,3.09 8.94,4.64 15.61,4.64 6.75,0 11.75,-1.36 15.03,-4.11 3.25,-2.72 4.89,-5.94 4.89,-9.64 0,-3.3 -1.47,-5.92 -4.39,-7.8 -2.06,-1.31 -7.06,-2.94 -15,-4.97 -10.72,-2.7 -18.14,-5.03 -22.3,-7 -4.14,-2 -7.28,-4.72 -9.42,-8.22 -2.14,-3.47 -3.22,-7.33 -3.22,-11.56 0,-3.86 0.89,-7.42 2.64,-10.69 1.78,-3.28 4.17,-6 7.19,-8.17 2.28,-1.67 5.39,-3.08 9.31,-4.25 3.94,-1.17 8.14,-1.75 12.64,-1.75 6.78,0 12.72,0.97 17.83,2.94 5.14,1.94 8.92,4.61 11.36,7.94 2.42,3.36 4.11,7.83 5.03,13.44l-14.33 2c-0.64,-4.5 -2.53,-8.03 -5.64,-10.56 -3.11,-2.53 -7.5,-3.78 -13.19,-3.78 -6.69,0 -11.5,1.11 -14.36,3.33 -2.86,2.22 -4.3,4.83 -4.3,7.81 0,1.89 0.58,3.61 1.78,5.14 1.2,1.56 3.06,2.86 5.61,3.89 1.47,0.56 5.75,1.8 12.92,3.75 10.33,2.75 17.56,5.03 21.67,6.78 4.11,1.75 7.33,4.33 9.67,7.67 2.36,3.36 3.53,7.53 3.53,12.53 0,4.86 -1.42,9.44 -4.28,13.75 -2.86,4.3 -6.97,7.64 -12.33,10 -5.39,2.36 -11.47,3.53 -18.25,3.53 -11.22,0 -19.8,-2.33 -25.69,-6.97 -5.89,-4.67 -9.64,-11.56 -11.28,-20.7zm83.33 0l14.5 -2.33c0.81,5.8 3.08,10.25 6.81,13.36 3.72,3.09 8.94,4.64 15.61,4.64 6.75,0 11.75,-1.36 15.03,-4.11 3.25,-2.72 4.89,-5.94 4.89,-9.64 0,-3.3 -1.47,-5.92 -4.39,-7.8 -2.06,-1.31 -7.06,-2.94 -15,-4.97 -10.72,-2.7 -18.14,-5.03 -22.3,-7 -4.14,-2 -7.28,-4.72 -9.42,-8.22 -2.14,-3.47 -3.22,-7.33 -3.22,-11.56 0,-3.86 0.89,-7.42 2.64,-10.69 1.78,-3.28 4.17,-6 7.19,-8.17 2.28,-1.67 5.39,-3.08 9.31,-4.25 3.94,-1.17 8.14,-1.75 12.64,-1.75 6.78,0 12.72,0.97 17.83,2.94 5.14,1.94 8.92,4.61 11.36,7.94 2.42,3.36 4.11,7.83 5.03,13.44l-14.33 2c-0.64,-4.5 -2.53,-8.03 -5.64,-10.56 -3.11,-2.53 -7.5,-3.78 -13.19,-3.78 -6.69,0 -11.5,1.11 -14.36,3.33 -2.86,2.22 -4.3,4.83 -4.3,7.81 0,1.89 0.58,3.61 1.78,5.14 1.2,1.56 3.06,2.86 5.61,3.89 1.47,0.56 5.75,1.8 12.92,3.75 10.33,2.75 17.56,5.03 21.67,6.78 4.11,1.75 7.33,4.33 9.67,7.67 2.36,3.36 3.53,7.53 3.53,12.53 0,4.86 -1.42,9.44 -4.28,13.75 -2.86,4.3 -6.97,7.64 -12.33,10 -5.39,2.36 -11.47,3.53 -18.25,3.53 -11.22,0 -19.8,-2.33 -25.69,-6.97 -5.89,-4.67 -9.64,-11.56 -11.28,-20.7zm89.17 -76.83l0 -16.67 14.67 0 0 16.67 -14.67 0zm0 102.67l0 -86.5 14.67 0 0 86.5 -14.67 0zm93.53 -31.67l14.33 2c-1.59,9.86 -5.59,17.56 -12.06,23.14 -6.47,5.58 -14.44,8.36 -23.86,8.36 -11.81,0 -21.31,-3.86 -28.47,-11.58 -7.2,-7.72 -10.78,-18.78 -10.78,-33.17 0,-9.33 1.56,-17.47 4.64,-24.47 3.08,-6.97 7.78,-12.22 14.11,-15.69 6.3,-3.5 13.17,-5.25 20.61,-5.25 9.36,0 17.06,2.36 23,7.11 5.97,4.75 9.81,11.5 11.47,20.22l-14.17 2.17c-1.36,-5.8 -3.75,-10.17 -7.22,-13.11 -3.44,-2.92 -7.61,-4.39 -12.5,-4.39 -7.39,0 -13.39,2.64 -18.03,7.92 -4.61,5.31 -6.92,13.64 -6.92,25.08 0,11.61 2.22,20.03 6.67,25.28 4.47,5.25 10.28,7.89 17.41,7.89 5.78,0 10.59,-1.75 14.42,-5.28 3.86,-3.5 6.31,-8.92 7.33,-16.22zm83.33 20.83c-5.44,4.64 -10.7,7.89 -15.72,9.81 -5.03,1.92 -10.41,2.86 -16.19,2.86 -9.5,0 -16.8,-2.31 -21.92,-6.94 -5.11,-4.61 -7.67,-10.53 -7.67,-17.72 0,-4.22 0.97,-8.08 2.89,-11.58 1.94,-3.5 4.47,-6.28 7.58,-8.39 3.14,-2.11 6.64,-3.72 10.56,-4.8 2.89,-0.75 7.25,-1.47 13.06,-2.2 11.83,-1.39 20.58,-3.08 26.17,-5.03 0.06,-2 0.09,-3.28 0.09,-3.8 0,-5.94 -1.39,-10.14 -4.17,-12.58 -3.75,-3.31 -9.33,-4.94 -16.72,-4.94 -6.92,0 -12.03,1.22 -15.31,3.64 -3.3,2.42 -5.72,6.69 -7.3,12.86l-14.33 -2c1.31,-6.14 3.44,-11.11 6.44,-14.89 3,-3.78 7.33,-6.67 13,-8.72 5.64,-2.03 12.22,-3.06 19.67,-3.06 7.39,0 13.42,0.86 18.06,2.61 4.61,1.75 8.03,3.92 10.2,6.56 2.17,2.64 3.69,5.97 4.58,10 0.47,2.5 0.72,7 0.72,13.47l0 19.44c0,13.58 0.31,22.17 0.92,25.8 0.58,3.64 1.81,7.11 3.58,10.44l-15.33 0c-1.47,-3.08 -2.42,-6.69 -2.83,-10.83zm-1.17 -32.5c-5.33,2.17 -13.33,4 -24,5.5 -6.06,0.86 -10.33,1.83 -12.83,2.92 -2.5,1.08 -4.42,2.67 -5.78,4.72 -1.36,2.08 -2.06,4.39 -2.06,6.94 0,3.86 1.47,7.11 4.44,9.69 2.97,2.58 7.31,3.89 13,3.89 5.64,0 10.67,-1.22 15.08,-3.7 4.39,-2.44 7.64,-5.8 9.7,-10.06 1.58,-3.3 2.36,-8.17 2.36,-14.58l0.09 -5.33zm37.02 43.33l0 -119.33 14.67 0 0 119.33 -14.67 0zm140.17 -31.67l14.33 2c-1.59,9.86 -5.59,17.56 -12.06,23.14 -6.47,5.58 -14.44,8.36 -23.86,8.36 -11.81,0 -21.31,-3.86 -28.47,-11.58 -7.2,-7.72 -10.78,-18.78 -10.78,-33.17 0,-9.33 1.56,-17.47 4.64,-24.47 3.08,-6.97 7.78,-12.22 14.11,-15.69 6.3,-3.5 13.17,-5.25 20.61,-5.25 9.36,0 17.06,2.36 23,7.11 5.97,4.75 9.81,11.5 11.47,20.22l-14.17 2.17c-1.36,-5.8 -3.75,-10.17 -7.22,-13.11 -3.44,-2.92 -7.61,-4.39 -12.5,-4.39 -7.39,0 -13.39,2.64 -18.03,7.92 -4.61,5.31 -6.92,13.64 -6.92,25.08 0,11.61 2.22,20.03 6.67,25.28 4.47,5.25 10.28,7.89 17.41,7.89 5.78,0 10.59,-1.75 14.42,-5.28 3.86,-3.5 6.31,-8.92 7.33,-16.22zm26.83 31.67l0 -119.33 14.67 0 0 42.94c6.81,-7.97 15.39,-11.94 25.78,-11.94 6.36,0 11.89,1.25 16.61,3.78 4.69,2.53 8.06,6 10.08,10.44 2.03,4.44 3.03,10.92 3.03,19.36l0 54.75 -14.67 0 0 -54.69c0,-7.31 -1.58,-12.64 -4.72,-15.97 -3.17,-3.33 -7.61,-5 -13.39,-5 -4.31,0 -8.36,1.11 -12.17,3.36 -3.8,2.25 -6.5,5.3 -8.14,9.17 -1.61,3.83 -2.42,9.14 -2.42,15.92l0 47.22 -14.67 0zm149.19 -10.83c-5.44,4.64 -10.7,7.89 -15.72,9.81 -5.03,1.92 -10.41,2.86 -16.19,2.86 -9.5,0 -16.8,-2.31 -21.92,-6.94 -5.11,-4.61 -7.67,-10.53 -7.67,-17.72 0,-4.22 0.97,-8.08 2.89,-11.58 1.94,-3.5 4.47,-6.28 7.58,-8.39 3.14,-2.11 6.64,-3.72 10.56,-4.8 2.89,-0.75 7.25,-1.47 13.06,-2.2 11.83,-1.39 20.58,-3.08 26.17,-5.03 0.06,-2 0.09,-3.28 0.09,-3.8 0,-5.94 -1.39,-10.14 -4.17,-12.58 -3.75,-3.31 -9.33,-4.94 -16.72,-4.94 -6.92,0 -12.03,1.22 -15.31,3.64 -3.3,2.42 -5.72,6.69 -7.3,12.86l-14.33 -2c1.31,-6.14 3.44,-11.11 6.44,-14.89 3,-3.78 7.33,-6.67 13,-8.72 5.64,-2.03 12.22,-3.06 19.67,-3.06 7.39,0 13.42,0.86 18.06,2.61 4.61,1.75 8.03,3.92 10.2,6.56 2.17,2.64 3.69,5.97 4.58,10 0.47,2.5 0.72,7 0.72,13.47l0 19.44c0,13.58 0.31,22.17 0.92,25.8 0.58,3.64 1.81,7.11 3.58,10.44l-15.33 0c-1.47,-3.08 -2.42,-6.69 -2.83,-10.83zm-1.17 -32.5c-5.33,2.17 -13.33,4 -24,5.5 -6.06,0.86 -10.33,1.83 -12.83,2.92 -2.5,1.08 -4.42,2.67 -5.78,4.72 -1.36,2.08 -2.06,4.39 -2.06,6.94 0,3.86 1.47,7.11 4.44,9.69 2.97,2.58 7.31,3.89 13,3.89 5.64,0 10.67,-1.22 15.08,-3.7 4.39,-2.44 7.64,-5.8 9.7,-10.06 1.58,-3.3 2.36,-8.17 2.36,-14.58l0.09 -5.33zm37.36 43.33l0 -86.5 13.17 0 0 12.28c6.33,-9.42 15.5,-14.11 27.47,-14.11 5.22,0 10,0.94 14.36,2.8 4.36,1.86 7.64,4.33 9.8,7.36 2.17,3.03 3.7,6.64 4.56,10.8 0.53,2.72 0.8,7.47 0.8,14.25l0 53.11 -14.67 0 0 -52.56c0,-5.97 -0.56,-10.44 -1.7,-13.39 -1.14,-2.94 -3.17,-5.3 -6.06,-7.08 -2.89,-1.75 -6.3,-2.64 -10.19,-2.64 -6.22,0 -11.58,1.97 -16.11,5.94 -4.53,3.94 -6.78,11.47 -6.78,22.53l0 47.19 -14.67 0zm92.69 0l0 -86.5 13.17 0 0 12.28c6.33,-9.42 15.5,-14.11 27.47,-14.11 5.22,0 10,0.94 14.36,2.8 4.36,1.86 7.64,4.33 9.8,7.36 2.17,3.03 3.7,6.64 4.56,10.8 0.53,2.72 0.8,7.47 0.8,14.25l0 53.11 -14.67 0 0 -52.56c0,-5.97 -0.56,-10.44 -1.7,-13.39 -1.14,-2.94 -3.17,-5.3 -6.06,-7.08 -2.89,-1.75 -6.3,-2.64 -10.19,-2.64 -6.22,0 -11.58,1.97 -16.11,5.94 -4.53,3.94 -6.78,11.47 -6.78,22.53l0 47.19 -14.67 0zm151.69 -28l15.17 2c-2.36,8.81 -6.78,15.67 -13.22,20.53 -6.44,4.86 -14.67,7.31 -24.7,7.31 -12.61,0 -22.61,-3.89 -30,-11.67 -7.39,-7.75 -11.08,-18.67 -11.08,-32.69 0,-14.5 3.72,-25.78 11.2,-33.78 7.47,-8.03 17.17,-12.03 29.08,-12.03 11.53,0 20.94,3.91 28.25,11.78 7.31,7.86 10.97,18.92 10.97,33.17 0,0.86 -0.03,2.17 -0.08,3.89l-64.42 0c0.56,9.47 3.22,16.75 8.06,21.78 4.81,5.03 10.83,7.56 18.03,7.56 5.36,0 9.94,-1.42 13.72,-4.25 3.8,-2.83 6.8,-7.36 9.03,-13.58zm-48 -23.5l48.17 0c-0.64,-7.28 -2.5,-12.72 -5.53,-16.36 -4.64,-5.64 -10.69,-8.47 -18.11,-8.47 -6.72,0 -12.36,2.25 -16.94,6.75 -4.56,4.5 -7.08,10.53 -7.58,18.08zm81.36 51.5l0 -119.33 14.67 0 0 119.33 -14.67 0z"/>
  <rect class="fil7 str5" x="-24304.16" y="-8557.53" width="4242.64" height="4242.64"/>
  <g id="_3062414447344">
   <circle class="fil0 str0" cx="-16270.98" cy="-6849.37" r="1100"/>
   <g>
    <path class="fil1 str1" d="M-16070.98 -6682.54l0 -1583.42 200 0 -400 -1583.42 -400 1583.42 200 0 0 1583.42 400 0zm0 -791.7m100 -791.71m-100 -791.7m-400 0m-100 791.7m100 791.71m200 791.7z"/>
    <path class="fil1 str1" d="M-16070.98 -7016.2l0 1583.41 200 0 -400 1583.42 -400 -1583.42 200 0 0 -1583.41 400 0zm0 791.7m100 791.71m-100 791.7m-400 0m-100 -791.7m100 -791.71m200 -791.7z"/>
   </g>
  </g>
  <rect class="fil7 str5" x="-19270.98" y="-9849.39" width="6000.01" height="6000.02"/>
  <g>
   <g id="_3062414447344_2">
    <circle class="fil0 str0" cx="-20304.31" cy="683.96" r="1100"/>
    <g id="_1434748410736">
     <path class="fil1 str1" d="M-20104.31 850.79l0 -1583.42 200 0 -400 -1583.42 -400 1583.42 200 0 0 1583.42 400 0zm0 -791.7m100 -791.71m-100 -791.7m-400 0m-100 791.7m100 791.71m200 791.7z"/>
     <path class="fil1 str1" d="M-20104.31 517.13l0 1583.41 200 0 -400 1583.42 -400 -1583.42 200 0 0 -1583.41 400 0zm0 791.7m100 791.71m-100 791.7m-400 0m-100 -791.7m100 -791.71m200 -791.7z"/>
    </g>
   </g>
   <rect class="fil7 str5" x="-23304.31" y="-2316.05" width="6000.01" height="6000.02"/>
  </g>
  <g id="_3062414449808">
   <circle class="fil0 str0" cx="-20304.31" cy="683.96" r="1100"/>
   <g>
    <path class="fil1 str1" d="M-20471.15 883.97l1583.42 0 0 200 1583.42 -400 -1583.42 -400 0 200 -1583.42 0 0 400zm791.7 0m791.71 100m791.7 -100m0 -400m-791.7 -100m-791.71 100m-791.7 200z"/>
    <path class="fil1 str1" d="M-20137.48 883.97l-1583.41 0 0 200 -1583.42 -400 1583.42 -400 0 200 1583.41 0 0 400zm-791.7 0m-791.71 100m-791.7 -100m0 -400m791.7 -100m791.71 100m791.7 200z"/>
   </g>
  </g>
  <g id="_3062414449808_3">
   <circle class="fil0 str0" cx="-16270.98" cy="-6849.37" r="1100"/>
   <g>
    <path class="fil1 str1" d="M-16437.81 -6649.36l1583.42 0 0 200 1583.42 -400 -1583.42 -400 0 200 -1583.42 0 0 400zm791.7 0m791.71 100m791.7 -100m0 -400m-791.7 -100m-791.71 100m-791.7 200z"/>
    <path class="fil1 str1" d="M-16104.15 -6649.36l-1583.41 0 0 200 -1583.42 -400 1583.42 -400 0 200 1583.41 0 0 400zm-791.7 0m-791.71 100m-791.7 -100m0 -400m791.7 -100m791.71 100m791.7 200z"/>
   </g>
  </g>
  <g>
   <circle class="fil0 str0" transform="matrix(2.64845E-14 -1 1 2.64845E-14 6150.91 13374.4)" r="1100"/>
   <path class="fil1 str1" d="M6350.92 13079.04l0 -912.98 200 0 -400 -912.98 -400 912.98 200 0 0 912.98 400 0zm0 -456.48m100 -456.49m-100 -456.49m-400 0m-100 456.49m100 456.49m200 456.48z"/>
   <path class="fil1 str1" d="M6350.92 13667.59l0 914.06 200 0 -400 914.07 -400 -914.07 200 0 0 -914.06 400 0zm0 457.03m100 457.03m-100 457.03m-400 0m-100 -457.03m100 -457.03m200 -457.03z"/>
   <rect class="fil2 str2" transform="matrix(2.64845E-14 -1 1 2.64845E-14 5950.92 13667.6)" width="588.55" height="400"/>
  </g>
 </g>
 <g id="Layer_x0020_1_4">
  <metadata id="CorelCorpID_1Corel-Layer"/>
  <g id="_3062414511696">
   <rect class="fil14 str6" x="-25613.37" y="-680.61" width="2333" height="2260"/>
   <rect class="fil15 str6" x="-25468.2" y="-545.84" width="2042.67" height="1990.46"/>
   <polygon class="fil10 str6" points="-25346.87,449.4 -24941.87,44.4 -24941.87,246.89 -24649.37,246.89 -24649.37,-45.6 -24851.87,-45.6 -24446.87,-450.61 -24041.87,-45.6 -24244.37,-45.6 -24244.37,246.89 -23951.87,246.89 -23951.87,44.4 -23546.87,449.4 -23951.87,854.4 -23951.87,651.89 -24244.37,651.89 -24244.37,944.4 -24041.87,944.4 -24446.87,1349.4 -24851.87,944.4 -24649.37,944.4 -24649.37,651.89 -24941.87,651.89 -24941.87,854.4 "/>
  </g>
  <g id="_3062414449808_5">
   <circle class="fil0 str0" cx="-40073.95" cy="-1844.12" r="1100"/>
   <g>
    <path class="fil1 str1" d="M-40240.78 -1644.11l1583.42 0 0 200 1583.42 -400 -1583.42 -400 0 200 -1583.42 0 0 400zm791.7 0m791.71 100m791.7 -100m0 -400m-791.7 -100m-791.71 100m-791.7 200z"/>
    <path class="fil1 str1" d="M-39907.12 -1644.11l-1583.41 0 0 200 -1583.42 -400 1583.42 -400 0 200 1583.41 0 0 400zm-791.7 0m-791.71 100m-791.7 -100m0 -400m791.7 -100m791.71 100m791.7 200z"/>
   </g>
  </g>
  <g id="_3062414447312">
   <circle class="fil0 str0" cx="14918.56" cy="12544.15" r="1100"/>
   <g>
    <path class="fil1 str1" d="M14942.02 12803.54l1119.64 -1119.64 141.42 141.42 836.8 -1402.48 -1402.48 836.8 141.42 141.43 -1119.64 1119.64 282.85 282.85 -0.01 -0.02zm559.82 -559.82m630.53 -489.11m489.11 -630.54m-282.84 -282.84m-630.53 489.11m-489.11 630.53m-418.4 701.24z"/>
    <path class="fil1 str1" d="M15177.95 12567.61l-1119.65 1119.64 141.42 141.42 -1402.49 836.8 836.8 -1402.49 141.42 141.43 1119.65 -1119.65 282.85 282.85 -0 -0zm-559.82 559.82m-489.12 630.54m-630.53 489.11m-282.85 -282.84m489.11 -630.53m630.54 -489.11m701.24 -418.4z"/>
   </g>
  </g>
 </g>
 <g id="Layer_x0020_1_6">
  <metadata id="CorelCorpID_2Corel-Layer"/>
  <rect class="fil16 str6" x="-25523.39" y="1435.97" width="2333.33" height="2260.42"/>
  <rect class="fil17 str6" x="-25377.56" y="1571.39" width="2041.67" height="2000"/>
  <polygon class="fil10 str6" points="-25106.72,1821.39 -24431.73,1821.39 -24600.47,1990.15 -24356.72,2233.9 -24112.98,1990.15 -24281.72,1821.39 -23606.72,1821.39 -23606.72,2496.39 -23775.48,2327.65 -24019.24,2571.39 -23775.48,2815.14 -23606.72,2646.4 -23606.72,3321.39 -24281.72,3321.39 -24112.98,3152.64 -24356.72,2908.89 -24600.47,3152.64 -24431.73,3321.39 -25106.72,3321.39 -25106.72,2646.4 -24937.97,2815.14 -24694.21,2571.39 -24937.97,2327.65 -25106.72,2496.39 "/>
  <g id="_3062414511696_7">
   <rect class="fil14 str6" x="-40297.01" y="-4301.54" width="2333" height="2260"/>
   <rect class="fil15 str6" x="-40151.84" y="-4166.77" width="2042.67" height="1990.46"/>
   <polygon class="fil10 str6" points="-40030.51,-3171.52 -39625.51,-3576.52 -39625.51,-3374.04 -39333,-3374.04 -39333,-3666.52 -39535.51,-3666.52 -39130.51,-4071.54 -38725.51,-3666.52 -38928.01,-3666.52 -38928.01,-3374.04 -38635.51,-3374.04 -38635.51,-3576.52 -38230.51,-3171.52 -38635.51,-2766.52 -38635.51,-2969.04 -38928.01,-2969.04 -38928.01,-2676.52 -38725.51,-2676.52 -39130.51,-2271.52 -39535.51,-2676.52 -39333,-2676.52 -39333,-2969.04 -39625.51,-2969.04 -39625.51,-2766.52 "/>
  </g>
  <g>
  </g>
  <g style="clip-path:url(#id0)">
   <g>
   </g>
  </g>
  <polygon class="fil7" points="14588.74,13700.76 16858.25,13700.76 16858.25,11114.71 14588.74,11114.71 "/>
  <g style="clip-path:url(#id1)">
   <path id="1" class="fil7 str7" d="M14588.74 11114.71l2269.51 2586.05m0 -2586.05l-2269.51 2586.05"/>
  </g>
  <rect class="fil7" x="14602.63" y="11128.6" width="2241.73" height="2558.27"/>
  <g id="_3062414449808_8">
   <circle class="fil0 str0" cx="1151.59" cy="14531.56" r="1100"/>
   <g>
    <path class="fil1 str1" d="M984.76 14731.56l1583.42 0 0 200 1583.42 -400 -1583.42 -400 0 200 -1583.42 0 0 400zm791.7 0m791.71 100m791.7 -100m0 -400m-791.7 -100m-791.71 100m-791.7 200z"/>
    <path class="fil1 str1" d="M1318.42 14731.56l-1583.41 0 0 200 -1583.42 -400 1583.42 -400 0 200 1583.41 0 0 400zm-791.7 0m-791.71 100m-791.7 -100m0 -400m791.7 -100m791.71 100m791.7 200z"/>
   </g>
  </g>
  <g id="_3062414447344_9">
   <circle class="fil0 str0" cx="-45545.5" cy="-5818.65" r="1100"/>
   <g>
    <path class="fil1 str1" d="M-45345.5 -5651.82l0 -1583.42 200 0 -400 -1583.42 -400 1583.42 200 0 0 1583.42 400 0zm0 -791.7m100 -791.71m-100 -791.7m-400 0m-100 791.7m100 791.71m200 791.7z"/>
    <path class="fil1 str1" d="M-45345.5 -5985.48l0 1583.41 200 0 -400 1583.42 -400 -1583.42 200 0 0 -1583.41 400 0zm0 791.7m100 791.71m-100 791.7m-400 0m-100 -791.7m100 -791.71m200 -791.7z"/>
   </g>
  </g>
  <g id="_3062414447312_10">
   <circle class="fil0 str0" cx="-45315.21" cy="3717.7" r="1100"/>
   <g>
    <path class="fil1 str1" d="M-45291.76 3977.09l1119.64 -1119.64 141.42 141.42 836.8 -1402.48 -1402.48 836.8 141.42 141.43 -1119.64 1119.64 282.85 282.85 -0.01 -0.02zm559.82 -559.82m630.53 -489.11m489.11 -630.54m-282.84 -282.84m-630.53 489.11m-489.11 630.53m-418.4 701.24z"/>
    <path class="fil1 str1" d="M-45055.82 3741.16l-1119.65 1119.64 141.42 141.42 -1402.49 836.8 836.8 -1402.49 141.42 141.43 1119.65 -1119.65 282.85 282.85 -0 -0zm-559.82 559.82m-489.12 630.54m-630.53 489.11m-282.85 -282.84m489.11 -630.53m630.54 -489.11m701.24 -418.4z"/>
   </g>
  </g>
  <g id="_3062414447632">
   <circle class="fil0 str0" cx="-22182.83" cy="-6436.21" r="1100"/>
   <g>
    <path class="fil1 str1" d="M-22442.23 -6412.76l1119.65 1119.65 -141.42 141.42 1402.49 836.8 -836.8 -1402.49 -141.42 141.42 -1119.65 -1119.64 -282.85 282.84 0 0zm559.82 559.82m489.11 630.54m630.54 489.11m282.84 -282.84m-489.11 -630.53m-630.54 -489.11m-701.24 -418.4z"/>
    <path class="fil1 str1" d="M-22206.29 -6176.82l-1119.64 -1119.64 -141.42 141.42 -836.8 -1402.49 1402.49 836.8 -141.42 141.42 1119.64 1119.64 -282.85 282.85 0 -0zm-559.82 -559.82m-630.53 -489.11m-489.11 -630.53m282.84 -282.84m630.53 489.11m489.11 630.54m418.4 701.24z"/>
   </g>
  </g>
 </g>
 <g id="Layer_x0020_1_11">
  <metadata id="CorelCorpID_3Corel-Layer"/>
  <g>
   <rect class="fil2 str5" x="167.7" y="137.6" width="96.88" height="82.3"/>
   <rect class="fil2 str5" x="42.18" y="137.34" width="96.88" height="82.3"/>
   <g>
    <path class="fil18 str8" d="M200.94 300.63l-0.77 0.5c-0.36,0.21 -0.4,0.26 -0.72,0.46l-2.25 1.58c-0.41,0.24 -0.29,0.18 -0.66,0.49l-7.13 4.22c-0.2,0.13 -0.47,0.43 -0.62,0.52 -0.55,0.32 -2.01,0.76 -3.39,1.63l-6.99 3.03c-0.48,0.21 -3.25,1.28 -3.52,1.3 -0.32,0.39 -2.15,0.91 -2.65,1.06 -0.65,0.19 -2.05,0.72 -2.63,0.69 -0.36,-1.15 0.07,-3.04 0.2,-4.02 0.16,-1.28 0.11,-2.78 0.33,-3.99 0.15,-0.8 0.26,-0.94 0.3,-1.89l0.7 -5.59c0.19,-2.74 0.64,-4.94 0.87,-7.65l2.14 -19.46c0.09,-2.36 0.68,-5.08 0.87,-7.66 0.06,-0.76 0.21,-1.17 0.28,-1.91 0.05,-0.68 0.03,-1.28 0.13,-1.96l0.7 -5.78c0.08,-0.58 0.11,-1.29 0.14,-1.99 1.13,-0.52 5.52,-0.64 7.09,-0.71 2.47,-0.11 4.86,-0.61 7.21,-0.74 3.13,-0.17 12.92,-1.8 14.18,-1.67 0.2,1.61 0.15,3.99 0.25,5.61 0.11,1.89 0.05,3.99 0.07,5.91 0.05,3.81 0.12,7.76 0.17,11.64 0.07,5.25 0.66,19.09 0.32,23.24 -1.33,0.83 -2.21,1.92 -4.6,3.14zm21.58 -53.32l6.48 -1.55c2.09,-0.19 0.72,-0.48 2.21,-0.44 0.03,0.04 0.05,0.09 0.06,0.12 0.31,0.7 0.25,1.06 0.31,1.84 0.04,0.62 0.09,1.21 0.12,1.94 0.04,0.84 0.23,0.8 0.27,1.75l0.5 7.96c0.04,0.69 0.19,0.96 0.28,1.74l0.71 9.74c-0.1,0.6 -2.22,2.82 -2.7,3.39 -0.31,1.1 -8.33,9.05 -9.38,10.06 -0.62,0.6 -2.82,2.58 -3.13,3.08 -0.8,-0.18 -0.63,-0.76 -0.63,-1.65l-0.07 -7.52c-0.02,-3.28 -0.11,-6.45 -0.15,-9.72 -0.02,-1.95 -0.54,-19.06 -0.22,-19.51 0.52,-0.37 4.28,-1.21 5.35,-1.25zm-59.61 16.83c-0.12,2.22 -0.49,4.82 -0.77,7.05 -0.87,6.89 -1.43,13.56 -2.3,20.41 -0.56,4.44 -0.88,9.11 -1.57,13.56 -0.34,2.2 -0.57,4.4 -0.73,6.82 -0.08,1.17 -0.27,2.24 -0.39,3.44 -0.35,3.4 -0.17,3.31 -2.24,3.46 -0.63,0.04 -1.11,0.1 -1.76,0.12 -8.22,0.19 -13.27,-0.09 -21.48,-2 -3.18,-0.74 -3.17,-0.48 -2.91,-2.53l0.52 -4.5c0.33,-2.06 0.41,-4.09 0.67,-6.14 0.51,-3.99 0.9,-8.1 1.39,-12.05 0.13,-1.02 0.15,-2.1 0.29,-3.14 0.13,-0.95 0.32,-1.83 0.44,-2.87 0.12,-1.05 0.2,-2.1 0.26,-3.26 0.05,-1.04 0.29,-1.94 0.4,-2.94 0.37,-3.24 0.75,-8.15 1.3,-11.35 0.04,-0.26 0.03,-0.17 0.09,-0.37l0.11 -0.19c0.53,-1.48 0.72,-6.43 1.09,-8.83 0.1,-0.64 0.29,-0.96 0.34,-1.53 0.09,-1.03 -0.14,-2.33 0.34,-3.27 0.11,-0.21 0.09,-0.16 0.2,-0.3l20.32 0.87c2.37,0.01 4.75,-0.02 7.12,0.01 0.1,1.65 -0.23,2.63 -0.32,4.91 -0.04,0.91 -0.11,1.58 -0.22,2.47 -0.05,0.44 -0.13,1.86 -0.19,2.15zm-44.77 34.09c0.11,1.14 -0.58,4.18 -0.63,5.04 -0.11,2 -0.61,6.37 -1.01,8.14 -0.87,-0.02 -1.23,-0.5 -2.19,-0.81l-5.79 -2.92c-0.96,-0.67 -0.02,-0.22 -1.74,-1.2 -2.12,-1.2 -4.12,-2.55 -6.1,-3.92l-5.07 -3.5c-0.61,-0.37 -0.24,-0.28 -0.72,-0.72 -0.24,-0.22 -0.63,-0.41 -0.87,-0.61l-5.36 -4.65c-0.06,-0.68 1.13,-7.41 1.37,-8.32l0.55 -2.55c0.06,-0.68 0.12,-0.79 0.24,-1.38 0.18,-0.87 -0.03,-0.55 0.33,-1.7 0.01,-0.03 0.09,-0.32 0.1,-0.35l1.41 -6.93c-0.01,-1.38 0.81,-4.67 1.14,-6.1l1.18 -5.65c0.17,-1.6 1.89,-11.01 2.32,-11.76 1.17,-0.17 5.2,0.81 6.61,1.03l16.74 2.46c1.95,0.33 1.59,-0.29 2.89,0.61 0.02,0.49 0.07,1.06 -0.04,1.53 -0.78,3.24 -0.71,7.26 -1.15,10.06l-0.28 1.3c-0.07,0.51 -0.07,1.03 -0.12,1.55l-0.69 5.75c-0.31,1.58 -0.81,6.89 -1,8.58l-1.65 14.43c-0.04,0.39 -0.24,2.31 -0.48,2.6zm-34.69 -44.76c0.18,0.68 -3.43,18.59 -4.05,21.72 -0.22,1.12 -0.62,2.47 -0.74,3.48l-0.8 3.57c-0.86,-0.06 -1.4,-1.07 -1.99,-1.72 -0.48,-0.54 -1.28,-1.26 -1.71,-1.81l-7.34 -8.74c-0.3,-0.4 -0.48,-0.78 -0.7,-1.06 -0.57,-0.68 -1.32,-1.18 -1.35,-2.3 -0.03,-1.17 0.26,-2.26 0.39,-3.39 0.12,-1.03 0.3,-2.07 0.44,-3.11 0.58,-4.5 1.66,-12.61 2.51,-16.9 0.09,-0.43 0.16,-1.21 0.21,-1.63 0.63,-0.02 2.76,0.5 3.43,0.73 0.33,0.11 0.43,0.21 0.83,0.28 1.43,0.24 3,0.66 4.19,1.02 0.57,0.17 0.5,0.22 0.98,0.31l3.2 0.7c1.44,0.42 2.68,0.65 4.12,1.06 0.04,0.41 -1.01,7.23 -1.62,7.8zm168.57 -7.44c-0.19,0.13 -0.54,0.97 -0.72,1.32 -0.25,0.5 -0.71,0.86 -1.15,1.48 -0.09,0.13 -0.1,0.14 -0.19,0.26l-2.81 3.98c-0.01,0.01 -0.2,0.22 -0.2,0.23 -0.46,0.54 -0.28,0.77 -0.78,1.3 -0.94,0.99 -0.37,0.72 -1.11,0.98 -0.02,-0.04 -0.04,-0.09 -0.05,-0.11l-0.11 -0.37c-0.01,-0.08 -0.03,-0.34 -0.03,-0.43 -0.02,-0.34 -0.01,-0.7 -0.02,-1.05 -0.03,-1.43 -0.3,-2.39 -0.39,-3.39 -0.06,-0.62 -0.01,-1.26 -0.07,-1.88 -0.2,-1.99 -0.76,-5.04 -0.64,-7.1 0.69,-0.62 0.64,-0.44 1.57,-0.76 0.62,-0.21 1.09,-0.37 1.67,-0.56l3.24 -1.19c0.38,-0.51 3.37,-1.62 3.99,-1.86 1.1,-0.43 3.29,-1.48 4.29,-1.57 0.05,1.17 -0.85,2.17 -1.35,3.03 -0.04,0.06 -4.74,8.03 -5.01,7.63 -0.02,-0.04 -0.08,0.05 -0.13,0.07zm-201.41 -10.2l2.59 1.02c3.69,1.34 3.01,-0.52 2.54,4.83 -0.09,1.07 -0.3,2.39 -0.5,3.46l-0.94 7.04c-0.7,0.05 -0.76,-0.5 -1.01,-0.94l-1.89 -2.98c-0.55,-0.76 -0.14,-0.52 -1.13,-1.66l-1.5 -2.34c-0.77,-1.21 -0.14,-0.91 -0.67,-1.08 -0.65,-0.31 -1.5,-1.9 -1.87,-2.58 -0.83,-1.54 -4.51,-6.72 -4.49,-8.09 1.2,0.11 3.37,1.14 4.58,1.56l3.79 1.35c0.5,0.24 0.26,0.12 0.51,0.41zm55.06 -37.09c-0.5,0.27 -1.13,0.19 -1.76,0.48l-1.74 0.61c-1.6,0.49 -3.52,1.19 -5.16,1.44 -0.8,0.12 -1.47,0.04 -2.16,0.25 -1.42,0.44 -4.7,0.66 -6.38,0.66 -1.91,0 -4.02,0.08 -5.88,-0.46 -1.5,-0.44 -3.51,-0.71 -4.85,-1.32 -1.45,-0.66 -3.06,-1.14 -4.49,-1.87l-0.97 -0.63c-0.98,-0.53 -1.81,-1.22 -2.68,-1.87 -0.89,-0.67 -1.89,-1.35 -2.69,-2.19 -0.43,-0.44 -0.37,-0.2 -0.89,-0.59 -0.46,-0.34 -0.34,-0.48 -0.72,-0.88 -0.38,-0.41 -0.58,-0.4 -0.93,-0.83 -0.02,-0.02 -0.05,-0.06 -0.07,-0.08l-3.82 -5.03c-0.42,-0.53 -0.8,-1.19 -1.25,-1.84l-1.15 -1.94c-1.3,-1.97 -2.17,-4.15 -3.18,-6.26 -0.23,-0.47 -0.25,-0.76 -0.44,-1.19 -0.28,-0.63 0.3,0.59 -0.15,-0.27 -0.02,-0.03 -0.04,-0.06 -0.06,-0.09l-1.26 -2.87 -4.94 -16.87c-0.27,-1.64 -0.71,-3.4 -1.03,-5.17 -0.31,-1.71 -0.76,-3.68 -0.75,-5.53 1.15,0.24 1.59,1.25 2.56,1.8l0.39 0.21c0.38,0.24 0.15,0.12 0.49,0.41 0.36,0.31 0.68,0.36 1.14,0.63 1.49,0.87 3.87,2.83 5.51,3.78 2.71,1.57 5.09,3.53 7.81,4.98 0.74,0.39 1.61,0.85 2.33,1.37l10.78 5.85c1.31,0.49 2.36,1.29 3.64,1.81 0.8,0.33 0.55,0.43 1.21,0.68l5.84 2.46c0.31,0.17 0.33,0.22 0.54,0.32 0.38,0.19 1,0.32 1.43,0.5 0.5,0.22 0.63,0.28 1.27,0.49 0.55,0.18 0.78,0.42 1.26,0.63l2.7 0.98c0.33,0.11 0.94,0.28 1.39,0.39 0.99,0.26 1.62,0.75 3.48,1.22 0.4,0.1 0.27,0.12 0.67,0.22 0.74,0.19 1.4,0.13 1.96,0.41 0.98,0.48 2.75,0.82 3.92,1.13 1.74,0.47 4.09,1.27 5.86,1.48 2.67,0.31 5.09,1.15 7.81,1.31l3.32 0.37c4.42,0.51 8.99,0.4 13.45,0.24 -0.03,0.74 -0.55,0.91 -1.02,1.3 -0.86,0.71 -1.49,1.51 -2.45,2.12l-10.24 7.85c-1.46,0.7 -4.04,2.47 -5.52,3.49 -0.41,0.28 -1.13,0.44 -1.56,0.68 -0.86,0.48 -2.06,1.04 -2.89,1.65 -1.72,1.26 -5.57,2.44 -7.72,3.6zm156.01 -48.3c0.13,0.67 -0.54,3.87 -0.76,4.59l-0.98 4.3c-0.12,0.26 -0.08,-0.07 -0.2,0.57l-0.41 1.65c-0.13,0.49 -0.17,0.69 -0.3,0.99 -0.87,1.93 -1.15,4.16 -1.9,6.24 -0.14,0.38 -0.26,0.46 -0.42,0.87 -0.28,0.73 -0.5,1.18 -0.78,1.83 -0.18,0.42 -0.25,0.44 -0.38,0.93 -0.64,2.41 -1.84,4.46 -2.74,6.78 -0.07,0.18 -0.14,0.37 -0.21,0.52l-0.67 1.23c-1.34,2.17 -2.49,4.67 -4.06,6.69l-5.2 6.28 -3.96 3.4c-0.77,0.61 -0.92,0.53 -1.7,0.97 -1.19,0.68 -2.09,1.38 -3.45,2l-3.72 1.56c-3.87,1.33 -7.26,1.7 -11.74,1.66l-7.26 -0.85c-1.56,-0.34 -2.71,-0.82 -4.26,-1.16 -1.53,-0.34 -6.79,-2.12 -7.99,-2.78l-4.48 -2.16c-0.72,-0.35 -1.04,-0.7 -1.76,-1 -0.4,-0.17 -0.48,-0.26 -0.88,-0.46 -0.29,-0.15 -0.58,-0.3 -0.88,-0.45l-2.54 -1.46c-2.28,-1.26 -4.26,-2.87 -6.41,-4.31 -0.33,-0.22 -0.57,-0.31 -0.83,-0.5l-3.73 -3.04c-0.46,-0.41 -1.02,-0.52 -1.59,-1.06l-2.26 -1.88c-1.17,-0.75 -0.92,-0.72 -1.82,-1.55 -0.54,-0.49 -1.3,-0.94 -1.76,-1.47 -0.44,-0.5 -0.81,-0.78 -1.12,-1.39 1.2,-0.08 2.14,0.09 3.3,0.11 3.32,0.06 6.82,-0.19 10.01,-0.28 1.25,-0.03 1.93,-0.25 3.25,-0.32l16.02 -3.05c1.28,-0.29 2.46,-0.87 3.83,-1.27 4.8,-1.38 9.55,-3.2 14.16,-5.04l5.79 -2.73c0.49,-0.27 0.78,-0.32 1.28,-0.49l1.22 -0.56c0.73,-0.33 1.35,-0.83 2.13,-1.22 1.52,-0.76 3.13,-1.45 4.54,-2.41 0.37,-0.25 0.11,-0.09 0.54,-0.3 0.98,-0.47 2.06,-0.89 2.95,-1.51 0.34,-0.24 0.61,-0.39 1,-0.6l4.34 -2.31c0.7,-0.56 1.63,-0.95 2.39,-1.46 0.34,-0.23 0.66,-0.49 1.03,-0.72 0,0 0.26,-0.16 0.28,-0.17 0.11,-0.07 0.19,-0.1 0.28,-0.16 0.82,-0.49 3.7,-2.79 4.48,-2.92 0.24,-0.54 0.25,-0.34 0.78,-0.67 0.35,-0.22 0.45,-0.33 0.76,-0.55 0.56,-0.41 0.92,-0.63 1.53,-1l2.91 -2.07c0.85,-0.57 4.94,-4.14 5.94,-4.17 0.09,1.28 -0.4,3.16 -0.61,4.36l-1 3.99zm-261.74 49.88l0 17.54c0.49,0.21 0.36,0.19 0.39,0.96 0.05,1.62 0.24,1.67 0.37,2.81 0.07,0.7 0.08,1.43 0.15,2.07 0.2,1.85 1.39,10.33 1.78,11.48 0.47,1.4 0.45,3.81 0.87,4.73 0.02,0.04 0.07,0.16 0.09,0.2l0.08 0.22c0.49,1.33 0.72,3.01 1.19,4.21 0.07,0.19 0.08,0.26 0.14,0.46l3.38 10.75c0.2,0.58 0.49,1.17 0.6,1.59 0.26,1.02 0.14,0.91 0.51,1.75 0.69,1.55 1.17,3.09 1.9,4.57 0.49,0.98 0.92,2.11 1.34,3.09 0.21,0.5 0.47,1.07 0.69,1.52l1.04 2.36c0.11,0.25 0.22,0.35 0.39,0.63 0.24,0.39 0.43,1.01 0.64,1.44l1.19 2.19c0.8,1.74 1.13,2.07 1.89,3.56 0.74,1.45 1.48,2.93 2.39,4.25l0.83 1.22c0.3,0.5 0.64,0.75 0.93,1.26l8.02 11.74c0.76,0.87 1.33,1.57 1.99,2.43l1.06 1.15c0.4,0.5 0.46,0.83 0.93,1.3l1.95 2.31c0.98,1.23 1.99,2.44 3.13,3.5l4.35 4.49c3,2.96 6.06,5.63 9.2,8.34 0.49,0.43 0.7,0.61 1.22,0.99 0.4,0.3 0.75,0.66 1.19,1.01 1.25,0.98 3.75,3.1 4.94,3.89l3.8 2.69c0.64,0.31 0.81,0.52 1.31,0.9 0.89,0.68 1.86,1.12 2.8,1.66 0.46,0.27 0.71,0.61 1.22,0.96 1.75,1.19 3.63,2.17 5.48,3.22l2.88 1.55c0.03,0.01 0.07,0.04 0.09,0.05l0.27 0.17c0.14,0.08 0.22,0.12 0.36,0.22l5.11 2.83c0.02,0.02 0.06,0.04 0.08,0.06 0.03,0.02 0.06,0.04 0.09,0.06l2.42 1.24c0.29,0.15 0.05,0.03 0.42,0.16l0.23 0.07c0.04,0.01 0.07,0.03 0.11,0.04l1.66 0.71c0.04,0.02 0.07,0.03 0.11,0.05l1.44 0.62c0.79,0.37 1.59,0.51 2.29,0.96 0.3,0.2 0.44,0.29 0.74,0.39l7.29 2.52c1.61,0.46 2.15,1.04 4.92,1.69 1.2,0.28 2.36,0.65 3.44,1 1.08,0.34 2.24,0.63 3.3,0.95 0.74,0.22 1.19,0.06 1.89,0.35 0.56,0.23 1.02,0.4 1.74,0.5 0.83,0.11 1.11,0.2 1.83,0.37 3.17,0.72 4.1,0.98 7.41,1.44 0.64,0.09 2.23,0.61 3.42,0.75l5.85 0.79c0.73,0.08 7.36,0.31 7.83,0.85l21.44 0c0.95,-0.81 6.14,-0.66 7.59,-1.06 1.69,-0.47 3.82,-0.45 5.62,-0.96 0.43,-0.12 0.87,-0.13 1.41,-0.22 3.35,-0.58 8.82,-2.01 11.09,-2.32l5.31 -1.46c0.81,-0.27 1.54,-0.56 2.42,-0.79l6.53 -1.95c0.4,-0.14 0.2,-0.1 0.57,-0.28 1.09,-0.53 1.96,-0.46 2.98,-1.01l8.51 -3.7c0.26,-0.19 -0.06,0 0.26,-0.17l1.69 -0.81c0.42,-0.2 0.75,-0.28 1.15,-0.49 1.5,-0.75 2.85,-1.59 4.43,-2.2 0.3,-0.12 0.38,-0.15 0.63,-0.26 0.42,-0.19 0.6,-0.46 0.89,-0.7 0.45,-0.37 3.94,-2.01 4.87,-2.64l6.17 -3.73 10.68 -7.85c0.29,-0.24 0.64,-0.41 0.96,-0.66l3.67 -2.96c0.32,-0.25 0.57,-0.48 0.89,-0.74l6.07 -5.56 10.48 -11.18c0.34,-0.38 0.52,-0.43 0.8,-0.81l5.11 -6.54c0.02,-0.03 0.04,-0.06 0.06,-0.09 0.24,-0.33 0.46,-0.57 0.69,-0.92 0.21,-0.31 0.46,-0.69 0.73,-1.05l2.7 -3.94c0.85,-1.18 1.78,-3.25 2.62,-4.01l1.8 -2.98c0.29,-0.69 0.91,-1.33 1.24,-2.07 1.01,-2.23 2.44,-4.09 3.41,-6.48 0.35,-0.87 0.79,-1.47 1.12,-2.28l1.62 -3.39c0.25,-0.6 0.37,-0.6 0.54,-1.04 0.35,-0.9 0.6,-1.59 1,-2.41 0.23,-0.47 0.43,-0.55 0.6,-1.12 0.44,-1.41 2.08,-6.31 2.68,-7.39 1.25,-2.24 1.04,-3.76 1.58,-5.08l0.47 -1.14c0.47,-1.64 1.15,-3.48 1.51,-5.26l1.64 -6.74c0.16,-0.4 0.24,-0.76 0.33,-1.27 0.18,-1.04 0.28,-1.85 0.51,-2.74l0.48 -2.92c0.41,-1.83 0.56,-3.87 0.8,-5.84 0.11,-0.94 0.34,-2.03 0.38,-2.99 0.05,-1.08 0.05,-2.33 0.19,-3.24 0.58,-3.83 0.61,-11.83 0.57,-15.92 -0.03,-3.51 -0.67,-8.93 -0.9,-12.52 -0.1,-1.54 -0.48,-4.51 -0.82,-5.81 -0.23,-0.86 -0.28,-2 -0.43,-2.96 -0.3,-1.85 -0.9,-3.65 -1.08,-5.52 -0.07,-0.68 -0.2,-0.81 -0.43,-1.35 -0.36,-0.86 -0.29,-2.01 -0.53,-2.88 -0.09,-0.35 -0.26,-0.76 -0.34,-1.24 -0.18,-1.07 -1.38,-5.62 -1.81,-6.5 -0.26,-0.54 -2.31,-7.37 -2.92,-8.7 -0.38,-0.85 -0.5,-1.54 -0.95,-2.45 -0.89,-1.84 -1.46,-4.04 -2.47,-5.93l-1.5 -3.33c-0.78,-2.25 -1.98,-4.19 -3.12,-6.18l-1.4 -2.74c-0.83,-1.59 -3.75,-6.66 -5.06,-8.2 -0.47,-0.55 -0.68,-1.25 -1.16,-1.8l-4.24 -6.22 -7.41 -9.23c-1.24,-1.27 -2.16,-1.87 -0.75,-3.26 1.02,-1 1.9,-2.29 2.7,-3.5 0.59,-0.89 1.35,-1.64 1.81,-2.45 0.24,-0.42 0.5,-0.94 0.79,-1.28 0.94,-1.11 1.65,-2.61 2.48,-3.85 0.25,-0.38 0.58,-0.83 0.8,-1.26 1.15,-2.26 2.57,-4.61 3.56,-6.89 0.63,-1.44 1.16,-2.98 1.92,-4.43 0.48,-0.92 0.6,-2.52 1.07,-3.22 0.4,-0.6 0.06,0.4 0.34,-0.66l2.98 -10.62c0.09,-0.69 0.3,-1.11 0.46,-1.7l0.67 -3.45c0.07,-0.66 0.3,-1.01 0.38,-1.65 0.24,-1.95 0.89,-5.77 0.93,-7.48 0.02,-0.81 0.24,-1.08 0.28,-1.91 0.09,-1.98 0.04,-4.06 0.26,-5.97 0.68,-5.76 -0.58,-21.36 -1.63,-27.69 -0.11,-0.63 -0.18,-1.14 -0.33,-1.7 -0.56,-2.01 -0.56,-4.66 -1.32,-6.63 -0.01,-0.03 -0.03,-0.07 -0.04,-0.1 -0.01,-0.03 -0.03,-0.07 -0.04,-0.1l-1.07 -5.27c-0.07,-0.46 -0.77,-2.95 -0.92,-3.23 -0.82,0.01 -0.54,0.15 -0.85,0.91l-7.77 16.82c-0.2,0.37 -0.3,0.78 -0.48,1.17l-4.39 7.98c-0.17,0.28 -0.14,0.16 -0.36,0.5l-0.9 1.62c-0.85,1.15 -2.41,4 -3.3,5.4l-4.24 6.21c-0.3,0.44 -0.42,0.6 -0.75,1.01 -0.87,1.08 -1.52,2.4 -2.14,3.01 -0.5,0.5 -1.17,1.42 -1.56,1.98 -0.53,0.75 -1.03,1.33 -1.54,2.01 -1.01,1.34 -2.06,2.48 -3.15,3.76 -0.31,0.36 -0.47,0.63 -0.78,1l-1.65 1.88c-0.36,0.39 -0.52,0.43 -0.88,0.88l-1.71 1.83c-0.36,0.31 -0.61,0.41 -0.94,0.81 -0.31,0.37 -0.45,0.52 -0.78,0.85l-10.85 10.07c-1.2,0.92 -6,4.89 -7.04,5.21 -0.55,0.17 -0.83,-0.06 -1.28,-0.3l-8.2 -4.06c-1.24,-0.41 -2.29,-1.3 -3.48,-1.76l-2.57 -0.88c-0.43,-0.16 -0.73,-0.38 -1.19,-0.56 -0.65,-0.26 -0.65,-0.36 -1.18,-0.56l-7.61 -2.72c-0.94,-0.25 -1.79,-0.56 -2.67,-0.86l-5.31 -1.73 -10.67 -2.45c-1.06,-0.32 -2.62,-0.35 -3.65,-0.65 -0.93,-0.26 -2.11,-0.22 -3.15,-0.42 -4.02,-0.76 -8.32,-1.19 -12.42,-1.52 -4.94,-0.41 -12.21,-0.52 -17.1,-0.29 -1.07,0.05 -2.05,0.23 -3.24,0.25 -2.66,0.04 -3.96,0.2 -6.5,0.45 -0.57,0.06 -1.17,0.03 -1.74,0.08 -0.52,0.05 -1.01,0.19 -1.5,0.25l-9.07 1.37c-1.8,0.35 -7.29,1.44 -8.55,1.88l-4.27 1.05c-0.44,0.1 -0.65,0.26 -1.22,0.38 -0.99,0.22 -1.76,0.51 -2.74,0.81l-7.94 2.54c-0.89,0.39 -1.65,0.57 -2.59,0.95l-2.36 1c-0.81,0.43 -2.41,0.67 -3.82,1.51 -0.52,0.31 -0.63,0.37 -1.16,0.6l-7.09 3.37c-1.72,0.88 -2.31,-0.34 -4.12,-1.46 -0.83,-0.52 -1.84,-1.04 -2.53,-1.74 -0.34,-0.35 -3.16,-2.23 -4.39,-3.43l-0.46 -0.4c-1.47,-1.01 -3.57,-2.59 -4.84,-3.87l-2.79 -2.51c-0.35,-0.33 -0.52,-0.56 -0.88,-0.89 -0.3,-0.28 -0.59,-0.53 -0.93,-0.83l-2.09 -2.19c-0.18,-0.19 -0.26,-0.21 -0.46,-0.41 -0.3,-0.3 -0.54,-0.6 -0.87,-0.9l-4.33 -4.38c-0.9,-0.79 -1.42,-1.95 -2.44,-2.83l-7 -8.63c-1.04,-1.16 -1.95,-2.73 -2.92,-4.01l-2.23 -3.07c-0.34,-0.49 -0.34,-0.4 -0.69,-1.09 -0.45,-0.89 -0.91,-1.29 -1.41,-2.12 -0.44,-0.73 -0.98,-1.31 -1.39,-1.99 -0.27,-0.45 -0.31,-0.75 -0.61,-1.17 -0.31,-0.45 -0.41,-0.58 -0.72,-1.04l-1.33 -2.19c-0.7,-1.5 -1.77,-2.73 -2.52,-4.42 -0.48,-1.07 -1.4,-2.18 -1.98,-3.3 -1.01,-1.95 -2.15,-3.79 -2.86,-5.89l-3.95 -8.26c-0.31,-0.56 -0.16,-0.72 -0.81,-0.74l-2.74 9.97c-0.15,1.4 -0.35,2.4 -0.63,3.71 -0.51,2.38 -0.73,4.92 -1.18,7.37 -0.46,2.48 -0.66,4.9 -0.81,7.62l-0.25 1.91c-0.02,0.66 -0.02,1.34 -0.09,1.99 -0.44,4.07 -0.18,8.47 -0.07,12.44 0.07,2.83 0.48,5.27 0.59,7.96 0.06,1.32 0.61,3.89 0.76,5.6 0.11,1.38 1.83,8.67 2.31,10.52 0.15,0.57 0.19,1.24 0.35,1.76 0.21,0.71 0.46,0.61 0.62,1.57l1.3 4.02c0.17,0.51 0.07,0.34 0.27,0.73l3.96 8.67c0.78,1.85 1.2,2.2 1.89,3.59 0.18,0.35 0.16,0.38 0.34,0.7l5.93 8.94c0.38,0.47 0.62,0.79 0.99,1.22l0.92 1.14c0.31,0.35 0.69,0.92 0.94,1.28 0.56,0.82 2.8,2.74 2.91,3.3 0.16,0.81 -2.24,2.89 -2.78,3.59 -0.37,0.48 -0.58,0.61 -0.96,1.1l-1.96 2.31c-0.37,0.46 -0.48,0.7 -0.89,1.17l-1.71 2.12c-1.28,1.74 -6.87,9.38 -7.89,11.27l-3.2 5.17c-0.43,0.98 -1.12,1.74 -1.5,2.63 -0.45,1.07 -0.93,1.84 -1.45,2.84l-4.02 8.37c-0.4,0.94 -1.02,2.16 -1.26,3.05 -0.23,0.83 -0.37,0.73 -0.64,1.38l-1.78 4.54c-1.23,2.95 -2.09,6.35 -3.13,9.39 -0.24,0.7 -0.19,1.39 -0.44,1.93l-0.1 0.19c-0.05,0.1 -0.06,0.15 -0.13,0.32 -0.49,1.3 -0.81,2.72 -1.05,4.14 -0.41,2.41 -0.67,2.34 -0.9,3.32 -0.69,3.04 -1.09,6.05 -1.49,9.07 -0.09,0.68 -0.23,0.89 -0.33,1.69 -0.41,3.07 -1.06,8.09 -1.14,11.45 -0.02,0.9 -0.21,0.91 -0.26,1.75 -0.04,0.69 0.12,1.27 -0.22,1.68z"/>
    <path class="fil19 str8" d="M174.89 314.38c-1.28,-0.13 -3.41,1.1 -4.95,1.15 -0.12,-1.17 0.54,-6.02 0.76,-7.41 0.19,-1.13 0.17,-2.6 0.4,-3.73 0.25,-1.21 0.19,-2.7 0.41,-3.8l1.07 -9.53c0.04,-0.97 0.33,-1.72 0.47,-3.68l1.13 -9.41c0.76,-4.26 0.29,-2.81 0.57,-5.77 0.06,-0.61 0.21,-1.11 0.3,-1.89 0.06,-0.51 0.06,-1.32 0.16,-1.91 0.39,-2.22 0.19,-2.84 0.35,-3.84 0.1,-0.6 0.25,-0.92 0.35,-1.79 0.13,-1.23 0.41,-2.44 0.43,-3.83 0.03,-2.39 0.36,-1.11 0.45,-3.83l0.31 -0.2c1.68,-1.07 3.82,-0.72 6.37,-0.9l5.27 -0.46c0.62,-0.11 0.21,-0.24 1.67,-0.27 1.26,-0.02 1.95,-0.33 3.38,-0.39 0.53,-0.02 1.39,-0 1.88,-0.08 0.49,-0.07 0.79,-0.26 1.55,-0.35 2.46,-0.27 2.75,-0.23 4.99,-0.74 0.54,-0.13 1.42,-0.1 1.99,-0.09 0.02,3.77 0.31,7.63 0.31,11.44 -0.01,3.45 0.26,7.71 0.27,11.34 0.02,5.9 0.67,17.83 0.26,23.06l-2.83 2.01c-0.57,0.41 -0.35,0.21 -1.08,0.43l-0.19 0.74c2.39,-1.22 3.27,-2.3 4.6,-3.14 0.34,-4.15 -0.25,-17.98 -0.32,-23.24 -0.05,-3.88 -0.12,-7.83 -0.17,-11.64 -0.02,-1.92 0.04,-4.01 -0.07,-5.91 -0.09,-1.63 -0.04,-4 -0.25,-5.61 -1.26,-0.13 -11.04,1.5 -14.18,1.67 -2.35,0.13 -4.74,0.62 -7.21,0.74 -1.56,0.07 -5.96,0.19 -7.09,0.71 -0.03,0.7 -0.06,1.41 -0.14,1.99l-0.7 5.78c-0.09,0.67 -0.07,1.28 -0.13,1.96 -0.06,0.74 -0.22,1.15 -0.28,1.91 -0.19,2.58 -0.78,5.3 -0.87,7.66l-2.14 19.46c-0.23,2.71 -0.68,4.91 -0.87,7.65l-0.7 5.59c-0.05,0.95 -0.16,1.09 -0.3,1.89 -0.22,1.21 -0.17,2.71 -0.33,3.99 -0.13,0.98 -0.56,2.87 -0.2,4.02 0.57,0.03 1.97,-0.5 2.63,-0.69 0.5,-0.15 2.32,-0.66 2.65,-1.06z"/>
    <path class="fil19 str8" d="M134.24 267.66l-0.11 0.19c-0.06,0.19 -0.05,0.11 -0.09,0.37 -0.55,3.2 -0.94,8.11 -1.3,11.35 -0.11,0.99 -0.35,1.9 -0.4,2.94 -0.06,1.16 -0.14,2.2 -0.26,3.26 -0.12,1.04 -0.3,1.92 -0.44,2.87 -0.15,1.04 -0.16,2.11 -0.29,3.14 -0.49,3.95 -0.88,8.06 -1.39,12.05 -0.26,2.05 -0.34,4.08 -0.67,6.14l-0.52 4.5c-0.27,2.06 -0.28,1.8 2.91,2.53 8.21,1.9 13.26,2.19 21.48,2 0.65,-0.02 1.13,-0.07 1.76,-0.12 2.07,-0.15 1.89,-0.06 2.24,-3.46 0.12,-1.2 0.31,-2.27 0.39,-3.44 0.16,-2.42 0.39,-4.63 0.73,-6.82 0.69,-4.44 1.01,-9.11 1.57,-13.56 0.87,-6.85 1.44,-13.52 2.3,-20.41 0.28,-2.23 0.65,-4.83 0.77,-7.05 -0.54,0.18 -0.33,-0.26 -0.5,0.73 -0.12,0.69 -0.28,4.05 -0.61,6.04 -0.36,2.19 -0.5,4.53 -0.79,6.86l-1.18 10.33c-0.05,0.6 -0.08,1.33 -0.17,1.72 -0.14,0.59 -0.17,1 -0.18,1.68 -0.01,1.13 -0.36,2.11 -0.43,3.37 -0.12,2.4 -0.28,1.71 -0.41,3.39l-0.34 3.55c-0.04,2.01 -0.4,2.08 -0.46,3.08 -0.17,2.93 -0.24,1.79 -0.45,3.33 -0.08,0.61 -0.02,1.24 -0.08,1.85 -0.06,0.62 -0.31,0.94 -0.37,1.5 -0.07,0.67 -0.04,1.23 -0.13,1.8 -0.09,0.59 -0.18,1.14 -0.2,1.7 -0.06,1.24 0.13,2.52 -0.63,3.14 -1.51,0.74 -12.1,0.43 -14.32,0.11 -0.59,-0.08 -0.79,-0.21 -1.63,-0.26 -0.62,-0.03 -1.25,-0.07 -1.87,-0.13 -1.06,-0.1 -2.03,-0.41 -2.96,-0.65 -0.59,-0.15 -1.15,-0.07 -1.76,-0.2 -0.46,-0.1 -0.87,-0.25 -1.49,-0.4 -2.17,-0.53 -1.14,-0.15 -2.73,-0.96 -0.04,-1.17 0.51,-6.29 0.82,-7.67 0.11,-0.52 -0.08,-3.15 0.52,-4.37 0.02,-0.03 0.04,-0.06 0.06,-0.09 0.28,-0.54 0.19,-0.53 0.19,-1.34 0,-0.54 0.02,-1.08 0.03,-1.63l1.65 -14.88c0.05,-2.14 0.37,-4.17 0.72,-5.94 0.19,-0.95 0.09,-2.11 0.29,-3.12 0.22,-1.12 0.91,-7.88 0.75,-9.03z"/>
    <path class="fil19 str8" d="M92.68 271.86c0.31,-0.3 0.13,0.05 0.41,-0.59 0.05,-0.12 0.1,-0.41 0.13,-0.59 0.28,-1.61 0.88,-3.53 1.17,-4.91 0.11,-0.52 0.04,-1 0.13,-1.52l0.67 -2.52c0.03,-0.02 0.1,-0.07 0.11,-0.04 0.01,0.03 0.08,-0.02 0.09,-0.02 0,0 0.06,-0.01 0.06,-0.01 0.39,0.05 0.04,0.04 0,0.07 0.02,-1.37 0.11,-0.86 0.27,-1.56 0.13,-0.58 -0,-1.24 0.05,-1.84l1.18 -6.35c0.11,-1.09 0.35,-0.87 0.45,-1.48 0.2,-1.14 -0.17,-0 0.34,-1.63 1.07,-0.01 0.9,0.05 1.6,0.22l7.72 1.27c1.72,0.14 0.63,0.31 3.25,0.46 1.04,0.06 1.89,0.33 3.09,0.44 0.78,0.08 0.76,0.26 1.36,0.35 0.85,0.13 3.93,0.32 4.9,0.61 1.18,0.35 3.1,-0.02 3.31,0.72 0.05,0.19 0.06,0.12 0.08,0.4 0.05,0.6 -0.25,1.35 -0.29,2.06 -0.03,0.53 -0,0.96 -0.1,1.43 -0.62,2.92 -0.22,2.37 -0.52,4.16 -0.19,1.09 -0.22,1.63 -0.28,2.97 -0.04,0.69 -0.11,0.75 -0.23,1.26l-2.67 24.26c-0.09,0.78 -0.33,1.99 -0.38,2.91 -0.11,1.83 -0.72,3.93 -0.41,5.85 0.24,-0.29 0.44,-2.21 0.48,-2.6l1.65 -14.43c0.19,-1.69 0.69,-7 1,-8.58l0.69 -5.75c0.06,-0.52 0.06,-1.04 0.12,-1.55l0.28 -1.3c0.44,-2.8 0.37,-6.81 1.15,-10.06 0.11,-0.47 0.06,-1.04 0.04,-1.53 -1.3,-0.9 -0.94,-0.28 -2.89,-0.61l-16.74 -2.46c-1.41,-0.21 -5.44,-1.2 -6.61,-1.03 -0.43,0.74 -2.16,10.15 -2.32,11.76l-1.18 5.65c-0.33,1.43 -1.15,4.72 -1.14,6.1z"/>
    <path class="fil19 str8" d="M83.46 253.48c-0.27,0.21 -0.41,0.65 -0.47,1.07l-0.83 4.53c-0.17,1.04 -0.47,1.65 -0.69,2.66 -0.18,0.82 0,2.8 -0.68,2.5 -0.13,3.68 -0.46,2.4 -0.63,4.42 -0.14,1.6 -0.38,2.96 -0.73,4.41 -0.34,1.39 -0.42,2.81 -0.8,4.19 -0.39,1.41 0.06,0.9 -0.7,3.04 -0.24,0.68 -0.17,0.44 -0.53,0.83 -0.89,-0.15 -0.54,-0.33 -1.68,-1.45 -0.98,-0.96 -1.07,-1.26 -1.8,-2.04l-7.1 -8.52c-0.02,-0.02 -0.05,-0.06 -0.07,-0.08l-0.21 -0.24c-0.8,-0.89 -0.44,-0.7 -0.91,-1.46 -0.18,-0.29 -0.48,-0.21 -0.29,-1.44 0.09,-0.58 0.08,-0.93 0.11,-1.52l1.25 -8.93c0.09,-0.55 0.21,-0.98 0.3,-1.46 0.3,-1.69 0.35,-3.87 0.84,-5.96 0.1,-0.44 0.11,-0.92 0.14,-1.48 0.04,-1.08 0.54,-3.81 0.87,-4.46 1.28,0.02 2.09,0.41 2.94,0.67 0.39,0.11 0.8,0.1 1.2,0.18 0.72,0.15 0.33,0.15 0.83,0.29 0.39,0.1 0.65,0.08 1.01,0.2 1.05,0.36 2.43,0.97 3.67,1.11 2.28,0.26 2.84,0.81 3.97,0.89 1.33,0.1 0.99,0.37 1.96,0.62 0.06,3.23 -1.28,6.22 -0.96,7.43zm0 0c0.61,-0.57 1.66,-7.39 1.62,-7.8 -1.44,-0.41 -2.68,-0.64 -4.12,-1.06l-3.2 -0.7c-0.47,-0.09 -0.41,-0.13 -0.98,-0.31 -1.19,-0.36 -2.76,-0.78 -4.19,-1.02 -0.4,-0.07 -0.5,-0.17 -0.83,-0.28 -0.68,-0.23 -2.8,-0.75 -3.43,-0.73 -0.05,0.42 -0.12,1.2 -0.21,1.63 -0.85,4.29 -1.93,12.41 -2.51,16.9 -0.13,1.04 -0.32,2.08 -0.44,3.11 -0.13,1.13 -0.42,2.22 -0.39,3.39 0.03,1.13 0.77,1.63 1.35,2.3 0.23,0.27 0.41,0.66 0.7,1.06l7.34 8.74c0.43,0.55 1.22,1.26 1.71,1.81 0.59,0.66 1.13,1.67 1.99,1.72l0.8 -3.57c0.12,-1.01 0.52,-2.35 0.74,-3.48 0.62,-3.13 4.23,-21.04 4.05,-21.72z"/>
    <path class="fil20 str8" d="M230.76 273.81c-0.72,0.21 -0.08,-0.14 -0.64,0.38l-2.72 2.72c-0.22,0.25 -0.43,0.64 -0.69,0.93l-1.52 1.57c-0.7,0.72 -0.63,0.5 -1.33,0.91l-0.17 0.1c-0.56,0.47 0.22,0.24 -0.94,1.41 -1.14,1.16 -1.66,1.91 -3.06,3.13 -0.15,0.12 -1.46,1.41 -1.48,1.43 -0.45,-2.19 -0.74,-37.23 -0.68,-37.33 0.4,-0.69 2.98,-1.04 3.74,-1.21l1.14 -0.46c0.03,-0.07 0.09,-0.06 0.13,-0.09 -1.07,0.04 -4.83,0.89 -5.35,1.25 -0.31,0.45 0.2,17.56 0.22,19.51 0.04,3.28 0.14,6.44 0.15,9.72l0.07 7.52c0.01,0.89 -0.16,1.47 0.63,1.65 0.31,-0.5 2.51,-2.48 3.13,-3.08 1.04,-1.01 9.06,-8.96 9.38,-10.06z"/>
    <path class="fil19 str8" d="M251.38 150.57c0.79,0 2.32,-1.2 3.06,-1.76l4.27 -2.95c0.2,-0.18 0.25,-0.34 0.59,-0.57l3.54 -2.57c0.07,1.93 -1.25,6.36 -1.14,7.73l1 -3.99c0.21,-1.2 0.7,-3.08 0.61,-4.36 -1,0.03 -5.09,3.59 -5.94,4.17l-2.91 2.07c-0.61,0.37 -0.97,0.59 -1.53,1 -0.31,0.22 -0.41,0.33 -0.76,0.55 -0.52,0.33 -0.53,0.13 -0.78,0.67z"/>
    <path class="fil21 str8" d="M48.11 243.19l-2.99 -5.13c-0.55,-0.76 -2.8,-4.33 -2.87,-5.04 0.62,0.04 1.29,0.45 1.91,0.69 1.12,0.43 5.53,2.08 6.46,2.12 -0.25,-0.29 -0,-0.17 -0.51,-0.41l-3.79 -1.35c-1.21,-0.42 -3.37,-1.44 -4.58,-1.56 -0.02,1.36 3.65,6.55 4.49,8.09 0.37,0.68 1.22,2.26 1.87,2.58z"/>
   </g>
  </g>
  <rect class="fil16 str6" x="-34140.06" y="2298.47" width="2333.33" height="2260.42"/>
  <rect class="fil17 str6" x="-33994.23" y="2433.9" width="2041.67" height="2000"/>
  <polygon class="fil10 str6" points="-33723.39,2683.9 -33048.4,2683.9 -33217.14,2852.66 -32973.39,3096.41 -32729.65,2852.66 -32898.39,2683.9 -32223.39,2683.9 -32223.39,3358.9 -32392.15,3190.16 -32635.91,3433.9 -32392.15,3677.65 -32223.39,3508.91 -32223.39,4183.9 -32898.39,4183.9 -32729.65,4015.15 -32973.39,3771.4 -33217.14,4015.15 -33048.4,4183.9 -33723.39,4183.9 -33723.39,3508.91 -33554.64,3677.65 -33310.88,3433.9 -33554.64,3190.16 -33723.39,3358.9 "/>
  <g id="_3062414511696_12">
   <rect class="fil14 str6" x="-46497.01" y="-1934.86" width="2333" height="2260"/>
   <rect class="fil15 str6" x="-46351.84" y="-1800.09" width="2042.67" height="1990.46"/>
   <polygon class="fil10 str6" points="-46230.51,-804.85 -45825.51,-1209.85 -45825.51,-1007.36 -45533,-1007.36 -45533,-1299.85 -45735.51,-1299.85 -45330.51,-1704.86 -44925.51,-1299.85 -45128.01,-1299.85 -45128.01,-1007.36 -44835.51,-1007.36 -44835.51,-1209.85 -44430.51,-804.85 -44835.51,-399.85 -44835.51,-602.36 -45128.01,-602.36 -45128.01,-309.85 -44925.51,-309.85 -45330.51,95.15 -45735.51,-309.85 -45533,-309.85 -45533,-602.36 -45825.51,-602.36 -45825.51,-399.85 "/>
  </g>
 </g>
</svg>
