<svg width="697" height="123" viewBox="0 0 697 123" fill="none" xmlns="http://www.w3.org/2000/svg">
<path d="M0.960938 0.777588H696.97V86.3122H0.960938V0.777588Z" fill="#FFE0FF"/>
<line x1="1.9563" y1="3.1062" x2="695.974" y2="3.1062" stroke="black"/>
<line x1="1.9563" y1="87.4547" x2="695.974" y2="87.4547" stroke="black"/>
<path d="M246.464 117.018C245.09 117.018 243.904 116.718 242.904 116.118C241.917 115.504 241.15 114.658 240.604 113.578C240.07 112.484 239.804 111.218 239.804 109.778C239.804 108.351 240.07 107.091 240.604 105.998C241.15 104.904 241.917 104.058 242.904 103.458C243.904 102.844 245.09 102.538 246.464 102.538C248.104 102.538 249.43 102.931 250.444 103.718C251.47 104.504 252.124 105.611 252.404 107.038H250.204C250.004 106.211 249.59 105.551 248.964 105.058C248.35 104.564 247.517 104.318 246.464 104.318C245.517 104.318 244.697 104.538 244.004 104.978C243.31 105.418 242.777 106.044 242.404 106.858C242.03 107.671 241.844 108.644 241.844 109.778C241.844 110.911 242.03 111.891 242.404 112.718C242.777 113.531 243.31 114.158 244.004 114.598C244.697 115.024 245.517 115.238 246.464 115.238C247.517 115.238 248.35 115.004 248.964 114.538C249.59 114.058 250.004 113.411 250.204 112.598H252.404C252.124 113.984 251.47 115.071 250.444 115.858C249.43 116.631 248.104 117.018 246.464 117.018ZM254.696 116.778V102.378H256.696V116.778H254.696ZM262.782 117.018C261.956 117.018 261.269 116.878 260.722 116.598C260.176 116.318 259.769 115.944 259.502 115.478C259.236 114.998 259.102 114.484 259.102 113.938C259.102 113.271 259.276 112.704 259.622 112.238C259.969 111.758 260.462 111.391 261.102 111.138C261.742 110.884 262.509 110.758 263.402 110.758H266.022C266.022 110.171 265.936 109.684 265.762 109.298C265.589 108.911 265.329 108.624 264.982 108.438C264.649 108.238 264.222 108.138 263.702 108.138C263.102 108.138 262.589 108.284 262.162 108.578C261.736 108.858 261.469 109.278 261.362 109.838H259.362C259.442 109.131 259.682 108.531 260.082 108.038C260.496 107.531 261.022 107.144 261.662 106.878C262.302 106.598 262.982 106.458 263.702 106.458C264.649 106.458 265.442 106.624 266.082 106.958C266.722 107.291 267.202 107.764 267.522 108.378C267.856 108.978 268.022 109.698 268.022 110.538V116.778H266.282L266.122 115.078C265.976 115.344 265.802 115.598 265.602 115.838C265.402 116.078 265.162 116.284 264.882 116.458C264.616 116.631 264.302 116.764 263.942 116.858C263.596 116.964 263.209 117.018 262.782 117.018ZM263.162 115.398C263.589 115.398 263.976 115.311 264.322 115.138C264.669 114.964 264.962 114.731 265.202 114.438C265.456 114.131 265.642 113.791 265.762 113.418C265.896 113.031 265.969 112.638 265.982 112.238V112.178H263.602C263.029 112.178 262.562 112.251 262.202 112.398C261.856 112.531 261.602 112.718 261.442 112.958C261.282 113.198 261.202 113.478 261.202 113.798C261.202 114.131 261.276 114.418 261.422 114.658C261.582 114.884 261.809 115.064 262.102 115.198C262.396 115.331 262.749 115.398 263.162 115.398ZM274.475 117.018C273.622 117.018 272.875 116.878 272.235 116.598C271.595 116.318 271.088 115.924 270.715 115.418C270.342 114.911 270.115 114.318 270.035 113.638H272.075C272.142 113.958 272.268 114.251 272.455 114.518C272.655 114.784 272.922 114.998 273.255 115.158C273.602 115.318 274.008 115.398 274.475 115.398C274.915 115.398 275.275 115.338 275.555 115.218C275.848 115.084 276.062 114.911 276.195 114.698C276.328 114.471 276.395 114.231 276.395 113.978C276.395 113.604 276.302 113.324 276.115 113.138C275.942 112.938 275.675 112.784 275.315 112.678C274.968 112.558 274.548 112.451 274.055 112.358C273.588 112.278 273.135 112.171 272.695 112.038C272.268 111.891 271.882 111.711 271.535 111.498C271.202 111.284 270.935 111.018 270.735 110.698C270.535 110.364 270.435 109.958 270.435 109.478C270.435 108.904 270.588 108.391 270.895 107.938C271.202 107.471 271.635 107.111 272.195 106.858C272.768 106.591 273.442 106.458 274.215 106.458C275.335 106.458 276.235 106.724 276.915 107.258C277.595 107.791 277.995 108.544 278.115 109.518H276.175C276.122 109.064 275.922 108.718 275.575 108.478C275.228 108.224 274.768 108.098 274.195 108.098C273.622 108.098 273.182 108.211 272.875 108.438C272.568 108.664 272.415 108.964 272.415 109.338C272.415 109.578 272.502 109.791 272.675 109.978C272.848 110.164 273.102 110.324 273.435 110.458C273.782 110.578 274.202 110.691 274.695 110.798C275.402 110.931 276.035 111.098 276.595 111.298C277.155 111.498 277.602 111.791 277.935 112.178C278.268 112.564 278.435 113.118 278.435 113.838C278.448 114.464 278.288 115.018 277.955 115.498C277.635 115.978 277.175 116.351 276.575 116.618C275.988 116.884 275.288 117.018 274.475 117.018ZM284.69 117.018C283.837 117.018 283.09 116.878 282.45 116.598C281.81 116.318 281.303 115.924 280.93 115.418C280.557 114.911 280.33 114.318 280.25 113.638H282.29C282.357 113.958 282.483 114.251 282.67 114.518C282.87 114.784 283.137 114.998 283.47 115.158C283.817 115.318 284.223 115.398 284.69 115.398C285.13 115.398 285.49 115.338 285.77 115.218C286.063 115.084 286.277 114.911 286.41 114.698C286.543 114.471 286.61 114.231 286.61 113.978C286.61 113.604 286.517 113.324 286.33 113.138C286.157 112.938 285.89 112.784 285.53 112.678C285.183 112.558 284.763 112.451 284.27 112.358C283.803 112.278 283.35 112.171 282.91 112.038C282.483 111.891 282.097 111.711 281.75 111.498C281.417 111.284 281.15 111.018 280.95 110.698C280.75 110.364 280.65 109.958 280.65 109.478C280.65 108.904 280.803 108.391 281.11 107.938C281.417 107.471 281.85 107.111 282.41 106.858C282.983 106.591 283.657 106.458 284.43 106.458C285.55 106.458 286.45 106.724 287.13 107.258C287.81 107.791 288.21 108.544 288.33 109.518H286.39C286.337 109.064 286.137 108.718 285.79 108.478C285.443 108.224 284.983 108.098 284.41 108.098C283.837 108.098 283.397 108.211 283.09 108.438C282.783 108.664 282.63 108.964 282.63 109.338C282.63 109.578 282.717 109.791 282.89 109.978C283.063 110.164 283.317 110.324 283.65 110.458C283.997 110.578 284.417 110.691 284.91 110.798C285.617 110.931 286.25 111.098 286.81 111.298C287.37 111.498 287.817 111.791 288.15 112.178C288.483 112.564 288.65 113.118 288.65 113.838C288.663 114.464 288.503 115.018 288.17 115.498C287.85 115.978 287.39 116.351 286.79 116.618C286.203 116.884 285.503 117.018 284.69 117.018ZM291.145 116.778V106.698H293.145V116.778H291.145ZM292.165 104.798C291.778 104.798 291.458 104.678 291.205 104.438C290.965 104.198 290.845 103.891 290.845 103.518C290.845 103.158 290.965 102.864 291.205 102.638C291.458 102.398 291.778 102.278 292.165 102.278C292.538 102.278 292.851 102.398 293.105 102.638C293.358 102.864 293.485 103.158 293.485 103.518C293.485 103.891 293.358 104.198 293.105 104.438C292.851 104.678 292.538 104.798 292.165 104.798ZM300.665 117.018C299.691 117.018 298.825 116.798 298.065 116.358C297.305 115.904 296.705 115.284 296.265 114.498C295.838 113.711 295.625 112.798 295.625 111.758C295.625 110.704 295.838 109.784 296.265 108.998C296.705 108.198 297.305 107.578 298.065 107.138C298.825 106.684 299.691 106.458 300.665 106.458C301.891 106.458 302.918 106.778 303.745 107.418C304.571 108.058 305.098 108.924 305.325 110.018H303.245C303.111 109.431 302.805 108.978 302.325 108.658C301.858 108.338 301.298 108.178 300.645 108.178C300.111 108.178 299.618 108.318 299.165 108.598C298.711 108.864 298.345 109.264 298.065 109.798C297.798 110.318 297.665 110.964 297.665 111.738C297.665 112.311 297.745 112.824 297.905 113.278C298.065 113.718 298.278 114.091 298.545 114.398C298.825 114.704 299.145 114.938 299.505 115.098C299.865 115.244 300.245 115.318 300.645 115.318C301.085 115.318 301.478 115.251 301.825 115.118C302.185 114.971 302.485 114.758 302.725 114.478C302.978 114.198 303.151 113.864 303.245 113.478H305.325C305.098 114.544 304.571 115.404 303.745 116.058C302.918 116.698 301.891 117.018 300.665 117.018ZM311.005 117.018C310.178 117.018 309.492 116.878 308.945 116.598C308.398 116.318 307.992 115.944 307.725 115.478C307.458 114.998 307.325 114.484 307.325 113.938C307.325 113.271 307.498 112.704 307.845 112.238C308.192 111.758 308.685 111.391 309.325 111.138C309.965 110.884 310.732 110.758 311.625 110.758H314.245C314.245 110.171 314.158 109.684 313.985 109.298C313.812 108.911 313.552 108.624 313.205 108.438C312.872 108.238 312.445 108.138 311.925 108.138C311.325 108.138 310.812 108.284 310.385 108.578C309.958 108.858 309.692 109.278 309.585 109.838H307.585C307.665 109.131 307.905 108.531 308.305 108.038C308.718 107.531 309.245 107.144 309.885 106.878C310.525 106.598 311.205 106.458 311.925 106.458C312.872 106.458 313.665 106.624 314.305 106.958C314.945 107.291 315.425 107.764 315.745 108.378C316.078 108.978 316.245 109.698 316.245 110.538V116.778H314.505L314.345 115.078C314.198 115.344 314.025 115.598 313.825 115.838C313.625 116.078 313.385 116.284 313.105 116.458C312.838 116.631 312.525 116.764 312.165 116.858C311.818 116.964 311.432 117.018 311.005 117.018ZM311.385 115.398C311.812 115.398 312.198 115.311 312.545 115.138C312.892 114.964 313.185 114.731 313.425 114.438C313.678 114.131 313.865 113.791 313.985 113.418C314.118 113.031 314.192 112.638 314.205 112.238V112.178H311.825C311.252 112.178 310.785 112.251 310.425 112.398C310.078 112.531 309.825 112.718 309.665 112.958C309.505 113.198 309.425 113.478 309.425 113.798C309.425 114.131 309.498 114.418 309.645 114.658C309.805 114.884 310.032 115.064 310.325 115.198C310.618 115.331 310.972 115.398 311.385 115.398ZM318.798 116.778V102.378H320.798V116.778H318.798ZM334.901 117.018C333.528 117.018 332.341 116.718 331.341 116.118C330.354 115.504 329.588 114.658 329.041 113.578C328.508 112.484 328.241 111.218 328.241 109.778C328.241 108.351 328.508 107.091 329.041 105.998C329.588 104.904 330.354 104.058 331.341 103.458C332.341 102.844 333.528 102.538 334.901 102.538C336.541 102.538 337.868 102.931 338.881 103.718C339.908 104.504 340.561 105.611 340.841 107.038H338.641C338.441 106.211 338.028 105.551 337.401 105.058C336.788 104.564 335.954 104.318 334.901 104.318C333.954 104.318 333.134 104.538 332.441 104.978C331.748 105.418 331.214 106.044 330.841 106.858C330.468 107.671 330.281 108.644 330.281 109.778C330.281 110.911 330.468 111.891 330.841 112.718C331.214 113.531 331.748 114.158 332.441 114.598C333.134 115.024 333.954 115.238 334.901 115.238C335.954 115.238 336.788 115.004 337.401 114.538C338.028 114.058 338.441 113.411 338.641 112.598H340.841C340.561 113.984 339.908 115.071 338.881 115.858C337.868 116.631 336.541 117.018 334.901 117.018ZM343.134 116.778V102.378H345.134V108.338C345.467 107.751 345.927 107.291 346.514 106.958C347.114 106.624 347.774 106.458 348.494 106.458C349.294 106.458 349.98 106.624 350.554 106.958C351.127 107.278 351.567 107.764 351.874 108.418C352.18 109.058 352.334 109.864 352.334 110.838V116.778H350.354V111.038C350.354 110.104 350.154 109.398 349.754 108.918C349.354 108.424 348.76 108.178 347.974 108.178C347.44 108.178 346.96 108.304 346.534 108.558C346.107 108.811 345.767 109.184 345.514 109.678C345.26 110.158 345.134 110.744 345.134 111.438V116.778H343.134ZM358.231 117.018C357.405 117.018 356.718 116.878 356.171 116.598C355.625 116.318 355.218 115.944 354.951 115.478C354.685 114.998 354.551 114.484 354.551 113.938C354.551 113.271 354.725 112.704 355.071 112.238C355.418 111.758 355.911 111.391 356.551 111.138C357.191 110.884 357.958 110.758 358.851 110.758H361.471C361.471 110.171 361.385 109.684 361.211 109.298C361.038 108.911 360.778 108.624 360.431 108.438C360.098 108.238 359.671 108.138 359.151 108.138C358.551 108.138 358.038 108.284 357.611 108.578C357.185 108.858 356.918 109.278 356.811 109.838H354.811C354.891 109.131 355.131 108.531 355.531 108.038C355.945 107.531 356.471 107.144 357.111 106.878C357.751 106.598 358.431 106.458 359.151 106.458C360.098 106.458 360.891 106.624 361.531 106.958C362.171 107.291 362.651 107.764 362.971 108.378C363.305 108.978 363.471 109.698 363.471 110.538V116.778H361.731L361.571 115.078C361.425 115.344 361.251 115.598 361.051 115.838C360.851 116.078 360.611 116.284 360.331 116.458C360.065 116.631 359.751 116.764 359.391 116.858C359.045 116.964 358.658 117.018 358.231 117.018ZM358.611 115.398C359.038 115.398 359.425 115.311 359.771 115.138C360.118 114.964 360.411 114.731 360.651 114.438C360.905 114.131 361.091 113.791 361.211 113.418C361.345 113.031 361.418 112.638 361.431 112.238V112.178H359.051C358.478 112.178 358.011 112.251 357.651 112.398C357.305 112.531 357.051 112.718 356.891 112.958C356.731 113.198 356.651 113.478 356.651 113.798C356.651 114.131 356.725 114.418 356.871 114.658C357.031 114.884 357.258 115.064 357.551 115.198C357.845 115.331 358.198 115.398 358.611 115.398ZM366.024 116.778V106.698H367.824L367.944 108.418C368.264 107.818 368.718 107.344 369.304 106.998C369.891 106.638 370.564 106.458 371.324 106.458C372.124 106.458 372.811 106.618 373.384 106.938C373.958 107.258 374.404 107.744 374.724 108.398C375.044 109.038 375.204 109.844 375.204 110.818V116.778H373.204V111.018C373.204 110.084 372.998 109.378 372.584 108.898C372.171 108.418 371.571 108.178 370.784 108.178C370.264 108.178 369.798 108.304 369.384 108.558C368.971 108.798 368.638 109.158 368.384 109.638C368.144 110.118 368.024 110.704 368.024 111.398V116.778H366.024ZM377.763 116.778V106.698H379.563L379.683 108.418C380.003 107.818 380.456 107.344 381.043 106.998C381.629 106.638 382.303 106.458 383.063 106.458C383.863 106.458 384.549 106.618 385.123 106.938C385.696 107.258 386.143 107.744 386.463 108.398C386.783 109.038 386.943 109.844 386.943 110.818V116.778H384.943V111.018C384.943 110.084 384.736 109.378 384.323 108.898C383.909 108.418 383.309 108.178 382.523 108.178C382.003 108.178 381.536 108.304 381.123 108.558C380.709 108.798 380.376 109.158 380.123 109.638C379.883 110.118 379.763 110.704 379.763 111.398V116.778H377.763ZM394.061 117.018C393.101 117.018 392.248 116.798 391.501 116.358C390.754 115.918 390.168 115.304 389.741 114.518C389.328 113.731 389.121 112.818 389.121 111.778C389.121 110.711 389.328 109.784 389.741 108.998C390.168 108.198 390.754 107.578 391.501 107.138C392.248 106.684 393.114 106.458 394.101 106.458C395.088 106.458 395.934 106.678 396.641 107.118C397.348 107.558 397.894 108.144 398.281 108.878C398.668 109.598 398.861 110.398 398.861 111.278C398.861 111.411 398.854 111.558 398.841 111.718C398.841 111.864 398.834 112.031 398.821 112.218H390.581V110.798H396.861C396.821 109.958 396.541 109.304 396.021 108.838C395.501 108.358 394.854 108.118 394.081 108.118C393.534 108.118 393.034 108.244 392.581 108.498C392.128 108.738 391.761 109.098 391.481 109.578C391.214 110.044 391.081 110.638 391.081 111.358V111.918C391.081 112.664 391.214 113.298 391.481 113.818C391.761 114.324 392.128 114.711 392.581 114.978C393.034 115.231 393.528 115.358 394.061 115.358C394.701 115.358 395.228 115.218 395.641 114.938C396.054 114.658 396.361 114.278 396.561 113.798H398.561C398.388 114.411 398.094 114.964 397.681 115.458C397.268 115.938 396.754 116.318 396.141 116.598C395.541 116.878 394.848 117.018 394.061 117.018ZM401.083 116.778V102.378H403.083V116.778H401.083Z" fill="black"/>
</svg>
