<svg width="329" height="306" viewBox="0 0 329 306" fill="none" xmlns="http://www.w3.org/2000/svg">
<rect width="328.743" height="306" rx="10" fill="#E1E1FF"/>
<path d="M23.878 181.975V167.975H28.618C29.7246 167.975 30.6313 168.162 31.338 168.535C32.0446 168.909 32.5646 169.409 32.898 170.035C33.2446 170.649 33.418 171.349 33.418 172.135C33.418 172.882 33.2446 173.575 32.898 174.215C32.5646 174.842 32.038 175.349 31.318 175.735C30.598 176.109 29.678 176.295 28.558 176.295H25.878V181.975H23.878ZM31.238 181.975L28.218 175.755H30.418L33.558 181.975H31.238ZM25.878 174.775H28.478C29.4646 174.775 30.1913 174.535 30.658 174.055C31.1246 173.562 31.358 172.935 31.358 172.175C31.358 171.402 31.1313 170.789 30.678 170.335C30.2246 169.882 29.4913 169.655 28.478 169.655H25.878V174.775ZM39.8614 182.215C38.9014 182.215 38.0481 181.995 37.3014 181.555C36.5547 181.115 35.9681 180.502 35.5414 179.715C35.1281 178.929 34.9214 178.015 34.9214 176.975C34.9214 175.909 35.1281 174.982 35.5414 174.195C35.9681 173.395 36.5547 172.775 37.3014 172.335C38.0481 171.882 38.9147 171.655 39.9014 171.655C40.8881 171.655 41.7347 171.875 42.4414 172.315C43.1481 172.755 43.6947 173.342 44.0814 174.075C44.4681 174.795 44.6614 175.595 44.6614 176.475C44.6614 176.609 44.6547 176.755 44.6414 176.915C44.6414 177.062 44.6347 177.229 44.6214 177.415H36.3814V175.995H42.6614C42.6214 175.155 42.3414 174.502 41.8214 174.035C41.3014 173.555 40.6547 173.315 39.8814 173.315C39.3347 173.315 38.8347 173.442 38.3814 173.695C37.9281 173.935 37.5614 174.295 37.2814 174.775C37.0147 175.242 36.8814 175.835 36.8814 176.555V177.115C36.8814 177.862 37.0147 178.495 37.2814 179.015C37.5614 179.522 37.9281 179.909 38.3814 180.175C38.8347 180.429 39.3281 180.555 39.8614 180.555C40.5014 180.555 41.0281 180.415 41.4414 180.135C41.8547 179.855 42.1614 179.475 42.3614 178.995H44.3614C44.1881 179.609 43.8947 180.162 43.4814 180.655C43.0681 181.135 42.5547 181.515 41.9414 181.795C41.3414 182.075 40.6481 182.215 39.8614 182.215ZM51.5434 182.215C50.5701 182.215 49.7034 181.995 48.9434 181.555C48.1834 181.102 47.5834 180.482 47.1434 179.695C46.7168 178.909 46.5034 177.995 46.5034 176.955C46.5034 175.902 46.7168 174.982 47.1434 174.195C47.5834 173.395 48.1834 172.775 48.9434 172.335C49.7034 171.882 50.5701 171.655 51.5434 171.655C52.7701 171.655 53.7968 171.975 54.6234 172.615C55.4501 173.255 55.9768 174.122 56.2034 175.215H54.1234C53.9901 174.629 53.6834 174.175 53.2034 173.855C52.7368 173.535 52.1768 173.375 51.5234 173.375C50.9901 173.375 50.4968 173.515 50.0434 173.795C49.5901 174.062 49.2234 174.462 48.9434 174.995C48.6768 175.515 48.5434 176.162 48.5434 176.935C48.5434 177.509 48.6234 178.022 48.7834 178.475C48.9434 178.915 49.1568 179.289 49.4234 179.595C49.7034 179.902 50.0234 180.135 50.3834 180.295C50.7434 180.442 51.1234 180.515 51.5234 180.515C51.9634 180.515 52.3568 180.449 52.7034 180.315C53.0634 180.169 53.3634 179.955 53.6034 179.675C53.8568 179.395 54.0301 179.062 54.1234 178.675H56.2034C55.9768 179.742 55.4501 180.602 54.6234 181.255C53.7968 181.895 52.7701 182.215 51.5434 182.215ZM62.4888 181.975C61.8488 181.975 61.2954 181.875 60.8288 181.675C60.3621 181.475 60.0021 181.142 59.7488 180.675C59.4954 180.209 59.3688 179.575 59.3688 178.775V173.595H57.6287V171.895H59.3688L59.6087 169.375H61.3688V171.895H64.2288V173.595H61.3688V178.795C61.3688 179.369 61.4888 179.762 61.7288 179.975C61.9688 180.175 62.3821 180.275 62.9688 180.275H64.1288V181.975H62.4888ZM66.5742 181.975V171.895H68.5742V181.975H66.5742ZM67.5942 169.995C67.2076 169.995 66.8876 169.875 66.6342 169.635C66.3942 169.395 66.2742 169.089 66.2742 168.715C66.2742 168.355 66.3942 168.062 66.6342 167.835C66.8876 167.595 67.2076 167.475 67.5942 167.475C67.9676 167.475 68.2809 167.595 68.5342 167.835C68.7876 168.062 68.9142 168.355 68.9142 168.715C68.9142 169.089 68.7876 169.395 68.5342 169.635C68.2809 169.875 67.9676 169.995 67.5942 169.995ZM71.4342 181.975V167.575H73.4342V181.975H71.4342ZM76.3203 181.975V171.895H78.3203V181.975H76.3203ZM77.3403 169.995C76.9536 169.995 76.6336 169.875 76.3803 169.635C76.1403 169.395 76.0203 169.089 76.0203 168.715C76.0203 168.355 76.1403 168.062 76.3803 167.835C76.6336 167.595 76.9536 167.475 77.3403 167.475C77.7136 167.475 78.027 167.595 78.2803 167.835C78.5336 168.062 78.6603 168.355 78.6603 168.715C78.6603 169.089 78.5336 169.395 78.2803 169.635C78.027 169.875 77.7136 169.995 77.3403 169.995ZM81.1803 181.975V171.895H82.9803L83.1003 173.615C83.4203 173.015 83.8736 172.542 84.4603 172.195C85.047 171.835 85.7203 171.655 86.4803 171.655C87.2803 171.655 87.967 171.815 88.5403 172.135C89.1136 172.455 89.5603 172.942 89.8803 173.595C90.2003 174.235 90.3603 175.042 90.3603 176.015V181.975H88.3603V176.215C88.3603 175.282 88.1536 174.575 87.7403 174.095C87.327 173.615 86.727 173.375 85.9403 173.375C85.4203 173.375 84.9536 173.502 84.5403 173.755C84.127 173.995 83.7936 174.355 83.5403 174.835C83.3003 175.315 83.1803 175.902 83.1803 176.595V181.975H81.1803ZM97.4786 182.215C96.5186 182.215 95.6653 181.995 94.9186 181.555C94.1719 181.115 93.5853 180.502 93.1586 179.715C92.7453 178.929 92.5386 178.015 92.5386 176.975C92.5386 175.909 92.7453 174.982 93.1586 174.195C93.5853 173.395 94.1719 172.775 94.9186 172.335C95.6653 171.882 96.5319 171.655 97.5186 171.655C98.5053 171.655 99.3519 171.875 100.059 172.315C100.765 172.755 101.312 173.342 101.699 174.075C102.085 174.795 102.279 175.595 102.279 176.475C102.279 176.609 102.272 176.755 102.259 176.915C102.259 177.062 102.252 177.229 102.239 177.415H93.9986V175.995H100.279C100.239 175.155 99.9586 174.502 99.4386 174.035C98.9186 173.555 98.2719 173.315 97.4986 173.315C96.9519 173.315 96.4519 173.442 95.9986 173.695C95.5453 173.935 95.1786 174.295 94.8986 174.775C94.6319 175.242 94.4986 175.835 94.4986 176.555V177.115C94.4986 177.862 94.6319 178.495 94.8986 179.015C95.1786 179.522 95.5453 179.909 95.9986 180.175C96.4519 180.429 96.9453 180.555 97.4786 180.555C98.1186 180.555 98.6453 180.415 99.0586 180.135C99.4719 179.855 99.7786 179.475 99.9786 178.995H101.979C101.805 179.609 101.512 180.162 101.099 180.655C100.685 181.135 100.172 181.515 99.5586 181.795C98.9586 182.075 98.2653 182.215 97.4786 182.215ZM107.841 182.215C107.014 182.215 106.327 182.075 105.781 181.795C105.234 181.515 104.827 181.142 104.561 180.675C104.294 180.195 104.161 179.682 104.161 179.135C104.161 178.469 104.334 177.902 104.681 177.435C105.027 176.955 105.521 176.589 106.161 176.335C106.801 176.082 107.567 175.955 108.461 175.955H111.081C111.081 175.369 110.994 174.882 110.821 174.495C110.647 174.109 110.387 173.822 110.041 173.635C109.707 173.435 109.281 173.335 108.761 173.335C108.161 173.335 107.647 173.482 107.221 173.775C106.794 174.055 106.527 174.475 106.421 175.035H104.421C104.501 174.329 104.741 173.729 105.141 173.235C105.554 172.729 106.081 172.342 106.721 172.075C107.361 171.795 108.041 171.655 108.761 171.655C109.707 171.655 110.501 171.822 111.141 172.155C111.781 172.489 112.261 172.962 112.581 173.575C112.914 174.175 113.081 174.895 113.081 175.735V181.975H111.341L111.181 180.275C111.034 180.542 110.861 180.795 110.661 181.035C110.461 181.275 110.221 181.482 109.941 181.655C109.674 181.829 109.361 181.962 109.001 182.055C108.654 182.162 108.267 182.215 107.841 182.215ZM108.221 180.595C108.647 180.595 109.034 180.509 109.381 180.335C109.727 180.162 110.021 179.929 110.261 179.635C110.514 179.329 110.701 178.989 110.821 178.615C110.954 178.229 111.027 177.835 111.041 177.435V177.375H108.661C108.087 177.375 107.621 177.449 107.261 177.595C106.914 177.729 106.661 177.915 106.501 178.155C106.341 178.395 106.261 178.675 106.261 178.995C106.261 179.329 106.334 179.615 106.481 179.855C106.641 180.082 106.867 180.262 107.161 180.395C107.454 180.529 107.807 180.595 108.221 180.595ZM115.633 181.975V171.895H117.433L117.613 173.795C117.84 173.342 118.133 172.962 118.493 172.655C118.853 172.335 119.273 172.089 119.753 171.915C120.247 171.742 120.807 171.655 121.433 171.655V173.775H120.713C120.3 173.775 119.907 173.829 119.533 173.935C119.16 174.029 118.827 174.195 118.533 174.435C118.253 174.675 118.033 175.002 117.873 175.415C117.713 175.829 117.633 176.342 117.633 176.955V181.975H115.633Z" fill="black"/>
<path d="M157.04 181.975L152.36 169.375H154.304L158.12 180.103L161.972 169.375H163.88L159.2 181.975H157.04ZM164.898 177.421V175.909H172.17V177.421H164.898ZM178.934 182.191C178.01 182.191 177.2 182.029 176.504 181.705C175.808 181.369 175.268 180.901 174.884 180.301C174.5 179.701 174.308 178.999 174.308 178.195H176.198C176.21 178.651 176.318 179.071 176.522 179.455C176.738 179.827 177.044 180.127 177.44 180.355C177.848 180.571 178.346 180.679 178.934 180.679C179.438 180.679 179.87 180.595 180.23 180.427C180.602 180.259 180.884 180.031 181.076 179.743C181.268 179.443 181.364 179.101 181.364 178.717C181.364 178.273 181.262 177.907 181.058 177.619C180.854 177.331 180.578 177.097 180.23 176.917C179.894 176.725 179.498 176.557 179.042 176.413C178.598 176.269 178.13 176.113 177.638 175.945C176.642 175.621 175.898 175.201 175.406 174.685C174.926 174.169 174.686 173.497 174.686 172.669C174.686 171.961 174.854 171.349 175.19 170.833C175.526 170.305 175.994 169.897 176.594 169.609C177.206 169.309 177.926 169.159 178.754 169.159C179.57 169.159 180.284 169.309 180.896 169.609C181.508 169.909 181.988 170.323 182.336 170.851C182.684 171.379 182.858 171.997 182.858 172.705H180.95C180.95 172.381 180.866 172.063 180.698 171.751C180.53 171.439 180.278 171.187 179.942 170.995C179.606 170.791 179.192 170.689 178.7 170.689C178.292 170.677 177.926 170.743 177.602 170.887C177.278 171.031 177.026 171.241 176.846 171.517C176.666 171.793 176.576 172.123 176.576 172.507C176.576 172.891 176.654 173.203 176.81 173.443C176.978 173.671 177.218 173.869 177.53 174.037C177.842 174.205 178.202 174.361 178.61 174.505C179.03 174.637 179.492 174.787 179.996 174.955C180.62 175.159 181.172 175.411 181.652 175.711C182.144 175.999 182.528 176.377 182.804 176.845C183.092 177.301 183.236 177.889 183.236 178.609C183.236 179.233 183.074 179.815 182.75 180.355C182.426 180.895 181.946 181.339 181.31 181.687C180.674 182.023 179.882 182.191 178.934 182.191ZM189.031 181.975C188.455 181.975 187.957 181.885 187.537 181.705C187.117 181.525 186.793 181.225 186.565 180.805C186.337 180.385 186.223 179.815 186.223 179.095V174.433H184.656V172.903H186.223L186.438 170.635H188.023V172.903H190.597V174.433H188.023V179.113C188.023 179.629 188.131 179.983 188.347 180.175C188.563 180.355 188.935 180.445 189.463 180.445H190.507V181.975H189.031ZM195.587 182.191C194.843 182.191 194.225 182.065 193.733 181.813C193.241 181.561 192.875 181.225 192.635 180.805C192.395 180.373 192.275 179.911 192.275 179.419C192.275 178.819 192.431 178.309 192.743 177.889C193.055 177.457 193.499 177.127 194.075 176.899C194.651 176.671 195.341 176.557 196.145 176.557H198.503C198.503 176.029 198.425 175.591 198.269 175.243C198.113 174.895 197.879 174.637 197.567 174.469C197.267 174.289 196.883 174.199 196.415 174.199C195.875 174.199 195.413 174.331 195.029 174.595C194.645 174.847 194.405 175.225 194.309 175.729H192.509C192.581 175.093 192.797 174.553 193.157 174.109C193.529 173.653 194.003 173.305 194.579 173.065C195.155 172.813 195.767 172.687 196.415 172.687C197.267 172.687 197.981 172.837 198.557 173.137C199.133 173.437 199.565 173.863 199.853 174.415C200.153 174.955 200.303 175.603 200.303 176.359V181.975H198.737L198.593 180.445C198.461 180.685 198.305 180.913 198.125 181.129C197.945 181.345 197.729 181.531 197.477 181.687C197.237 181.843 196.955 181.963 196.631 182.047C196.319 182.143 195.971 182.191 195.587 182.191ZM195.929 180.733C196.313 180.733 196.661 180.655 196.973 180.499C197.285 180.343 197.549 180.133 197.765 179.869C197.993 179.593 198.161 179.287 198.269 178.951C198.389 178.603 198.455 178.249 198.467 177.889V177.835H196.325C195.809 177.835 195.389 177.901 195.065 178.033C194.753 178.153 194.525 178.321 194.381 178.537C194.237 178.753 194.165 179.005 194.165 179.293C194.165 179.593 194.231 179.851 194.363 180.067C194.507 180.271 194.711 180.433 194.975 180.553C195.239 180.673 195.557 180.733 195.929 180.733ZM206.152 181.975C205.576 181.975 205.078 181.885 204.658 181.705C204.238 181.525 203.914 181.225 203.686 180.805C203.458 180.385 203.344 179.815 203.344 179.095V174.433H201.778V172.903H203.344L203.56 170.635H205.144V172.903H207.718V174.433H205.144V179.113C205.144 179.629 205.252 179.983 205.468 180.175C205.684 180.355 206.056 180.445 206.584 180.445H207.628V181.975H206.152ZM213.56 182.191C212.696 182.191 211.928 181.993 211.256 181.597C210.584 181.201 210.056 180.649 209.672 179.941C209.3 179.233 209.114 178.411 209.114 177.475C209.114 176.515 209.3 175.681 209.672 174.973C210.056 174.253 210.584 173.695 211.256 173.299C211.928 172.891 212.708 172.687 213.596 172.687C214.484 172.687 215.246 172.885 215.882 173.281C216.518 173.677 217.01 174.205 217.358 174.865C217.706 175.513 217.88 176.233 217.88 177.025C217.88 177.145 217.874 177.277 217.862 177.421C217.862 177.553 217.856 177.703 217.844 177.871H210.428V176.593H216.08C216.044 175.837 215.792 175.249 215.324 174.829C214.856 174.397 214.274 174.181 213.578 174.181C213.086 174.181 212.636 174.295 212.228 174.523C211.82 174.739 211.49 175.063 211.238 175.495C210.998 175.915 210.878 176.449 210.878 177.097V177.601C210.878 178.273 210.998 178.843 211.238 179.311C211.49 179.767 211.82 180.115 212.228 180.355C212.636 180.583 213.08 180.697 213.56 180.697C214.136 180.697 214.61 180.571 214.982 180.319C215.354 180.067 215.63 179.725 215.81 179.293H217.61C217.454 179.845 217.19 180.343 216.818 180.787C216.446 181.219 215.984 181.561 215.432 181.813C214.892 182.065 214.268 182.191 213.56 182.191Z" fill="black"/>
<path d="M142.436 291.95V289.376H136.118V287.972L142.148 279.35H144.218V287.81H146.018V289.376H144.218V291.95H142.436ZM138.08 287.81H142.544V281.33L138.08 287.81ZM152.23 292.166C151.342 292.166 150.58 292.01 149.944 291.698C149.308 291.374 148.804 290.942 148.432 290.402C148.06 289.85 147.832 289.232 147.748 288.548H149.512C149.632 289.16 149.932 289.664 150.412 290.06C150.892 290.444 151.498 290.636 152.23 290.636C152.782 290.636 153.256 290.504 153.652 290.24C154.048 289.976 154.354 289.622 154.57 289.178C154.786 288.734 154.894 288.242 154.894 287.702C154.894 287.126 154.78 286.628 154.552 286.208C154.336 285.776 154.03 285.44 153.634 285.2C153.25 284.96 152.8 284.84 152.284 284.84C151.66 284.84 151.12 284.984 150.664 285.272C150.22 285.548 149.896 285.902 149.692 286.334H147.946L148.99 279.35H155.776V280.916H150.376L149.71 284.444C149.998 284.12 150.382 283.856 150.862 283.652C151.354 283.448 151.912 283.346 152.536 283.346C153.172 283.346 153.742 283.46 154.246 283.688C154.75 283.904 155.176 284.21 155.524 284.606C155.884 285.002 156.154 285.464 156.334 285.992C156.526 286.52 156.622 287.078 156.622 287.666C156.622 288.302 156.52 288.89 156.316 289.43C156.112 289.97 155.818 290.45 155.434 290.87C155.062 291.278 154.6 291.596 154.048 291.824C153.508 292.052 152.902 292.166 152.23 292.166ZM160.767 284.084C160.323 284.084 159.915 283.982 159.543 283.778C159.183 283.574 158.889 283.286 158.661 282.914C158.433 282.542 158.319 282.11 158.319 281.618C158.319 281.102 158.433 280.664 158.661 280.304C158.901 279.932 159.201 279.644 159.561 279.44C159.933 279.236 160.341 279.134 160.785 279.134C161.229 279.134 161.631 279.236 161.991 279.44C162.363 279.644 162.657 279.932 162.873 280.304C163.101 280.664 163.215 281.102 163.215 281.618C163.215 282.11 163.101 282.542 162.873 282.914C162.657 283.286 162.363 283.574 161.991 283.778C161.619 283.982 161.211 284.084 160.767 284.084ZM160.767 282.824C161.043 282.824 161.301 282.722 161.541 282.518C161.793 282.314 161.919 282.008 161.919 281.6C161.919 281.192 161.799 280.886 161.559 280.682C161.319 280.478 161.061 280.376 160.785 280.376C160.509 280.376 160.251 280.478 160.011 280.682C159.771 280.886 159.651 281.192 159.651 281.6C159.651 282.008 159.765 282.314 159.993 282.518C160.233 282.722 160.491 282.824 160.767 282.824ZM165.242 287.396V285.884H172.514V287.396H165.242ZM179.278 292.166C178.354 292.166 177.544 292.004 176.848 291.68C176.152 291.344 175.612 290.876 175.228 290.276C174.844 289.676 174.652 288.974 174.652 288.17H176.542C176.554 288.626 176.662 289.046 176.866 289.43C177.082 289.802 177.388 290.102 177.784 290.33C178.192 290.546 178.69 290.654 179.278 290.654C179.782 290.654 180.214 290.57 180.574 290.402C180.946 290.234 181.228 290.006 181.42 289.718C181.612 289.418 181.708 289.076 181.708 288.692C181.708 288.248 181.606 287.882 181.402 287.594C181.198 287.306 180.922 287.072 180.574 286.892C180.238 286.7 179.842 286.532 179.386 286.388C178.942 286.244 178.474 286.088 177.982 285.92C176.986 285.596 176.242 285.176 175.75 284.66C175.27 284.144 175.03 283.472 175.03 282.644C175.03 281.936 175.198 281.324 175.534 280.808C175.87 280.28 176.338 279.872 176.938 279.584C177.55 279.284 178.27 279.134 179.098 279.134C179.914 279.134 180.628 279.284 181.24 279.584C181.852 279.884 182.332 280.298 182.68 280.826C183.028 281.354 183.202 281.972 183.202 282.68H181.294C181.294 282.356 181.21 282.038 181.042 281.726C180.874 281.414 180.622 281.162 180.286 280.97C179.95 280.766 179.536 280.664 179.044 280.664C178.636 280.652 178.27 280.718 177.946 280.862C177.622 281.006 177.37 281.216 177.19 281.492C177.01 281.768 176.92 282.098 176.92 282.482C176.92 282.866 176.998 283.178 177.154 283.418C177.322 283.646 177.562 283.844 177.874 284.012C178.186 284.18 178.546 284.336 178.954 284.48C179.374 284.612 179.836 284.762 180.34 284.93C180.964 285.134 181.516 285.386 181.996 285.686C182.488 285.974 182.872 286.352 183.148 286.82C183.436 287.276 183.58 287.864 183.58 288.584C183.58 289.208 183.418 289.79 183.094 290.33C182.77 290.87 182.29 291.314 181.654 291.662C181.018 291.998 180.226 292.166 179.278 292.166ZM189.374 291.95C188.798 291.95 188.3 291.86 187.88 291.68C187.46 291.5 187.136 291.2 186.908 290.78C186.68 290.36 186.566 289.79 186.566 289.07V284.408H185V282.878H186.566L186.782 280.61H188.366V282.878H190.94V284.408H188.366V289.088C188.366 289.604 188.474 289.958 188.69 290.15C188.906 290.33 189.278 290.42 189.806 290.42H190.85V291.95H189.374ZM195.931 292.166C195.187 292.166 194.569 292.04 194.077 291.788C193.585 291.536 193.219 291.2 192.979 290.78C192.739 290.348 192.619 289.886 192.619 289.394C192.619 288.794 192.775 288.284 193.087 287.864C193.399 287.432 193.843 287.102 194.419 286.874C194.995 286.646 195.685 286.532 196.489 286.532H198.847C198.847 286.004 198.769 285.566 198.613 285.218C198.457 284.87 198.223 284.612 197.911 284.444C197.611 284.264 197.227 284.174 196.759 284.174C196.219 284.174 195.757 284.306 195.373 284.57C194.989 284.822 194.749 285.2 194.653 285.704H192.853C192.925 285.068 193.141 284.528 193.501 284.084C193.873 283.628 194.347 283.28 194.923 283.04C195.499 282.788 196.111 282.662 196.759 282.662C197.611 282.662 198.325 282.812 198.901 283.112C199.477 283.412 199.909 283.838 200.197 284.39C200.497 284.93 200.647 285.578 200.647 286.334V291.95H199.081L198.937 290.42C198.805 290.66 198.649 290.888 198.469 291.104C198.289 291.32 198.073 291.506 197.821 291.662C197.581 291.818 197.299 291.938 196.975 292.022C196.663 292.118 196.315 292.166 195.931 292.166ZM196.273 290.708C196.657 290.708 197.005 290.63 197.317 290.474C197.629 290.318 197.893 290.108 198.109 289.844C198.337 289.568 198.505 289.262 198.613 288.926C198.733 288.578 198.799 288.224 198.811 287.864V287.81H196.669C196.153 287.81 195.733 287.876 195.409 288.008C195.097 288.128 194.869 288.296 194.725 288.512C194.581 288.728 194.509 288.98 194.509 289.268C194.509 289.568 194.575 289.826 194.707 290.042C194.851 290.246 195.055 290.408 195.319 290.528C195.583 290.648 195.901 290.708 196.273 290.708ZM206.495 291.95C205.919 291.95 205.421 291.86 205.001 291.68C204.581 291.5 204.257 291.2 204.029 290.78C203.801 290.36 203.687 289.79 203.687 289.07V284.408H202.121V282.878H203.687L203.903 280.61H205.487V282.878H208.061V284.408H205.487V289.088C205.487 289.604 205.595 289.958 205.811 290.15C206.027 290.33 206.399 290.42 206.927 290.42H207.971V291.95H206.495ZM213.904 292.166C213.04 292.166 212.272 291.968 211.6 291.572C210.928 291.176 210.4 290.624 210.016 289.916C209.644 289.208 209.458 288.386 209.458 287.45C209.458 286.49 209.644 285.656 210.016 284.948C210.4 284.228 210.928 283.67 211.6 283.274C212.272 282.866 213.052 282.662 213.94 282.662C214.828 282.662 215.59 282.86 216.226 283.256C216.862 283.652 217.354 284.18 217.702 284.84C218.05 285.488 218.224 286.208 218.224 287C218.224 287.12 218.218 287.252 218.206 287.396C218.206 287.528 218.2 287.678 218.188 287.846H210.772V286.568H216.424C216.388 285.812 216.136 285.224 215.668 284.804C215.2 284.372 214.618 284.156 213.922 284.156C213.43 284.156 212.98 284.27 212.572 284.498C212.164 284.714 211.834 285.038 211.582 285.47C211.342 285.89 211.222 286.424 211.222 287.072V287.576C211.222 288.248 211.342 288.818 211.582 289.286C211.834 289.742 212.164 290.09 212.572 290.33C212.98 290.558 213.424 290.672 213.904 290.672C214.48 290.672 214.954 290.546 215.326 290.294C215.698 290.042 215.974 289.7 216.154 289.268H217.954C217.798 289.82 217.534 290.318 217.162 290.762C216.79 291.194 216.328 291.536 215.776 291.788C215.236 292.04 214.612 292.166 213.904 292.166Z" fill="black"/>
<path d="M237.945 291.664V281.098L235.749 281.656V280.306L238.611 279.064H239.781V291.664H237.945ZM246.408 291.88C245.604 291.88 244.866 291.736 244.194 291.448C243.534 291.148 243.006 290.704 242.61 290.116C242.226 289.516 242.022 288.766 241.998 287.866H243.798C243.81 288.322 243.918 288.736 244.122 289.108C244.326 289.48 244.62 289.78 245.004 290.008C245.4 290.224 245.868 290.332 246.408 290.332C246.948 290.332 247.398 290.23 247.758 290.026C248.13 289.822 248.406 289.546 248.586 289.198C248.778 288.85 248.874 288.46 248.874 288.028C248.874 287.488 248.742 287.05 248.478 286.714C248.226 286.378 247.878 286.126 247.434 285.958C247.002 285.79 246.516 285.706 245.976 285.706H245.04V284.194H245.976C246.732 284.194 247.332 284.02 247.776 283.672C248.232 283.324 248.46 282.832 248.46 282.196C248.46 281.668 248.286 281.236 247.938 280.9C247.59 280.564 247.08 280.396 246.408 280.396C245.736 280.396 245.202 280.588 244.806 280.972C244.422 281.356 244.206 281.842 244.158 282.43H242.376C242.412 281.722 242.598 281.098 242.934 280.558C243.282 280.006 243.75 279.586 244.338 279.298C244.938 278.998 245.628 278.848 246.408 278.848C247.248 278.848 247.95 278.998 248.514 279.298C249.09 279.586 249.522 279.976 249.81 280.468C250.11 280.96 250.26 281.5 250.26 282.088C250.26 282.532 250.176 282.946 250.008 283.33C249.84 283.702 249.6 284.026 249.288 284.302C248.976 284.578 248.598 284.776 248.154 284.896C248.634 284.992 249.066 285.178 249.45 285.454C249.834 285.73 250.134 286.09 250.35 286.534C250.566 286.966 250.674 287.47 250.674 288.046C250.674 288.73 250.512 289.366 250.188 289.954C249.864 290.53 249.384 290.998 248.748 291.358C248.124 291.706 247.344 291.88 246.408 291.88ZM257.437 291.88C256.549 291.88 255.787 291.724 255.151 291.412C254.515 291.088 254.011 290.656 253.639 290.116C253.267 289.564 253.039 288.946 252.955 288.262H254.719C254.839 288.874 255.139 289.378 255.619 289.774C256.099 290.158 256.705 290.35 257.437 290.35C257.989 290.35 258.463 290.218 258.859 289.954C259.255 289.69 259.561 289.336 259.777 288.892C259.993 288.448 260.101 287.956 260.101 287.416C260.101 286.84 259.987 286.342 259.759 285.922C259.543 285.49 259.237 285.154 258.841 284.914C258.457 284.674 258.007 284.554 257.491 284.554C256.867 284.554 256.327 284.698 255.871 284.986C255.427 285.262 255.103 285.616 254.899 286.048H253.153L254.197 279.064H260.983V280.63H255.583L254.917 284.158C255.205 283.834 255.589 283.57 256.069 283.366C256.561 283.162 257.119 283.06 257.743 283.06C258.379 283.06 258.949 283.174 259.453 283.402C259.957 283.618 260.383 283.924 260.731 284.32C261.091 284.716 261.361 285.178 261.541 285.706C261.733 286.234 261.829 286.792 261.829 287.38C261.829 288.016 261.727 288.604 261.523 289.144C261.319 289.684 261.025 290.164 260.641 290.584C260.269 290.992 259.807 291.31 259.255 291.538C258.715 291.766 258.109 291.88 257.437 291.88ZM265.974 283.798C265.53 283.798 265.122 283.696 264.75 283.492C264.39 283.288 264.096 283 263.868 282.628C263.64 282.256 263.526 281.824 263.526 281.332C263.526 280.816 263.64 280.378 263.868 280.018C264.108 279.646 264.408 279.358 264.768 279.154C265.14 278.95 265.548 278.848 265.992 278.848C266.436 278.848 266.838 278.95 267.198 279.154C267.57 279.358 267.864 279.646 268.08 280.018C268.308 280.378 268.422 280.816 268.422 281.332C268.422 281.824 268.308 282.256 268.08 282.628C267.864 283 267.57 283.288 267.198 283.492C266.826 283.696 266.418 283.798 265.974 283.798ZM265.974 282.538C266.25 282.538 266.508 282.436 266.748 282.232C267 282.028 267.126 281.722 267.126 281.314C267.126 280.906 267.006 280.6 266.766 280.396C266.526 280.192 266.268 280.09 265.992 280.09C265.716 280.09 265.458 280.192 265.218 280.396C264.978 280.6 264.858 280.906 264.858 281.314C264.858 281.722 264.972 282.028 265.2 282.232C265.44 282.436 265.698 282.538 265.974 282.538ZM270.449 287.11V285.598H277.721V287.11H270.449ZM284.485 291.88C283.561 291.88 282.751 291.718 282.055 291.394C281.359 291.058 280.819 290.59 280.435 289.99C280.051 289.39 279.859 288.688 279.859 287.884H281.749C281.761 288.34 281.869 288.76 282.073 289.144C282.289 289.516 282.595 289.816 282.991 290.044C283.399 290.26 283.897 290.368 284.485 290.368C284.989 290.368 285.421 290.284 285.781 290.116C286.153 289.948 286.435 289.72 286.627 289.432C286.819 289.132 286.915 288.79 286.915 288.406C286.915 287.962 286.813 287.596 286.609 287.308C286.405 287.02 286.129 286.786 285.781 286.606C285.445 286.414 285.049 286.246 284.593 286.102C284.149 285.958 283.681 285.802 283.189 285.634C282.193 285.31 281.449 284.89 280.957 284.374C280.477 283.858 280.237 283.186 280.237 282.358C280.237 281.65 280.405 281.038 280.741 280.522C281.077 279.994 281.545 279.586 282.145 279.298C282.757 278.998 283.477 278.848 284.305 278.848C285.121 278.848 285.835 278.998 286.447 279.298C287.059 279.598 287.539 280.012 287.887 280.54C288.235 281.068 288.409 281.686 288.409 282.394H286.501C286.501 282.07 286.417 281.752 286.249 281.44C286.081 281.128 285.829 280.876 285.493 280.684C285.157 280.48 284.743 280.378 284.251 280.378C283.843 280.366 283.477 280.432 283.153 280.576C282.829 280.72 282.577 280.93 282.397 281.206C282.217 281.482 282.127 281.812 282.127 282.196C282.127 282.58 282.205 282.892 282.361 283.132C282.529 283.36 282.769 283.558 283.081 283.726C283.393 283.894 283.753 284.05 284.161 284.194C284.581 284.326 285.043 284.476 285.547 284.644C286.171 284.848 286.723 285.1 287.203 285.4C287.695 285.688 288.079 286.066 288.355 286.534C288.643 286.99 288.787 287.578 288.787 288.298C288.787 288.922 288.625 289.504 288.301 290.044C287.977 290.584 287.497 291.028 286.861 291.376C286.225 291.712 285.433 291.88 284.485 291.88ZM294.581 291.664C294.005 291.664 293.507 291.574 293.087 291.394C292.667 291.214 292.343 290.914 292.115 290.494C291.887 290.074 291.773 289.504 291.773 288.784V284.122H290.207V282.592H291.773L291.989 280.324H293.573V282.592H296.147V284.122H293.573V288.802C293.573 289.318 293.681 289.672 293.897 289.864C294.113 290.044 294.485 290.134 295.013 290.134H296.057V291.664H294.581ZM301.138 291.88C300.394 291.88 299.776 291.754 299.284 291.502C298.792 291.25 298.426 290.914 298.186 290.494C297.946 290.062 297.826 289.6 297.826 289.108C297.826 288.508 297.982 287.998 298.294 287.578C298.606 287.146 299.05 286.816 299.626 286.588C300.202 286.36 300.892 286.246 301.696 286.246H304.054C304.054 285.718 303.976 285.28 303.82 284.932C303.664 284.584 303.43 284.326 303.118 284.158C302.818 283.978 302.434 283.888 301.966 283.888C301.426 283.888 300.964 284.02 300.58 284.284C300.196 284.536 299.956 284.914 299.86 285.418H298.06C298.132 284.782 298.348 284.242 298.708 283.798C299.08 283.342 299.554 282.994 300.13 282.754C300.706 282.502 301.318 282.376 301.966 282.376C302.818 282.376 303.532 282.526 304.108 282.826C304.684 283.126 305.116 283.552 305.404 284.104C305.704 284.644 305.854 285.292 305.854 286.048V291.664H304.288L304.144 290.134C304.012 290.374 303.856 290.602 303.676 290.818C303.496 291.034 303.28 291.22 303.028 291.376C302.788 291.532 302.506 291.652 302.182 291.736C301.87 291.832 301.522 291.88 301.138 291.88ZM301.48 290.422C301.864 290.422 302.212 290.344 302.524 290.188C302.836 290.032 303.1 289.822 303.316 289.558C303.544 289.282 303.712 288.976 303.82 288.64C303.94 288.292 304.006 287.938 304.018 287.578V287.524H301.876C301.36 287.524 300.94 287.59 300.616 287.722C300.304 287.842 300.076 288.01 299.932 288.226C299.788 288.442 299.716 288.694 299.716 288.982C299.716 289.282 299.782 289.54 299.914 289.756C300.058 289.96 300.262 290.122 300.526 290.242C300.79 290.362 301.108 290.422 301.48 290.422ZM311.702 291.664C311.126 291.664 310.628 291.574 310.208 291.394C309.788 291.214 309.464 290.914 309.236 290.494C309.008 290.074 308.894 289.504 308.894 288.784V284.122H307.328V282.592H308.894L309.11 280.324H310.694V282.592H313.268V284.122H310.694V288.802C310.694 289.318 310.802 289.672 311.018 289.864C311.234 290.044 311.606 290.134 312.134 290.134H313.178V291.664H311.702ZM319.111 291.88C318.247 291.88 317.479 291.682 316.807 291.286C316.135 290.89 315.607 290.338 315.223 289.63C314.851 288.922 314.665 288.1 314.665 287.164C314.665 286.204 314.851 285.37 315.223 284.662C315.607 283.942 316.135 283.384 316.807 282.988C317.479 282.58 318.259 282.376 319.147 282.376C320.035 282.376 320.797 282.574 321.433 282.97C322.069 283.366 322.561 283.894 322.909 284.554C323.257 285.202 323.431 285.922 323.431 286.714C323.431 286.834 323.425 286.966 323.413 287.11C323.413 287.242 323.407 287.392 323.395 287.56H315.979V286.282H321.631C321.595 285.526 321.343 284.938 320.875 284.518C320.407 284.086 319.825 283.87 319.129 283.87C318.637 283.87 318.187 283.984 317.779 284.212C317.371 284.428 317.041 284.752 316.789 285.184C316.549 285.604 316.429 286.138 316.429 286.786V287.29C316.429 287.962 316.549 288.532 316.789 289C317.041 289.456 317.371 289.804 317.779 290.044C318.187 290.272 318.631 290.386 319.111 290.386C319.687 290.386 320.161 290.26 320.533 290.008C320.905 289.756 321.181 289.414 321.361 288.982H323.161C323.005 289.534 322.741 290.032 322.369 290.476C321.997 290.908 321.535 291.25 320.983 291.502C320.443 291.754 319.819 291.88 319.111 291.88Z" fill="black"/>
<path d="M252.285 181.975V169.375H254.085V181.975H252.285ZM244.275 181.975V169.375H246.075V181.975H244.275ZM245.769 176.287V174.811H252.681V176.287H245.769ZM256.738 177.421V175.909H264.01V177.421H256.738ZM270.774 182.191C269.85 182.191 269.04 182.029 268.344 181.705C267.648 181.369 267.108 180.901 266.724 180.301C266.34 179.701 266.148 178.999 266.148 178.195H268.038C268.05 178.651 268.158 179.071 268.362 179.455C268.578 179.827 268.884 180.127 269.28 180.355C269.688 180.571 270.186 180.679 270.774 180.679C271.278 180.679 271.71 180.595 272.07 180.427C272.442 180.259 272.724 180.031 272.916 179.743C273.108 179.443 273.204 179.101 273.204 178.717C273.204 178.273 273.102 177.907 272.898 177.619C272.694 177.331 272.418 177.097 272.07 176.917C271.734 176.725 271.338 176.557 270.882 176.413C270.438 176.269 269.97 176.113 269.478 175.945C268.482 175.621 267.738 175.201 267.246 174.685C266.766 174.169 266.526 173.497 266.526 172.669C266.526 171.961 266.694 171.349 267.03 170.833C267.366 170.305 267.834 169.897 268.434 169.609C269.046 169.309 269.766 169.159 270.594 169.159C271.41 169.159 272.124 169.309 272.736 169.609C273.348 169.909 273.828 170.323 274.176 170.851C274.524 171.379 274.698 171.997 274.698 172.705H272.79C272.79 172.381 272.706 172.063 272.538 171.751C272.37 171.439 272.118 171.187 271.782 170.995C271.446 170.791 271.032 170.689 270.54 170.689C270.132 170.677 269.766 170.743 269.442 170.887C269.118 171.031 268.866 171.241 268.686 171.517C268.506 171.793 268.416 172.123 268.416 172.507C268.416 172.891 268.494 173.203 268.65 173.443C268.818 173.671 269.058 173.869 269.37 174.037C269.682 174.205 270.042 174.361 270.45 174.505C270.87 174.637 271.332 174.787 271.836 174.955C272.46 175.159 273.012 175.411 273.492 175.711C273.984 175.999 274.368 176.377 274.644 176.845C274.932 177.301 275.076 177.889 275.076 178.609C275.076 179.233 274.914 179.815 274.59 180.355C274.266 180.895 273.786 181.339 273.15 181.687C272.514 182.023 271.722 182.191 270.774 182.191ZM280.87 181.975C280.294 181.975 279.796 181.885 279.376 181.705C278.956 181.525 278.632 181.225 278.404 180.805C278.176 180.385 278.062 179.815 278.062 179.095V174.433H276.496V172.903H278.062L278.278 170.635H279.862V172.903H282.436V174.433H279.862V179.113C279.862 179.629 279.97 179.983 280.186 180.175C280.402 180.355 280.774 180.445 281.302 180.445H282.346V181.975H280.87ZM287.427 182.191C286.683 182.191 286.065 182.065 285.573 181.813C285.081 181.561 284.715 181.225 284.475 180.805C284.235 180.373 284.115 179.911 284.115 179.419C284.115 178.819 284.271 178.309 284.583 177.889C284.895 177.457 285.339 177.127 285.915 176.899C286.491 176.671 287.181 176.557 287.985 176.557H290.343C290.343 176.029 290.265 175.591 290.109 175.243C289.953 174.895 289.719 174.637 289.407 174.469C289.107 174.289 288.723 174.199 288.255 174.199C287.715 174.199 287.253 174.331 286.869 174.595C286.485 174.847 286.245 175.225 286.149 175.729H284.349C284.421 175.093 284.637 174.553 284.997 174.109C285.369 173.653 285.843 173.305 286.419 173.065C286.995 172.813 287.607 172.687 288.255 172.687C289.107 172.687 289.821 172.837 290.397 173.137C290.973 173.437 291.405 173.863 291.693 174.415C291.993 174.955 292.143 175.603 292.143 176.359V181.975H290.577L290.433 180.445C290.301 180.685 290.145 180.913 289.965 181.129C289.785 181.345 289.569 181.531 289.317 181.687C289.077 181.843 288.795 181.963 288.471 182.047C288.159 182.143 287.811 182.191 287.427 182.191ZM287.769 180.733C288.153 180.733 288.501 180.655 288.813 180.499C289.125 180.343 289.389 180.133 289.605 179.869C289.833 179.593 290.001 179.287 290.109 178.951C290.229 178.603 290.295 178.249 290.307 177.889V177.835H288.165C287.649 177.835 287.229 177.901 286.905 178.033C286.593 178.153 286.365 178.321 286.221 178.537C286.077 178.753 286.005 179.005 286.005 179.293C286.005 179.593 286.071 179.851 286.203 180.067C286.347 180.271 286.551 180.433 286.815 180.553C287.079 180.673 287.397 180.733 287.769 180.733ZM297.991 181.975C297.415 181.975 296.917 181.885 296.497 181.705C296.077 181.525 295.753 181.225 295.525 180.805C295.297 180.385 295.183 179.815 295.183 179.095V174.433H293.617V172.903H295.183L295.399 170.635H296.983V172.903H299.557V174.433H296.983V179.113C296.983 179.629 297.091 179.983 297.307 180.175C297.523 180.355 297.895 180.445 298.423 180.445H299.467V181.975H297.991ZM305.4 182.191C304.536 182.191 303.768 181.993 303.096 181.597C302.424 181.201 301.896 180.649 301.512 179.941C301.14 179.233 300.954 178.411 300.954 177.475C300.954 176.515 301.14 175.681 301.512 174.973C301.896 174.253 302.424 173.695 303.096 173.299C303.768 172.891 304.548 172.687 305.436 172.687C306.324 172.687 307.086 172.885 307.722 173.281C308.358 173.677 308.85 174.205 309.198 174.865C309.546 175.513 309.72 176.233 309.72 177.025C309.72 177.145 309.714 177.277 309.702 177.421C309.702 177.553 309.696 177.703 309.684 177.871H302.268V176.593H307.92C307.884 175.837 307.632 175.249 307.164 174.829C306.696 174.397 306.114 174.181 305.418 174.181C304.926 174.181 304.476 174.295 304.068 174.523C303.66 174.739 303.33 175.063 303.078 175.495C302.838 175.915 302.718 176.449 302.718 177.097V177.601C302.718 178.273 302.838 178.843 303.078 179.311C303.33 179.767 303.66 180.115 304.068 180.355C304.476 180.583 304.92 180.697 305.4 180.697C305.976 180.697 306.45 180.571 306.822 180.319C307.194 180.067 307.47 179.725 307.65 179.293H309.45C309.294 179.845 309.03 180.343 308.658 180.787C308.286 181.219 307.824 181.561 307.272 181.813C306.732 182.065 306.108 182.191 305.4 182.191Z" fill="black"/>
<path d="M23.878 293.95V279.95H28.178C29.8046 279.95 31.1513 280.236 32.218 280.81C33.2846 281.383 34.0713 282.196 34.578 283.25C35.098 284.29 35.358 285.53 35.358 286.97C35.358 288.41 35.098 289.65 34.578 290.69C34.0713 291.73 33.2846 292.536 32.218 293.11C31.1646 293.67 29.818 293.95 28.178 293.95H23.878ZM25.878 292.27H28.098C29.3913 292.27 30.418 292.056 31.178 291.63C31.938 291.203 32.478 290.596 32.798 289.81C33.1313 289.01 33.298 288.063 33.298 286.97C33.298 285.863 33.1313 284.91 32.798 284.11C32.478 283.31 31.938 282.696 31.178 282.27C30.418 281.843 29.3913 281.63 28.098 281.63H25.878V292.27ZM37.8047 293.95V283.87H39.8047V293.95H37.8047ZM38.8247 281.97C38.438 281.97 38.118 281.85 37.8647 281.61C37.6247 281.37 37.5047 281.063 37.5047 280.69C37.5047 280.33 37.6247 280.036 37.8647 279.81C38.118 279.57 38.438 279.45 38.8247 279.45C39.198 279.45 39.5114 279.57 39.7647 279.81C40.018 280.036 40.1447 280.33 40.1447 280.69C40.1447 281.063 40.018 281.37 39.7647 281.61C39.5114 281.85 39.198 281.97 38.8247 281.97ZM46.0047 294.19C45.178 294.19 44.4914 294.05 43.9447 293.77C43.398 293.49 42.9914 293.116 42.7247 292.65C42.458 292.17 42.3247 291.656 42.3247 291.11C42.3247 290.443 42.498 289.876 42.8447 289.41C43.1914 288.93 43.6847 288.563 44.3247 288.31C44.9647 288.056 45.7314 287.93 46.6247 287.93H49.2447C49.2447 287.343 49.158 286.856 48.9847 286.47C48.8114 286.083 48.5514 285.796 48.2047 285.61C47.8714 285.41 47.4447 285.31 46.9247 285.31C46.3247 285.31 45.8114 285.456 45.3847 285.75C44.958 286.03 44.6914 286.45 44.5847 287.01H42.5847C42.6647 286.303 42.9047 285.703 43.3047 285.21C43.718 284.703 44.2447 284.316 44.8847 284.05C45.5247 283.77 46.2047 283.63 46.9247 283.63C47.8714 283.63 48.6647 283.796 49.3047 284.13C49.9447 284.463 50.4247 284.936 50.7447 285.55C51.078 286.15 51.2447 286.87 51.2447 287.71V293.95H49.5047L49.3447 292.25C49.198 292.516 49.0247 292.77 48.8247 293.01C48.6247 293.25 48.3847 293.456 48.1047 293.63C47.838 293.803 47.5247 293.936 47.1647 294.03C46.818 294.136 46.4314 294.19 46.0047 294.19ZM46.3847 292.57C46.8114 292.57 47.198 292.483 47.5447 292.31C47.8914 292.136 48.1847 291.903 48.4247 291.61C48.678 291.303 48.8647 290.963 48.9847 290.59C49.118 290.203 49.1914 289.81 49.2047 289.41V289.35H46.8247C46.2514 289.35 45.7847 289.423 45.4247 289.57C45.078 289.703 44.8247 289.89 44.6647 290.13C44.5047 290.37 44.4247 290.65 44.4247 290.97C44.4247 291.303 44.498 291.59 44.6447 291.83C44.8047 292.056 45.0314 292.236 45.3247 292.37C45.618 292.503 45.9714 292.57 46.3847 292.57ZM57.8975 298.59C56.9775 298.59 56.1642 298.47 55.4575 298.23C54.7508 298.003 54.2042 297.65 53.8175 297.17C53.4308 296.69 53.2375 296.103 53.2375 295.41C53.2375 295.05 53.3175 294.683 53.4775 294.31C53.6375 293.95 53.8975 293.603 54.2575 293.27C54.6175 292.936 55.1042 292.636 55.7175 292.37L56.8375 293.27C56.1575 293.523 55.6975 293.823 55.4575 294.17C55.2308 294.53 55.1175 294.876 55.1175 295.21C55.1175 295.61 55.2375 295.943 55.4775 296.21C55.7175 296.476 56.0442 296.676 56.4575 296.81C56.8842 296.943 57.3642 297.01 57.8975 297.01C58.4175 297.01 58.8708 296.936 59.2575 296.79C59.6442 296.643 59.9442 296.436 60.1575 296.17C60.3708 295.903 60.4775 295.59 60.4775 295.23C60.4775 294.803 60.3175 294.443 59.9975 294.15C59.6775 293.87 59.0642 293.703 58.1575 293.65C57.3975 293.596 56.7508 293.523 56.2175 293.43C55.6975 293.336 55.2508 293.223 54.8775 293.09C54.5175 292.956 54.2108 292.81 53.9575 292.65C53.7175 292.49 53.5108 292.323 53.3375 292.15V291.69L55.3375 289.63L56.9575 290.19L54.7775 292.21L55.1975 291.31C55.3442 291.403 55.4842 291.496 55.6175 291.59C55.7508 291.67 55.9308 291.743 56.1575 291.81C56.3842 291.876 56.6908 291.936 57.0775 291.99C57.4642 292.043 57.9708 292.096 58.5975 292.15C59.5042 292.216 60.2308 292.376 60.7775 292.63C61.3375 292.883 61.7442 293.223 61.9975 293.65C62.2508 294.076 62.3775 294.583 62.3775 295.17C62.3775 295.743 62.2175 296.29 61.8975 296.81C61.5908 297.33 61.1042 297.756 60.4375 298.09C59.7842 298.423 58.9375 298.59 57.8975 298.59ZM57.8975 290.85C57.0442 290.85 56.3175 290.69 55.7175 290.37C55.1308 290.05 54.6775 289.616 54.3575 289.07C54.0508 288.523 53.8975 287.916 53.8975 287.25C53.8975 286.57 54.0508 285.963 54.3575 285.43C54.6775 284.883 55.1375 284.45 55.7375 284.13C56.3375 283.796 57.0575 283.63 57.8975 283.63C58.7375 283.63 59.4508 283.796 60.0375 284.13C60.6375 284.45 61.0908 284.883 61.3975 285.43C61.7175 285.963 61.8775 286.57 61.8775 287.25C61.8775 287.916 61.7175 288.523 61.3975 289.07C61.0908 289.616 60.6375 290.05 60.0375 290.37C59.4508 290.69 58.7375 290.85 57.8975 290.85ZM57.8975 289.25C58.5508 289.25 59.0708 289.083 59.4575 288.75C59.8442 288.403 60.0375 287.903 60.0375 287.25C60.0375 286.596 59.8442 286.103 59.4575 285.77C59.0708 285.423 58.5508 285.25 57.8975 285.25C57.2442 285.25 56.7175 285.423 56.3175 285.77C55.9175 286.103 55.7175 286.596 55.7175 287.25C55.7175 287.903 55.9175 288.403 56.3175 288.75C56.7175 289.083 57.2442 289.25 57.8975 289.25ZM59.5375 285.45L59.0575 283.87H63.1975V285.25L59.5375 285.45ZM69.4131 294.19C68.4665 294.19 67.6131 293.97 66.8531 293.53C66.1065 293.09 65.5131 292.476 65.0731 291.69C64.6465 290.89 64.4331 289.97 64.4331 288.93C64.4331 287.863 64.6531 286.936 65.0931 286.15C65.5331 285.35 66.1331 284.73 66.8931 284.29C67.6531 283.85 68.5065 283.63 69.4531 283.63C70.4131 283.63 71.2665 283.85 72.0131 284.29C72.7598 284.73 73.3465 285.343 73.7731 286.13C74.2131 286.916 74.4331 287.843 74.4331 288.91C74.4331 289.976 74.2131 290.903 73.7731 291.69C73.3465 292.476 72.7531 293.09 71.9931 293.53C71.2331 293.97 70.3731 294.19 69.4131 294.19ZM69.4131 292.47C69.9598 292.47 70.4531 292.336 70.8931 292.07C71.3465 291.803 71.7065 291.41 71.9731 290.89C72.2531 290.356 72.3931 289.696 72.3931 288.91C72.3931 288.123 72.2598 287.47 71.9931 286.95C71.7265 286.416 71.3665 286.016 70.9131 285.75C70.4731 285.483 69.9865 285.35 69.4531 285.35C68.9198 285.35 68.4265 285.483 67.9731 285.75C67.5198 286.016 67.1531 286.416 66.8731 286.95C66.6065 287.47 66.4731 288.123 66.4731 288.91C66.4731 289.696 66.6065 290.356 66.8731 290.89C67.1531 291.41 67.5131 291.803 67.9531 292.07C68.4065 292.336 68.8931 292.47 69.4131 292.47ZM76.7858 293.95V283.87H78.5858L78.7058 285.59C79.0258 284.99 79.4791 284.516 80.0658 284.17C80.6524 283.81 81.3258 283.63 82.0858 283.63C82.8858 283.63 83.5724 283.79 84.1458 284.11C84.7191 284.43 85.1658 284.916 85.4858 285.57C85.8058 286.21 85.9658 287.016 85.9658 287.99V293.95H83.9658V288.19C83.9658 287.256 83.7591 286.55 83.3458 286.07C82.9324 285.59 82.3324 285.35 81.5458 285.35C81.0258 285.35 80.5591 285.476 80.1458 285.73C79.7324 285.97 79.3991 286.33 79.1458 286.81C78.9058 287.29 78.7858 287.876 78.7858 288.57V293.95H76.7858ZM91.8641 294.19C91.0374 294.19 90.3507 294.05 89.8041 293.77C89.2574 293.49 88.8507 293.116 88.5841 292.65C88.3174 292.17 88.1841 291.656 88.1841 291.11C88.1841 290.443 88.3574 289.876 88.7041 289.41C89.0507 288.93 89.5441 288.563 90.1841 288.31C90.8241 288.056 91.5907 287.93 92.4841 287.93H95.1041C95.1041 287.343 95.0174 286.856 94.8441 286.47C94.6707 286.083 94.4107 285.796 94.0641 285.61C93.7307 285.41 93.3041 285.31 92.7841 285.31C92.1841 285.31 91.6707 285.456 91.2441 285.75C90.8174 286.03 90.5507 286.45 90.4441 287.01H88.4441C88.5241 286.303 88.7641 285.703 89.1641 285.21C89.5774 284.703 90.1041 284.316 90.7441 284.05C91.3841 283.77 92.0641 283.63 92.7841 283.63C93.7307 283.63 94.5241 283.796 95.1641 284.13C95.8041 284.463 96.2841 284.936 96.6041 285.55C96.9374 286.15 97.1041 286.87 97.1041 287.71V293.95H95.3641L95.2041 292.25C95.0574 292.516 94.8841 292.77 94.6841 293.01C94.4841 293.25 94.2441 293.456 93.9641 293.63C93.6974 293.803 93.3841 293.936 93.0241 294.03C92.6774 294.136 92.2907 294.19 91.8641 294.19ZM92.2441 292.57C92.6707 292.57 93.0574 292.483 93.4041 292.31C93.7507 292.136 94.0441 291.903 94.2841 291.61C94.5374 291.303 94.7241 290.963 94.8441 290.59C94.9774 290.203 95.0507 289.81 95.0641 289.41V289.35H92.6841C92.1107 289.35 91.6441 289.423 91.2841 289.57C90.9374 289.703 90.6841 289.89 90.5241 290.13C90.3641 290.37 90.2841 290.65 90.2841 290.97C90.2841 291.303 90.3574 291.59 90.5041 291.83C90.6641 292.056 90.8907 292.236 91.1841 292.37C91.4774 292.503 91.8307 292.57 92.2441 292.57ZM99.6569 293.95V279.55H101.657V293.95H99.6569Z" fill="black"/>
<path d="M110.33 39.3381C108.912 39.3381 107.642 39.0954 106.522 38.6101C105.421 38.1247 104.544 37.4154 103.89 36.4821C103.256 35.5487 102.92 34.4194 102.882 33.0941H106.886C106.924 33.6727 107.073 34.1954 107.334 34.6621C107.614 35.1287 108.006 35.5021 108.51 35.7821C109.014 36.0434 109.612 36.1741 110.302 36.1741C110.9 36.1741 111.413 36.0807 111.842 35.8941C112.29 35.7074 112.636 35.4367 112.878 35.0821C113.14 34.7274 113.27 34.2981 113.27 33.7941C113.27 33.2154 113.13 32.7394 112.85 32.3661C112.57 31.9927 112.178 31.6754 111.674 31.4141C111.189 31.1527 110.638 30.9194 110.022 30.7141C109.406 30.4901 108.753 30.2661 108.062 30.0421C106.532 29.5194 105.356 28.8474 104.534 28.0261C103.732 27.1861 103.33 26.0661 103.33 24.6661C103.33 23.5087 103.61 22.5101 104.17 21.6701C104.749 20.8301 105.542 20.1861 106.55 19.7381C107.558 19.2901 108.706 19.0661 109.994 19.0661C111.32 19.0661 112.477 19.2994 113.466 19.7661C114.474 20.2141 115.268 20.8674 115.846 21.7261C116.444 22.5847 116.752 23.5927 116.77 24.7501H112.71C112.71 24.3021 112.589 23.8914 112.346 23.5181C112.122 23.1261 111.805 22.8181 111.394 22.5941C110.984 22.3514 110.498 22.2301 109.938 22.2301C109.434 22.2114 108.986 22.2861 108.594 22.4541C108.202 22.6221 107.885 22.8741 107.642 23.2101C107.418 23.5274 107.306 23.9287 107.306 24.4141C107.306 24.8807 107.418 25.2727 107.642 25.5901C107.866 25.9074 108.184 26.1874 108.594 26.4301C109.005 26.6541 109.481 26.8687 110.022 27.0741C110.582 27.2607 111.198 27.4661 111.87 27.6901C112.86 28.0261 113.756 28.4274 114.558 28.8941C115.38 29.3421 116.033 29.9301 116.518 30.6581C117.004 31.3861 117.246 32.3381 117.246 33.5141C117.246 34.5594 116.976 35.5207 116.434 36.3981C115.912 37.2754 115.137 37.9847 114.11 38.5261C113.084 39.0674 111.824 39.3381 110.33 39.3381ZM121.889 45.0221L125.305 37.4341H124.465L118.781 25.1141H122.897L126.957 34.0461H126.985L130.597 25.1141H134.629L125.921 45.0221H121.889ZM136.72 39.0021V25.1141H140.024L140.36 27.1021H140.388C140.818 26.3741 141.406 25.8047 142.152 25.3941C142.899 24.9834 143.767 24.7781 144.756 24.7781C145.447 24.7781 146.082 24.8714 146.66 25.0581C147.239 25.2261 147.743 25.4967 148.172 25.8701C148.62 26.2434 148.994 26.7194 149.292 27.2981H149.32C149.843 26.5141 150.515 25.8981 151.336 25.4501C152.176 25.0021 153.119 24.7781 154.164 24.7781C155.359 24.7781 156.367 25.0301 157.188 25.5341C158.01 26.0194 158.635 26.7381 159.064 27.6901C159.494 28.6421 159.708 29.8181 159.708 31.2181V39.0021H155.956V31.5541C155.956 30.3967 155.732 29.5101 155.284 28.8941C154.836 28.2781 154.146 27.9701 153.212 27.9701C152.578 27.9701 152.027 28.1194 151.56 28.4181C151.094 28.7167 150.73 29.1461 150.468 29.7061C150.226 30.2661 150.104 30.9567 150.104 31.7781V39.0021H146.324V31.5541C146.324 30.3967 146.1 29.5101 145.652 28.8941C145.223 28.2781 144.523 27.9701 143.552 27.9701C142.955 27.9701 142.423 28.1287 141.956 28.4461C141.508 28.7447 141.154 29.1834 140.892 29.7621C140.631 30.3221 140.5 31.0127 140.5 31.8341V39.0021H136.72ZM171.207 39.3381C170.497 39.3381 169.844 39.2447 169.247 39.0581C168.668 38.8714 168.145 38.6101 167.679 38.2741C167.231 37.9194 166.839 37.4994 166.503 37.0141H166.475L166.111 39.0021H162.807V18.9821H166.587V27.0181C167.035 26.4207 167.623 25.8981 168.351 25.4501C169.097 25.0021 170.04 24.7781 171.179 24.7781C172.504 24.7781 173.671 25.0954 174.679 25.7301C175.705 26.3647 176.508 27.2327 177.087 28.3341C177.665 29.4167 177.955 30.6674 177.955 32.0861C177.955 33.4674 177.665 34.7087 177.087 35.8101C176.508 36.9114 175.705 37.7794 174.679 38.4141C173.671 39.0301 172.513 39.3381 171.207 39.3381ZM170.311 36.0901C171.057 36.0901 171.711 35.9221 172.271 35.5861C172.849 35.2314 173.297 34.7554 173.615 34.1581C173.951 33.5421 174.119 32.8421 174.119 32.0581C174.119 31.2741 173.951 30.5834 173.615 29.9861C173.297 29.3701 172.849 28.8941 172.271 28.5581C171.711 28.2034 171.057 28.0261 170.311 28.0261C169.564 28.0261 168.901 28.2034 168.323 28.5581C167.744 28.8941 167.287 29.3701 166.951 29.9861C166.633 30.5834 166.475 31.2741 166.475 32.0581C166.475 32.8421 166.633 33.5421 166.951 34.1581C167.287 34.7554 167.744 35.2314 168.323 35.5861C168.901 35.9221 169.564 36.0901 170.311 36.0901ZM187.462 39.3381C186.137 39.3381 184.933 39.0301 183.85 38.4141C182.768 37.7981 181.909 36.9394 181.274 35.8381C180.658 34.7367 180.35 33.4767 180.35 32.0581C180.35 30.6207 180.668 29.3607 181.302 28.2781C181.937 27.1767 182.796 26.3181 183.878 25.7021C184.961 25.0861 186.165 24.7781 187.49 24.7781C188.834 24.7781 190.048 25.0861 191.13 25.7021C192.213 26.3181 193.062 27.1767 193.678 28.2781C194.313 29.3607 194.63 30.6207 194.63 32.0581C194.63 33.4954 194.313 34.7647 193.678 35.8661C193.044 36.9487 192.185 37.7981 191.102 38.4141C190.038 39.0301 188.825 39.3381 187.462 39.3381ZM187.49 36.0901C188.088 36.0901 188.629 35.9407 189.114 35.6421C189.618 35.3434 190.02 34.8954 190.318 34.2981C190.636 33.7007 190.794 32.9541 190.794 32.0581C190.794 31.1621 190.645 30.4154 190.346 29.8181C190.048 29.2207 189.646 28.7727 189.142 28.4741C188.657 28.1754 188.116 28.0261 187.518 28.0261C186.921 28.0261 186.37 28.1754 185.866 28.4741C185.362 28.7727 184.961 29.2207 184.662 29.8181C184.364 30.4154 184.214 31.1621 184.214 32.0581C184.214 32.9541 184.364 33.7007 184.662 34.2981C184.961 34.8954 185.353 35.3434 185.838 35.6421C186.342 35.9407 186.893 36.0901 187.49 36.0901ZM197.506 39.0021V18.9821H201.286V39.0021H197.506ZM210.411 39.3381C209.179 39.3381 208.087 39.1327 207.135 38.7221C206.183 38.3114 205.417 37.7514 204.839 37.0421C204.279 36.3141 203.952 35.4927 203.859 34.5781H207.639C207.732 34.9141 207.891 35.2314 208.115 35.5301C208.357 35.8101 208.665 36.0341 209.039 36.2021C209.412 36.3701 209.851 36.4541 210.355 36.4541C210.859 36.4541 211.269 36.3887 211.587 36.2581C211.904 36.1087 212.137 35.9221 212.287 35.6981C212.436 35.4741 212.511 35.2407 212.511 34.9981C212.511 34.6247 212.399 34.3354 212.175 34.1301C211.951 33.9247 211.615 33.7567 211.167 33.6261C210.737 33.4954 210.224 33.3554 209.627 33.2061C209.029 33.0567 208.413 32.8887 207.779 32.7021C207.144 32.5154 206.565 32.2821 206.043 32.0021C205.539 31.7034 205.128 31.3301 204.811 30.8821C204.493 30.4154 204.335 29.8461 204.335 29.1741C204.335 28.3527 204.559 27.6154 205.007 26.9621C205.455 26.2901 206.099 25.7581 206.939 25.3661C207.797 24.9741 208.824 24.7781 210.019 24.7781C211.68 24.7781 213.005 25.1607 213.995 25.9261C215.003 26.6914 215.591 27.7461 215.759 29.0901H212.203C212.109 28.6421 211.867 28.2967 211.475 28.0541C211.101 27.7927 210.607 27.6621 209.991 27.6621C209.337 27.6621 208.833 27.7834 208.479 28.0261C208.143 28.2687 207.975 28.5674 207.975 28.9221C207.975 29.1834 208.096 29.4167 208.339 29.6221C208.581 29.8087 208.917 29.9674 209.347 30.0981C209.795 30.2287 210.308 30.3687 210.887 30.5181C211.895 30.7607 212.8 31.0221 213.603 31.3021C214.424 31.5821 215.077 31.9834 215.563 32.5061C216.048 33.0287 216.291 33.7754 216.291 34.7461C216.309 35.6234 216.076 36.4074 215.591 37.0981C215.105 37.7887 214.424 38.3394 213.547 38.7501C212.669 39.1421 211.624 39.3381 210.411 39.3381Z" fill="#232360"/>
<rect x="23.418" y="97.4781" width="63" height="63" fill="#05A1EF" stroke="black" stroke-width="2"/>
<path d="M79.0644 130.939C79.5627 130.437 79.8424 129.759 79.8424 129.051C79.8424 128.344 79.5627 127.666 79.0644 127.164L71.943 120.039C71.5797 119.693 71.1267 119.456 70.6355 119.355C70.1443 119.254 69.6346 119.293 69.1644 119.467C68.6503 119.644 68.2033 119.976 67.8844 120.416C67.5654 120.856 67.3901 121.384 67.3822 121.928V125.489C67.3822 125.725 67.2887 125.952 67.122 126.119C66.9553 126.286 66.7291 126.381 66.493 126.382H58.4787C58.2419 126.382 58.0148 126.288 57.8473 126.12C57.6799 125.953 57.5858 125.726 57.5858 125.489V117.475C57.5858 117.238 57.6799 117.011 57.8473 116.843C58.0148 116.676 58.2419 116.582 58.4787 116.582H62.0394C62.5826 116.574 63.1103 116.399 63.5506 116.081C63.9909 115.763 64.3225 115.317 64.5001 114.803C64.7045 114.314 64.7593 113.776 64.6576 113.256C64.5559 112.736 64.3022 112.258 63.9287 111.882L56.8072 104.764C56.3053 104.264 55.626 103.984 54.918 103.984C54.2099 103.984 53.5306 104.264 53.0287 104.764L45.9072 111.882C45.5337 112.258 45.28 112.736 45.1783 113.256C45.0766 113.776 45.1314 114.314 45.3358 114.803C45.5126 115.317 45.8434 115.763 46.283 116.082C46.7227 116.401 47.2499 116.577 47.793 116.585H51.3572C51.5934 116.586 51.8196 116.681 51.9863 116.848C52.1529 117.015 52.2465 117.242 52.2465 117.478V125.489C52.2465 125.726 52.1525 125.953 51.985 126.12C51.8176 126.288 51.5905 126.382 51.3537 126.382H43.3465C43.1097 126.382 42.8826 126.288 42.7152 126.12C42.5477 125.953 42.4537 125.726 42.4537 125.489V121.928C42.4531 121.4 42.2962 120.885 42.0029 120.446C41.7095 120.007 41.2928 119.665 40.8053 119.463C40.3178 119.261 39.7814 119.208 39.2637 119.31C38.7461 119.413 38.2703 119.666 37.8965 120.039L30.7751 127.164C30.2767 127.666 29.9971 128.344 29.9971 129.051C29.9971 129.759 30.2767 130.437 30.7751 130.939L37.8965 138.06C38.4001 138.557 39.0751 138.835 39.7858 138.846C40.0918 138.823 40.3921 138.75 40.6751 138.632C41.1886 138.455 41.6352 138.124 41.9541 137.685C42.273 137.245 42.4487 136.718 42.4572 136.175V132.61C42.4582 132.375 42.5522 132.149 42.7187 131.983C42.8853 131.816 43.111 131.722 43.3465 131.721H51.3608C51.597 131.722 51.8232 131.816 51.9898 131.984C52.1565 132.151 52.2501 132.378 52.2501 132.614V140.625C52.2501 140.861 52.156 141.088 51.9886 141.256C51.8211 141.423 51.594 141.517 51.3572 141.517H47.7965C47.2707 141.515 46.756 141.669 46.3183 141.96C45.8806 142.252 45.5398 142.667 45.3394 143.153C45.135 143.642 45.0802 144.181 45.1819 144.701C45.2836 145.221 45.5373 145.699 45.9108 146.075L53.0322 153.196C53.5342 153.695 54.2134 153.976 54.9215 153.976C55.6296 153.976 56.3089 153.695 56.8108 153.196L63.9322 146.075C64.278 145.711 64.5149 145.258 64.616 144.767C64.717 144.276 64.6781 143.766 64.5037 143.296C64.326 142.783 63.9945 142.336 63.5542 142.018C63.1139 141.7 62.5862 141.525 62.0429 141.517H58.4822C58.2454 141.517 58.0183 141.423 57.8509 141.256C57.6834 141.088 57.5894 140.861 57.5894 140.625V132.61C57.5903 132.374 57.6848 132.148 57.8522 131.981C58.0195 131.815 58.2461 131.721 58.4822 131.721H66.4965C66.7333 131.721 66.9604 131.815 67.1279 131.983C67.2953 132.15 67.3894 132.377 67.3894 132.614V136.175C67.3867 136.7 67.5408 137.215 67.8322 137.653C68.1236 138.091 68.5389 138.431 69.0251 138.632C69.3537 138.775 69.6989 138.846 70.0608 138.846C70.7669 138.836 71.4422 138.555 71.9465 138.06L79.0644 130.939Z" fill="white"/>
<rect x="23.418" y="211.182" width="63" height="63" fill="#FF7D04" stroke="black" stroke-width="2"/>
<path d="M75.2246 225.424C75.2219 224.646 74.9117 223.901 74.3616 223.351C73.8115 222.801 73.0662 222.49 72.2883 222.488L61.2072 222.485C60.6557 222.499 60.1191 222.667 59.6584 222.97C59.1978 223.274 58.8316 223.7 58.6015 224.202C58.3393 224.739 58.2493 225.345 58.3438 225.935C58.4382 226.526 58.7125 227.073 59.1293 227.502L61.8989 230.272C62.0826 230.455 62.186 230.704 62.1866 230.964C62.1871 231.224 62.0847 231.473 61.9017 231.658L55.668 237.891C55.4838 238.076 55.234 238.179 54.9736 238.179C54.7131 238.179 54.4633 238.076 54.2791 237.891L48.0454 231.658C47.8612 231.474 47.7578 231.224 47.7578 230.963C47.7578 230.703 47.8612 230.453 48.0454 230.269L50.815 227.499C51.2316 227.071 51.5061 226.524 51.6011 225.934C51.696 225.344 51.6068 224.739 51.3456 224.202C51.1243 223.663 50.7481 223.201 50.2645 222.876C49.7809 222.55 49.2116 222.376 48.6288 222.374L37.5532 222.377C36.7743 222.379 36.0279 222.689 35.4772 223.24C34.9264 223.79 34.6161 224.537 34.6142 225.316L34.6114 236.391C34.6132 236.974 34.7878 237.543 35.1132 238.027C35.4385 238.511 35.9 238.887 36.4393 239.108C36.9762 239.37 37.5809 239.46 38.1709 239.366C38.7609 239.272 39.3076 238.999 39.7367 238.583L42.509 235.811C42.6935 235.628 42.9429 235.525 43.2027 235.526C43.4625 235.526 43.7115 235.63 43.8952 235.813L50.1261 242.044C50.3103 242.229 50.4137 242.478 50.4137 242.739C50.4137 242.999 50.3103 243.249 50.1261 243.433L43.898 249.661C43.7138 249.846 43.464 249.949 43.2035 249.949C42.943 249.949 42.6932 249.846 42.509 249.661L39.7394 246.892C39.3285 246.482 38.8054 246.203 38.236 246.09C37.6666 245.977 37.0765 246.035 36.5402 246.257C36.0038 246.479 35.5452 246.855 35.2222 247.337C34.8992 247.819 34.7263 248.386 34.7253 248.967L34.7281 260.048C34.7308 260.826 35.041 261.571 35.591 262.121C36.1411 262.671 36.8864 262.982 37.6643 262.984L48.7427 262.984C49.5205 262.979 50.2622 262.67 50.8233 262.126C51.0433 261.87 51.2206 261.58 51.3484 261.268C51.6103 260.731 51.7004 260.126 51.6064 259.536C51.5125 258.946 51.2391 258.399 50.8233 257.97L48.051 255.198C47.8685 255.014 47.7661 254.765 47.7661 254.506C47.7661 254.247 47.8685 253.998 48.051 253.814L54.2846 247.581C54.4691 247.398 54.7185 247.295 54.9783 247.296C55.2381 247.296 55.4871 247.4 55.6708 247.584L61.9017 253.814C62.0859 253.999 62.1893 254.248 62.1893 254.509C62.1893 254.769 62.0859 255.019 61.9017 255.203L59.1321 257.973C58.721 258.38 58.4406 258.9 58.3268 259.467C58.213 260.034 58.2709 260.622 58.4932 261.156C58.7144 261.696 59.0907 262.157 59.5743 262.483C60.0579 262.808 60.6271 262.982 61.21 262.984L72.2883 262.984C73.0672 262.982 73.8136 262.672 74.3644 262.121C74.9151 261.571 75.2254 260.824 75.2274 260.045L75.2274 248.967C75.2138 248.415 75.0457 247.879 74.7422 247.418C74.4387 246.957 74.012 246.591 73.5106 246.361C72.9731 246.1 72.3681 246.011 71.7781 246.106C71.1881 246.201 70.6417 246.475 70.2132 246.892L67.4436 249.661C67.2594 249.846 67.0096 249.949 66.7492 249.949C66.4887 249.949 66.2389 249.846 66.0547 249.661L59.821 243.428C59.6381 243.243 59.5356 242.994 59.5361 242.734C59.5367 242.474 59.6401 242.225 59.8238 242.042L66.0574 235.808C66.2416 235.624 66.4915 235.52 66.7519 235.52C67.0124 235.52 67.2622 235.624 67.4464 235.808L70.216 238.577C70.6229 238.989 71.1431 239.269 71.7102 239.383C72.2773 239.497 72.8655 239.439 73.3995 239.216C73.7662 239.072 74.0903 238.859 74.3718 238.577C74.9132 238.02 75.2196 237.276 75.2274 236.5L75.2246 225.424Z" fill="white"/>
<path d="M115.919 125.537C116.28 125.537 116.638 125.466 116.972 125.327C117.305 125.189 117.608 124.986 117.863 124.731C118.119 124.475 118.321 124.172 118.459 123.839C118.597 123.505 118.668 123.147 118.668 122.786C118.668 122.425 118.597 122.067 118.458 121.734C118.32 121.4 118.117 121.097 117.862 120.842C117.606 120.587 117.303 120.384 116.969 120.246C116.635 120.108 116.278 120.037 115.917 120.037C115.187 120.038 114.488 120.328 113.973 120.844C113.457 121.36 113.168 122.059 113.168 122.789C113.168 123.518 113.458 124.217 113.974 124.733C114.49 125.248 115.19 125.538 115.919 125.537ZM115.919 130.037C115.19 130.037 114.49 130.327 113.974 130.843C113.458 131.359 113.168 132.059 113.168 132.789C113.168 133.518 113.458 134.218 113.974 134.734C114.49 135.25 115.19 135.54 115.919 135.54C116.649 135.54 117.349 135.25 117.865 134.734C118.381 134.218 118.67 133.518 118.67 132.789C118.67 132.059 118.381 131.359 117.865 130.843C117.349 130.327 116.649 130.037 115.919 130.037Z" fill="black"/>
<path d="M113.001 245.7C113.362 245.699 113.72 245.628 114.054 245.49C114.387 245.351 114.69 245.149 114.945 244.893C115.201 244.638 115.403 244.335 115.541 244.001C115.679 243.667 115.75 243.309 115.75 242.948C115.75 242.587 115.679 242.23 115.54 241.896C115.402 241.562 115.199 241.259 114.944 241.004C114.688 240.749 114.385 240.546 114.051 240.408C113.718 240.27 113.36 240.199 112.999 240.2C112.269 240.2 111.57 240.49 111.055 241.006C110.539 241.522 110.25 242.221 110.25 242.951C110.25 243.68 110.54 244.38 111.056 244.895C111.572 245.411 112.272 245.7 113.001 245.7ZM113.001 250.2C112.272 250.2 111.572 250.489 111.056 251.005C110.54 251.521 110.25 252.221 110.25 252.951C110.25 253.681 110.54 254.38 111.056 254.896C111.572 255.412 112.272 255.702 113.001 255.702C113.731 255.702 114.431 255.412 114.947 254.896C115.463 254.38 115.752 253.681 115.752 252.951C115.752 252.221 115.463 251.521 114.947 251.005C114.431 250.489 113.731 250.2 113.001 250.2Z" fill="black"/>
<g filter="url(#filter0_d_8_82)">
<ellipse cx="184.609" cy="127.787" rx="8.65186" ry="10" fill="#46C8FF"/>
</g>
<path d="M199.682 130.186H169.536V136.785L159.609 127.787L169.536 118.787V125.387H199.682V118.787L209.609 127.787L199.682 136.787V130.186Z" fill="#1A1D2F"/>
<g filter="url(#filter1_d_8_82)">
<ellipse cx="268.609" cy="126.725" rx="8.65186" ry="10" transform="rotate(90 268.609 126.725)" fill="#46C8FF"/>
</g>
<path d="M266.21 141.798V111.652H259.611L268.609 101.725L277.609 111.652H271.01V141.798H277.609L268.609 151.725L259.609 141.798H266.21Z" fill="#1A1D2F"/>
<g filter="url(#filter2_d_8_82)">
<ellipse cx="184.609" cy="245.702" rx="8.65187" ry="10" transform="rotate(-45 184.609 245.702)" fill="#FFA646"/>
</g>
<path d="M196.963 236.74L175.647 258.056L180.314 262.723L166.931 263.38L167.587 249.996L172.253 254.663L193.57 233.346L188.903 228.68L202.287 228.024L201.631 241.408L196.963 236.74Z" fill="#1A1D2F"/>
<g filter="url(#filter3_d_8_82)">
<ellipse cx="267.002" cy="244.934" rx="8.65187" ry="10" transform="rotate(-135 267.002 244.934)" fill="#FFA646"/>
</g>
<path d="M258.041 232.579L279.357 253.896L284.023 249.229L284.68 262.611L271.297 261.956L275.963 257.289L254.647 235.973L249.98 240.64L249.325 227.256L262.708 227.912L258.041 232.579Z" fill="#1A1D2F"/>
<path d="M184.281 79.8306C182.731 79.8306 181.397 79.4556 180.281 78.7056C179.164 77.9389 178.306 76.8806 177.706 75.5306C177.106 74.1639 176.806 72.5806 176.806 70.7806C176.806 68.9806 177.106 67.4056 177.706 66.0556C178.306 64.6889 179.164 63.6306 180.281 62.8806C181.397 62.1139 182.731 61.7306 184.281 61.7306C185.831 61.7306 187.156 62.1139 188.256 62.8806C189.372 63.6306 190.222 64.6889 190.806 66.0556C191.406 67.4056 191.706 68.9806 191.706 70.7806C191.706 72.5806 191.406 74.1639 190.806 75.5306C190.222 76.8806 189.372 77.9389 188.256 78.7056C187.156 79.4556 185.831 79.8306 184.281 79.8306ZM184.281 77.6056C185.214 77.6056 186.047 77.3306 186.781 76.7806C187.531 76.2306 188.114 75.4472 188.531 74.4306C188.947 73.4139 189.156 72.1972 189.156 70.7806C189.156 69.3639 188.947 68.1472 188.531 67.1306C188.114 66.1139 187.531 65.3389 186.781 64.8056C186.047 64.2556 185.214 63.9806 184.281 63.9806C183.331 63.9806 182.481 64.2556 181.731 64.8056C180.981 65.3389 180.397 66.1139 179.981 67.1306C179.564 68.1472 179.356 69.3639 179.356 70.7806C179.356 72.1972 179.564 73.4139 179.981 74.4306C180.397 75.4472 180.981 76.2306 181.731 76.7806C182.481 77.3306 183.331 77.6056 184.281 77.6056Z" fill="black"/>
<path d="M268.333 79.5306V64.8556L265.283 65.6306V63.7556L269.258 62.0306H270.883V79.5306H268.333Z" fill="black"/>
<defs>
<filter id="filter0_d_8_82" x="171.957" y="114.787" width="25.3037" height="28" filterUnits="userSpaceOnUse" color-interpolation-filters="sRGB">
<feFlood flood-opacity="0" result="BackgroundImageFix"/>
<feColorMatrix in="SourceAlpha" type="matrix" values="0 0 0 0 0 0 0 0 0 0 0 0 0 0 0 0 0 0 127 0" result="hardAlpha"/>
<feOffset dy="1"/>
<feGaussianBlur stdDeviation="2"/>
<feComposite in2="hardAlpha" operator="out"/>
<feColorMatrix type="matrix" values="0 0 0 0 0 0 0 0 0 0 0 0 0 0 0 0 0 0 0.25 0"/>
<feBlend mode="normal" in2="BackgroundImageFix" result="effect1_dropShadow_8_82"/>
<feBlend mode="normal" in="SourceGraphic" in2="effect1_dropShadow_8_82" result="shape"/>
</filter>
<filter id="filter1_d_8_82" x="254.609" y="115.073" width="28" height="25.3037" filterUnits="userSpaceOnUse" color-interpolation-filters="sRGB">
<feFlood flood-opacity="0" result="BackgroundImageFix"/>
<feColorMatrix in="SourceAlpha" type="matrix" values="0 0 0 0 0 0 0 0 0 0 0 0 0 0 0 0 0 0 127 0" result="hardAlpha"/>
<feOffset dy="1"/>
<feGaussianBlur stdDeviation="2"/>
<feComposite in2="hardAlpha" operator="out"/>
<feColorMatrix type="matrix" values="0 0 0 0 0 0 0 0 0 0 0 0 0 0 0 0 0 0 0.25 0"/>
<feBlend mode="normal" in2="BackgroundImageFix" result="effect1_dropShadow_8_82"/>
<feBlend mode="normal" in="SourceGraphic" in2="effect1_dropShadow_8_82" result="shape"/>
</filter>
<filter id="filter2_d_8_82" x="171.259" y="233.352" width="26.7008" height="26.7009" filterUnits="userSpaceOnUse" color-interpolation-filters="sRGB">
<feFlood flood-opacity="0" result="BackgroundImageFix"/>
<feColorMatrix in="SourceAlpha" type="matrix" values="0 0 0 0 0 0 0 0 0 0 0 0 0 0 0 0 0 0 127 0" result="hardAlpha"/>
<feOffset dy="1"/>
<feGaussianBlur stdDeviation="2"/>
<feComposite in2="hardAlpha" operator="out"/>
<feColorMatrix type="matrix" values="0 0 0 0 0 0 0 0 0 0 0 0 0 0 0 0 0 0 0.25 0"/>
<feBlend mode="normal" in2="BackgroundImageFix" result="effect1_dropShadow_8_82"/>
<feBlend mode="normal" in="SourceGraphic" in2="effect1_dropShadow_8_82" result="shape"/>
</filter>
<filter id="filter3_d_8_82" x="253.652" y="232.583" width="26.7008" height="26.7008" filterUnits="userSpaceOnUse" color-interpolation-filters="sRGB">
<feFlood flood-opacity="0" result="BackgroundImageFix"/>
<feColorMatrix in="SourceAlpha" type="matrix" values="0 0 0 0 0 0 0 0 0 0 0 0 0 0 0 0 0 0 127 0" result="hardAlpha"/>
<feOffset dy="1"/>
<feGaussianBlur stdDeviation="2"/>
<feComposite in2="hardAlpha" operator="out"/>
<feColorMatrix type="matrix" values="0 0 0 0 0 0 0 0 0 0 0 0 0 0 0 0 0 0 0.25 0"/>
<feBlend mode="normal" in2="BackgroundImageFix" result="effect1_dropShadow_8_82"/>
<feBlend mode="normal" in="SourceGraphic" in2="effect1_dropShadow_8_82" result="shape"/>
</filter>
</defs>
</svg>
