<?xml version="1.0" encoding="UTF-8"?>
<!DOCTYPE svg PUBLIC "-//W3C//DTD SVG 1.1//EN" "http://www.w3.org/Graphics/SVG/1.1/DTD/svg11.dtd">
<!-- Creator: CorelDRAW 2017 -->
<svg xmlns="http://www.w3.org/2000/svg" xml:space="preserve" width="4.243in" height="4.243in" version="1.1" style="shape-rendering:geometricPrecision; text-rendering:geometricPrecision; image-rendering:optimizeQuality; fill-rule:evenodd; clip-rule:evenodd"
viewBox="0 0 4243 4243"
 xmlns:xlink="http://www.w3.org/1999/xlink">
 <defs>
  <style type="text/css">
   <![CDATA[
    .str0 {stroke:#042433;stroke-width:20.83;stroke-miterlimit:2.61313}
    .str2 {stroke:#042433;stroke-width:6.94;stroke-miterlimit:2.61313}
    .str1 {stroke:#FF9736;stroke-width:6.94;stroke-miterlimit:2.61313}
    .fil5 {fill:none}
    .fil0 {fill:#F5874F}
    .fil3 {fill:#F58634}
    .fil1 {fill:#9DD3AF}
    .fil4 {fill:#33CCCC}
    .fil6 {fill:#FF9736}
    .fil2 {fill:white}
    .fil7 {fill:#042433;fill-rule:nonzero}
   ]]>
  </style>
   <clipPath id="id0">
    <rect x="7258.35" y="1358.73" width="2269.51" height="2586.05"/>
   </clipPath>
 </defs>
 <g id="Layer_x0020_1">
  <metadata id="CorelCorpID_0Corel-Layer"/>
  <rect class="fil0 str0" x="6705" y="-2854.78" width="2333.33" height="2260.42"/>
  <rect class="fil1 str0" x="6850.83" y="-2719.36" width="2041.67" height="2000"/>
  <polygon class="fil2 str0" points="7121.67,-2469.36 7796.66,-2469.36 7627.92,-2300.6 7871.67,-2056.85 8115.41,-2300.6 7946.67,-2469.36 8621.67,-2469.36 8621.67,-1794.36 8452.91,-1963.1 8209.15,-1719.36 8452.91,-1475.61 8621.67,-1644.35 8621.67,-969.36 7946.67,-969.36 8115.41,-1138.11 7871.67,-1381.86 7627.92,-1138.11 7796.66,-969.36 7121.67,-969.36 7121.67,-1644.35 7290.42,-1475.61 7534.18,-1719.36 7290.42,-1963.1 7121.67,-1794.36 "/>
  <g id="_3062414511696">
   <rect class="fil3 str0" x="1148.35" y="-5638.03" width="2333" height="2260"/>
   <rect class="fil4 str0" x="1293.52" y="-5503.26" width="2042.67" height="1990.46"/>
   <polygon class="fil2 str0" points="1414.85,-4508.02 1819.85,-4913.02 1819.85,-4710.53 2112.36,-4710.53 2112.36,-5003.02 1909.85,-5003.02 2314.85,-5408.03 2719.85,-5003.02 2517.35,-5003.02 2517.35,-4710.53 2809.85,-4710.53 2809.85,-4913.02 3214.85,-4508.02 2809.85,-4103.02 2809.85,-4305.53 2517.35,-4305.53 2517.35,-4013.02 2719.85,-4013.02 2314.85,-3608.02 1909.85,-4013.02 2112.36,-4013.02 2112.36,-4305.53 1819.85,-4305.53 1819.85,-4103.02 "/>
  </g>
  <g style="clip-path:url(#id0)">
   <image x="7272.24" y="1372.62" width="2241.73" height="2558.27" xlink:href="dau_sac_bit_Images\dau_sac_bit_ImgID1.png"/>
  </g>
  <rect class="fil5" x="7272.24" y="1372.62" width="2241.73" height="2558.27"/>
  <g id="_3062414449808">
   <circle class="fil6 str1" cx="-4095.26" cy="-3847.29" r="1100"/>
   <g>
    <path class="fil7 str2" d="M-4262.09 -3647.28l1583.42 0 0 200 1583.42 -400 -1583.42 -400 0 200 -1583.42 0 0 400zm791.7 0m791.71 100m791.7 -100m0 -400m-791.7 -100m-791.71 100m-791.7 200"/>
    <path class="fil7 str2" d="M-3928.43 -3647.28l-1583.41 0 0 200 -1583.42 -400 1583.42 -400 0 200 1583.41 0 0 400zm-791.7 0m-791.71 100m-791.7 -100m0 -400m791.7 -100m791.71 100m791.7 200"/>
   </g>
  </g>
  <g id="_3062414447344">
   <circle class="fil6 str1" cx="11437.49" cy="2368.34" r="1100"/>
   <g>
    <path class="fil7 str2" d="M11637.49 2535.17l0 -1583.42 200 0 -400 -1583.42 -400 1583.42 200 0 0 1583.42 400 0zm0 -791.7m100 -791.71m-100 -791.7m-400 0m-100 791.7m100 791.71m200 791.7"/>
    <path class="fil7 str2" d="M11637.49 2201.51l0 1583.41 200 0 -400 1583.42 -400 -1583.42 200 0 0 -1583.41 400 0zm0 791.7m100 791.71m-100 791.7m-400 0m-100 -791.7m100 -791.71m200 -791.7"/>
   </g>
  </g>
  <g id="_3062414447312">
   <circle class="fil6 str1" cx="2121.5" cy="2121.5" r="1100"/>
   <g>
    <path class="fil7 str2" d="M2144.96 2380.89l1119.64 -1119.64 141.42 141.42 836.8 -1402.48 -1402.48 836.8 141.42 141.43 -1119.64 1119.64 282.85 282.85zm559.82 -559.82m630.53 -489.11m489.11 -630.54m-282.84 -282.84m-630.53 489.11m-489.11 630.53m-418.4 701.24"/>
    <path class="fil7 str2" d="M2380.89 2144.96l-1119.65 1119.64 141.42 141.42 -1402.49 836.8 836.8 -1402.49 141.42 141.43 1119.65 -1119.65 282.85 282.85zm-559.82 559.82m-489.12 630.54m-630.53 489.11m-282.85 -282.84m489.11 -630.53m630.54 -489.11m701.24 -418.4"/>
   </g>
  </g>
  <g id="_3062414447632">
   <circle class="fil6 str1" cx="-11747.35" cy="3575.12" r="1100"/>
   <g>
    <path class="fil7 str2" d="M-12006.75 3598.57l1119.65 1119.65 -141.42 141.42 1402.49 836.8 -836.8 -1402.49 -141.42 141.42 -1119.65 -1119.64 -282.85 282.84zm559.82 559.82m489.11 630.54m630.54 489.11m282.84 -282.84m-489.11 -630.53m-630.54 -489.11m-701.24 -418.4"/>
    <path class="fil7 str2" d="M-11770.81 3834.51l-1119.64 -1119.64 -141.42 141.42 -836.8 -1402.49 1402.49 836.8 -141.42 141.42 1119.64 1119.64 -282.85 282.85zm-559.82 -559.82m-630.53 -489.11m-489.11 -630.53m282.84 -282.84m630.53 489.11m489.11 630.54m418.4 701.24"/>
   </g>
  </g>
 </g>
</svg>
