<?xml version="1.0" encoding="UTF-8"?>
<!DOCTYPE svg PUBLIC "-//W3C//DTD SVG 1.1//EN" "http://www.w3.org/Graphics/SVG/1.1/DTD/svg11.dtd">
<!-- Creator: CorelDRAW 2017 -->
<svg xmlns="http://www.w3.org/2000/svg" xml:space="preserve" width="2.696in" height="3.407in" version="1.1" style="shape-rendering:geometricPrecision; text-rendering:geometricPrecision; image-rendering:optimizeQuality; fill-rule:evenodd; clip-rule:evenodd"
viewBox="0 0 2696 3407"
 xmlns:xlink="http://www.w3.org/1999/xlink">
 <defs>
  <style type="text/css">
   <![CDATA[
    .str0 {stroke:#042433;stroke-width:20.83;stroke-miterlimit:2.61313}
    .str2 {stroke:#042433;stroke-width:6.94;stroke-miterlimit:2.61313}
    .str1 {stroke:#FF9736;stroke-width:6.94;stroke-miterlimit:2.61313}
    .fil5 {fill:none}
    .fil9 {fill:#FEFEFE}
    .fil0 {fill:#F5874F}
    .fil3 {fill:#F58634}
    .fil10 {fill:#EAE9E6}
    .fil1 {fill:#9DD3AF}
    .fil8 {fill:#292929}
    .fil4 {fill:#33CCCC}
    .fil6 {fill:#FF9736}
    .fil2 {fill:white}
    .fil7 {fill:#042433;fill-rule:nonzero}
   ]]>
  </style>
   <clipPath id="id0">
    <rect x="6484.85" y="940.73" width="2269.51" height="2586.05"/>
   </clipPath>
   <clipPath id="id1">
    <rect x="-4478.48" y="2338.15" width="3413.33" height="3413.33"/>
   </clipPath>
 </defs>
 <g id="Layer_x0020_1">
  <metadata id="CorelCorpID_0Corel-Layer"/>
  <rect class="fil0 str0" x="5931.5" y="-3272.78" width="2333.33" height="2260.42"/>
  <rect class="fil1 str0" x="6077.33" y="-3137.36" width="2041.67" height="2000"/>
  <polygon class="fil2 str0" points="6348.17,-2887.36 7023.16,-2887.36 6854.42,-2718.6 7098.17,-2474.85 7341.91,-2718.6 7173.17,-2887.36 7848.17,-2887.36 7848.17,-2212.36 7679.41,-2381.1 7435.65,-2137.36 7679.41,-1893.61 7848.17,-2062.35 7848.17,-1387.36 7173.17,-1387.36 7341.91,-1556.11 7098.17,-1799.86 6854.42,-1556.11 7023.16,-1387.36 6348.17,-1387.36 6348.17,-2062.35 6516.92,-1893.61 6760.68,-2137.36 6516.92,-2381.1 6348.17,-2212.36 "/>
  <g id="_3062414511696">
   <rect class="fil3 str0" x="374.85" y="-6056.03" width="2333" height="2260"/>
   <rect class="fil4 str0" x="520.02" y="-5921.26" width="2042.67" height="1990.46"/>
   <polygon class="fil2 str0" points="641.35,-4926.02 1046.35,-5331.02 1046.35,-5128.53 1338.86,-5128.53 1338.86,-5421.02 1136.35,-5421.02 1541.35,-5826.03 1946.35,-5421.02 1743.85,-5421.02 1743.85,-5128.53 2036.35,-5128.53 2036.35,-5331.02 2441.35,-4926.02 2036.35,-4521.02 2036.35,-4723.53 1743.85,-4723.53 1743.85,-4431.02 1946.35,-4431.02 1541.35,-4026.02 1136.35,-4431.02 1338.86,-4431.02 1338.86,-4723.53 1046.35,-4723.53 1046.35,-4521.02 "/>
  </g>
  <g style="clip-path:url(#id0)">
   <image x="6498.74" y="954.62" width="2241.73" height="2558.27" xlink:href="Eve_Images\Eve_ImgID1.png"/>
  </g>
  <rect class="fil5" x="6498.74" y="954.62" width="2241.73" height="2558.27"/>
  <g id="_3062414449808">
   <circle class="fil6 str1" cx="-4868.76" cy="-4265.29" r="1100"/>
   <g>
    <path class="fil7 str2" d="M-5035.59 -4065.28l1583.42 0 0 200 1583.42 -400 -1583.42 -400 0 200 -1583.42 0 0 400zm791.7 0m791.71 100m791.7 -100m0 -400m-791.7 -100m-791.71 100m-791.7 200"/>
    <path class="fil7 str2" d="M-4701.93 -4065.28l-1583.41 0 0 200 -1583.42 -400 1583.42 -400 0 200 1583.41 0 0 400zm-791.7 0m-791.71 100m-791.7 -100m0 -400m791.7 -100m791.71 100m791.7 200"/>
   </g>
  </g>
  <g id="_3062414447344">
   <circle class="fil6 str1" cx="10663.99" cy="1950.34" r="1100"/>
   <g>
    <path class="fil7 str2" d="M10863.99 2117.17l0 -1583.42 200 0 -400 -1583.42 -400 1583.42 200 0 0 1583.42 400 0zm0 -791.7m100 -791.71m-100 -791.7m-400 0m-100 791.7m100 791.71m200 791.7"/>
    <path class="fil7 str2" d="M10863.99 1783.51l0 1583.41 200 0 -400 1583.42 -400 -1583.42 200 0 0 -1583.41 400 0zm0 791.7m100 791.71m-100 791.7m-400 0m-100 -791.7m100 -791.71m200 -791.7"/>
   </g>
  </g>
  <g id="_3062414447312">
   <circle class="fil6 str1" cx="-8026.25" cy="1232.07" r="1100"/>
   <g>
    <path class="fil7 str2" d="M-8002.8 1491.46l1119.64 -1119.64 141.42 141.42 836.8 -1402.48 -1402.48 836.8 141.42 141.43 -1119.64 1119.64 282.85 282.85zm559.82 -559.82m630.53 -489.11m489.11 -630.54m-282.84 -282.84m-630.53 489.11m-489.11 630.53m-418.4 701.24"/>
    <path class="fil7 str2" d="M-7766.86 1255.53l-1119.65 1119.64 141.42 141.42 -1402.49 836.8 836.8 -1402.49 141.42 141.43 1119.65 -1119.65 282.85 282.85zm-559.82 559.82m-489.12 630.54m-630.53 489.11m-282.85 -282.84m489.11 -630.53m630.54 -489.11m701.24 -418.4"/>
   </g>
  </g>
  <g id="_3062414447632">
   <circle class="fil6 str1" cx="-10464.72" cy="-2319.98" r="1100"/>
   <g>
    <path class="fil7 str2" d="M-10724.11 -2296.54l1119.65 1119.65 -141.42 141.42 1402.49 836.8 -836.8 -1402.49 -141.42 141.42 -1119.65 -1119.64 -282.85 282.84zm559.82 559.82m489.11 630.54m630.54 489.11m282.84 -282.84m-489.11 -630.53m-630.54 -489.11m-701.24 -418.4"/>
    <path class="fil7 str2" d="M-10488.18 -2060.6l-1119.64 -1119.64 -141.42 141.42 -836.8 -1402.49 1402.49 836.8 -141.42 141.42 1119.64 1119.64 -282.85 282.85zm-559.82 -559.82m-630.53 -489.11m-489.11 -630.53m282.84 -282.84m630.53 489.11m489.11 630.54m418.4 701.24"/>
   </g>
  </g>
  <g style="clip-path:url(#id1)">
   <image x="-4478.48" y="2338.15" width="3413.33" height="3413.33" xlink:href="Eve_Images\Eve_ImgID2.png"/>
  </g>
  <g id="_3062496889536">
   <path class="fil8" d="M985.29 2086.83c42,-25.36 94.44,55.37 34.09,81.49 -26.89,11.64 -46.66,-3.73 -56.47,-23.95 -8.8,-18.15 -3.62,-35.23 10.16,-48.07 2.61,-2.43 9.76,-7.99 12.22,-9.47zm-78.79 -278c57.31,-23.35 83.16,54.39 36.5,76.85 -24.81,11.94 -46.71,-2.24 -55.8,-19.06 -12.87,-23.81 -1.25,-49.43 19.3,-57.8zm38.11 -265.23c53.86,-24.21 84.43,57.92 33.62,77.97 -51.57,20.35 -89.28,-52.95 -33.62,-77.97zm133.75 -239.51c24.73,-7.22 45.21,9.8 50.72,30.9 6.35,24.35 -12.9,48.96 -29.56,53.31 -53.94,14.07 -83.67,-65.96 -21.16,-84.2zm827.47 -412.77c-18.32,-31.74 9.92,-29.34 41.15,-32.64 49.53,-5.23 202.23,-37.07 225.01,-29.55l-0.69 25.15 -200.92 29.33c-24.06,1.98 -37.92,11.02 -64.56,7.71zm-1455.09 2016.46c34.44,3.94 60.23,11.69 92.41,15.83 14.95,1.92 35.6,2.39 52.52,5.23 163,27.41 377,18.64 541.63,13.73 70.24,-2.09 133.85,-14.21 203.25,-18.31 67.74,-4 134.28,-18.4 202.96,-26.37 26.53,-3.08 62.11,-15.76 88.63,-21.59l89.2 -22.81c0.08,-14.47 -124.08,-444.53 -126.07,-451.59 -10.36,-36.73 -18.3,-74.77 -31.92,-111.37 -6.57,-17.66 -382.27,-449.4 -384.37,-474.04 -1.96,-23.06 131.87,-259.47 145.56,-282.09 17.03,-28.12 99.13,-165.49 122.69,-162.89 10.62,4.91 15.94,9.71 16.31,25.32 -11.58,19.58 -47.25,34.29 -50.78,60 3.22,14.23 70.02,41.95 88.24,52.47l4.14 2.4c0.64,0.33 1.49,0.79 2.15,1.1 3.88,1.86 1.9,0.98 6.89,2.83 86,31.81 170.3,59.92 266.29,52 113.2,-9.33 187.89,-61.8 246.93,-150.65 34.17,-51.42 47.95,-108.59 63.11,-170.8 10.89,-44.69 12.8,-89.41 15.62,-140.99 23.69,-7.26 103.4,14.55 134.96,12.02 7.04,-59.47 0.86,-226.98 1.11,-307.04l-0.58 -33.19c-0.16,-1.09 -1.33,-4.16 -1.46,-5.89 -0.11,-1.55 -0.5,-1.94 -0.9,-2.85 -0.87,-0.28 -2.06,-0.46 -2.68,-0.54l-28.89 2.02c-9.54,1.47 -22.33,3.18 -31.81,4.84 -21,3.69 -41.65,6.2 -63.93,9.29 -126.79,17.6 -70.66,5.61 -93.43,47.39 -14.56,1.19 -37.91,-9.48 -51.03,-15.27 -27.23,-12.02 -28.06,-6.05 -54.85,-1.88 -44.26,6.89 -78.39,5.77 -114.32,19.99 -7.47,67.03 -51.31,128.13 -53.06,149.14 -1.53,18.38 -3.86,51.01 5.07,63.61 9.24,7.61 101.28,11.16 121.98,20 1.07,17.41 -5,58.52 -6.96,79.56 -4.22,45.33 -12.46,94.53 -34.46,134.63 -39.11,71.29 -114.45,55.69 -179.87,31.33 -24.22,-9.02 -98.69,-40.36 -109.86,-55.52 4.1,-15.99 29.7,-33.77 42.93,-46.55 0.5,-0.48 1.21,-1.18 1.71,-1.66 9.77,-9.42 18.54,-15.48 17.07,-31.79 -9.5,-3.51 -23.57,-4.31 -34.54,-8.12 -52.91,-18.37 -107.41,-31.27 -161,-48.2l-64.32 -19.44c-22.44,-4.67 -37.69,22.29 -48.37,33.15 -14.59,14.84 -26.64,27.28 -41.25,42.09 -91.33,92.59 -67.06,92.82 -117.59,63.85 0.06,-20.88 32.3,-106.84 39.32,-133.49 16.91,-64.25 47.53,-69.43 -4.34,-119.98 -15.91,-15.5 -157.23,-164.67 -170.22,-169.16 -10.35,13.84 -11.41,34.91 -23.33,47.2 -15.4,-2.13 -27.02,-10.08 -40.95,-13.76 -129.77,-34.28 -255.43,-8.88 -366.88,61.65 -98.53,62.35 -192.37,152.05 -261.78,244.43 -64.48,85.81 -152.29,213.78 -192.75,314.88l-49 103.37c-6.02,12 -9.17,23.04 -14.47,35.47l-27.45 73.19c-21.81,55.09 -40.49,104.49 -1.56,157.57 29.11,39.7 83.61,64.6 145.13,38.7 50.72,-21.35 64.47,-66.67 82.04,-121.72 8.65,-27.12 20.15,-45.22 29.66,-72.83 24.66,-71.52 64.47,-139.79 98.76,-204.9 22.69,-43.09 139.29,-225.36 167.66,-232.8 -0.54,6.44 -27.94,81.08 -33.13,94.39 -21.23,54.49 -119.02,440.83 -130.94,516.88l-10.72 55.99c-2.74,12.69 -10.51,33.51 -12.22,48.48 -9.32,81.35 12.91,153.38 21.69,232.48 10.87,97.96 17.26,142.95 -0.83,239.91 -5.9,31.61 -16.99,68.23 -30.87,95.93 -43.86,87.52 -93.55,161.73 -159.09,230.44 -13.8,14.47 -57.04,50.2 -59.45,68.15 58.15,21.79 202.32,58.07 271.73,68.7 18.13,2.78 33.29,6.64 48.97,8.44z"/>
   <polygon class="fil8" points="2326.33,3406.83 2696.23,3406.83 2696.24,0.17 2326.33,0.17 "/>
   <path class="fil8" d="M1466.07 937.89c12.51,12.6 39.79,47.36 35.79,70.15 -11.32,5.18 -30.44,7.34 -41.31,3.16 -12.45,-29.87 -10.3,-28.79 -31.87,-49.24 -61.69,-58.48 -154.94,-55.67 -185.81,-64.04 0.18,-27.7 -6.92,-39.3 20.74,-38.36 34.78,1.19 105.09,16.95 136.07,32.12 24.48,11.98 46.09,25.77 66.39,46.22zm-135.53 131.07c17.03,-0.83 64.21,16.87 80.3,21.76 29.1,8.84 53.13,22.43 88.95,15.32 106.56,-21.14 191.9,-88.9 237.86,-182.52 26.74,-54.47 35.69,-107.39 33.22,-180.64l-149.48 -60.74c-74.36,-33.02 -247.61,-90.22 -302.23,-117.44l-75.87 -30.27c-21.15,-7.58 -28.04,-14.68 -62.37,29.21 -33.38,42.69 -51.49,83.19 -69.16,140.76 -16.25,52.94 -3.23,146.03 14.26,189.63 11.54,28.78 96.84,99.68 100.97,109.09 10.14,23.06 -31.09,15.45 39.27,61.19 50.65,32.92 49.71,20.39 64.3,4.65z"/>
   <path class="fil8" d="M1235.29 444.91c-29.37,0.78 -176.92,-75.72 -211.17,-74.76 -5.99,15.33 -15.35,25.52 -15.44,43.34 13.58,9.62 43.65,19.07 60,25.3 12.94,4.93 17.32,8.23 30.58,12.15 13.2,3.91 21.93,7.11 33.52,11.12 20.98,7.27 39.34,16.04 61.36,24.46l187.83 72.35c18.7,11.18 129.23,50.35 157.42,59.83l92.26 37.11c57.8,19.86 355.44,140.52 378.9,143.27 0.67,-0.83 1.43,-3.29 1.73,-2.7 0.29,0.56 1.28,-1.97 1.66,-2.59l2.87 -4.69c7.09,-11.97 12.88,-21.83 12.67,-34.91l-79.66 -32.98c-3.59,-1.49 -1.38,-0.7 -6.86,-2.9l-110.45 -43.22c-3.82,-2.61 -3.88,-2.77 -6.36,-4.95 4.14,-28.82 42.02,-144.03 52.18,-178.69 7.9,-26.93 -16.61,-45.82 -41.74,-70.68 -18.76,-18.56 -38.25,-34.54 -63.87,-53.01 -94.72,-68.31 -221.09,-116.77 -362.17,-116.75 -21.8,0 -76.12,0.1 -88.08,14.61l-87.17 179.26z"/>
   <path class="fil8" d="M918.21 2996.06c-107.65,-5.5 -250.48,-9.91 -355.39,-24.63 -66.33,-9.31 -79.83,-20.33 -100.53,7.18 -31.18,41.43 -89.27,101.53 -109.99,143.59 -32.88,66.75 -15.59,148.43 23.03,196.49 29.45,36.66 107.26,86.77 177.61,66.92 72.64,-20.5 98.05,-45.04 143.48,-106.52 35.03,-47.41 78.55,-93.07 113.85,-139.34l84.72 -105.36c9.39,-12.09 22.53,-19.87 23.21,-38.33z"/>
   <path class="fil8" d="M1237.15 2982.88c-1.94,4.11 -109.32,7.74 -120.54,9.8 -2.37,37.33 3.41,106.96 6.63,147.18 3.98,49.8 -0.26,92.33 18.76,135.31 13.6,30.74 40.93,65.65 71.24,82.16 17.44,9.5 25.63,18.22 51.23,24.41 99.59,24.09 208.49,-42.4 227.3,-141.14 10.26,-53.85 1.27,-85.19 -0.12,-140.42 -1.24,-49.21 -3.44,-95.63 -7.57,-143.72 -18.63,-2.94 -194.76,22.48 -246.87,24.6l-0.06 1.81z"/>
   <path class="fil9" d="M1242.87 897.92c30.87,8.37 124.12,5.56 185.81,64.04 21.57,20.45 19.42,19.37 31.87,49.24 10.88,4.18 30,2.02 41.31,-3.16 4,-22.79 -23.28,-57.54 -35.79,-70.15 -20.29,-20.45 -41.91,-34.24 -66.39,-46.22 -30.98,-15.17 -101.3,-30.93 -136.07,-32.12 -27.67,-0.94 -20.56,10.66 -20.74,38.36z"/>
   <path class="fil8" d="M1158.86 1235.46c14.02,-2.44 14.56,-4.28 23.17,-13.96l44.46 -45.38c11.89,-11.2 55.47,-52.27 57.6,-65.96 -13.62,-10.15 -25.48,-14.35 -38.33,-22.25 -10.44,-6.42 -20.56,-20.93 -37.24,-19.83 -9.78,23.78 -15.09,54.59 -25.43,80.99 -5.31,13.57 -7.29,28.53 -11.96,42.66 -4.44,13.45 -9.93,25.82 -12.28,43.73z"/>
   <path class="fil10" d="M1905.83 891.33c26.64,3.31 40.5,-5.73 64.56,-7.71l200.92 -29.33 0.69 -25.15c-22.78,-7.52 -175.48,24.31 -225.01,29.55 -31.24,3.3 -59.48,0.9 -41.15,32.64z"/>
   <path class="fil9" d="M985.29 2086.83c-2.46,1.48 -9.62,7.05 -12.22,9.47 -13.78,12.83 -18.96,29.92 -10.16,48.07 9.81,20.22 29.58,35.59 56.47,23.95 60.36,-26.13 7.91,-106.85 -34.09,-81.49z"/>
   <path class="fil9" d="M1078.36 1304.1c-62.51,18.25 -32.78,98.27 21.16,84.2 16.66,-4.34 35.91,-28.96 29.56,-53.31 -5.51,-21.09 -25.99,-38.12 -50.72,-30.9z"/>
   <path class="fil9" d="M944.61 1543.61c-55.66,25.02 -17.94,98.33 33.62,77.97 50.81,-20.06 20.24,-102.18 -33.62,-77.97z"/>
   <path class="fil9" d="M906.5 1808.84c-20.55,8.37 -32.17,33.99 -19.3,57.8 9.09,16.82 30.99,31 55.8,19.06 46.66,-22.46 20.81,-100.2 -36.5,-76.85z"/>
  </g>
 </g>
</svg>
