<?xml version="1.0" encoding="UTF-8"?>
<!DOCTYPE svg PUBLIC "-//W3C//DTD SVG 1.1//EN" "http://www.w3.org/Graphics/SVG/1.1/DTD/svg11.dtd">
<!-- Creator: CorelDRAW 2017 -->
<svg xmlns="http://www.w3.org/2000/svg" xml:space="preserve" width="6in" height="2.2in" version="1.1" style="shape-rendering:geometricPrecision; text-rendering:geometricPrecision; image-rendering:optimizeQuality; fill-rule:evenodd; clip-rule:evenodd"
viewBox="0 0 6000 2200"
 xmlns:xlink="http://www.w3.org/1999/xlink">
 <defs>
  <style type="text/css">
   <![CDATA[
    .str0 {stroke:#042433;stroke-width:20.83;stroke-miterlimit:2.61313}
    .str2 {stroke:#042433;stroke-width:6.94;stroke-miterlimit:2.61313}
    .str1 {stroke:#FF9736;stroke-width:6.94;stroke-miterlimit:2.61313}
    .fil5 {fill:none}
    .fil0 {fill:#F5874F}
    .fil3 {fill:#F58634}
    .fil1 {fill:#9DD3AF}
    .fil4 {fill:#33CCCC}
    .fil6 {fill:#FF9736}
    .fil2 {fill:white}
    .fil7 {fill:#042433;fill-rule:nonzero}
   ]]>
  </style>
   <clipPath id="id0">
    <rect x="8136.85" y="337.23" width="2269.51" height="2586.05"/>
   </clipPath>
 </defs>
 <g id="Layer_x0020_1">
  <metadata id="CorelCorpID_0Corel-Layer"/>
  <rect class="fil0 str0" x="7583.5" y="-3876.28" width="2333.33" height="2260.42"/>
  <rect class="fil1 str0" x="7729.33" y="-3740.86" width="2041.67" height="2000"/>
  <polygon class="fil2 str0" points="8000.17,-3490.86 8675.16,-3490.86 8506.42,-3322.1 8750.17,-3078.35 8993.91,-3322.1 8825.17,-3490.86 9500.17,-3490.86 9500.17,-2815.86 9331.41,-2984.6 9087.65,-2740.86 9331.41,-2497.11 9500.17,-2665.85 9500.17,-1990.86 8825.17,-1990.86 8993.91,-2159.61 8750.17,-2403.36 8506.42,-2159.61 8675.16,-1990.86 8000.17,-1990.86 8000.17,-2665.85 8168.92,-2497.11 8412.68,-2740.86 8168.92,-2984.6 8000.17,-2815.86 "/>
  <g id="_3062414511696">
   <rect class="fil3 str0" x="2026.85" y="-6659.53" width="2333" height="2260"/>
   <rect class="fil4 str0" x="2172.02" y="-6524.76" width="2042.67" height="1990.46"/>
   <polygon class="fil2 str0" points="2293.35,-5529.52 2698.35,-5934.52 2698.35,-5732.03 2990.86,-5732.03 2990.86,-6024.52 2788.35,-6024.52 3193.35,-6429.53 3598.35,-6024.52 3395.85,-6024.52 3395.85,-5732.03 3688.35,-5732.03 3688.35,-5934.52 4093.35,-5529.52 3688.35,-5124.52 3688.35,-5327.03 3395.85,-5327.03 3395.85,-5034.52 3598.35,-5034.52 3193.35,-4629.52 2788.35,-5034.52 2990.86,-5034.52 2990.86,-5327.03 2698.35,-5327.03 2698.35,-5124.52 "/>
  </g>
  <g style="clip-path:url(#id0)">
   <image x="8150.74" y="351.12" width="2241.73" height="2558.27" xlink:href="horizontal_bit_Images\horizontal_bit_ImgID1.png"/>
  </g>
  <rect class="fil5" x="8150.74" y="351.12" width="2241.73" height="2558.27"/>
  <g id="_3062414449808">
   <circle class="fil6 str1" cx="3000" cy="1100" r="1100"/>
   <g>
    <path class="fil7 str2" d="M2833.17 1300l1583.42 0 0 200 1583.42 -400 -1583.42 -400 0 200 -1583.42 0 0 400zm791.7 0m791.71 100m791.7 -100m0 -400m-791.7 -100m-791.71 100m-791.7 200"/>
    <path class="fil7 str2" d="M3166.83 1300l-1583.41 0 0 200 -1583.42 -400 1583.42 -400 0 200 1583.41 0 0 400zm-791.7 0m-791.71 100m-791.7 -100m0 -400m791.7 -100m791.71 100m791.7 200"/>
   </g>
  </g>
  <g id="_3062414447344">
   <circle class="fil6 str1" cx="-7321.64" cy="2423.36" r="1100"/>
   <g>
    <path class="fil7 str2" d="M-7121.64 2590.19l0 -1583.42 200 0 -400 -1583.42 -400 1583.42 200 0 0 1583.42 400 0zm0 -791.7m100 -791.71m-100 -791.7m-400 0m-100 791.7m100 791.71m200 791.7"/>
    <path class="fil7 str2" d="M-7121.64 2256.53l0 1583.41 200 0 -400 1583.42 -400 -1583.42 200 0 0 -1583.41 400 0zm0 791.7m100 791.71m-100 791.7m-400 0m-100 -791.7m100 -791.71m200 -791.7"/>
   </g>
  </g>
  <g id="_3062414447312">
   <circle class="fil6 str1" cx="-2991.35" cy="1359.7" r="1100"/>
   <g>
    <path class="fil7 str2" d="M-2967.9 1619.09l1119.64 -1119.64 141.42 141.42 836.8 -1402.48 -1402.48 836.8 141.42 141.43 -1119.64 1119.64 282.85 282.85zm559.82 -559.82m630.53 -489.11m489.11 -630.54m-282.84 -282.84m-630.53 489.11m-489.11 630.53m-418.4 701.24"/>
    <path class="fil7 str2" d="M-2731.96 1383.16l-1119.65 1119.64 141.42 141.42 -1402.49 836.8 836.8 -1402.49 141.42 141.43 1119.65 -1119.65 282.85 282.85zm-559.82 559.82m-489.12 630.54m-630.53 489.11m-282.85 -282.84m489.11 -630.53m630.54 -489.11m701.24 -418.4"/>
   </g>
  </g>
  <g id="_3062414447632">
   <circle class="fil6 str1" cx="-10868.85" cy="2553.62" r="1100"/>
   <g>
    <path class="fil7 str2" d="M-11128.25 2577.07l1119.65 1119.65 -141.42 141.42 1402.49 836.8 -836.8 -1402.49 -141.42 141.42 -1119.65 -1119.64 -282.85 282.84zm559.82 559.82m489.11 630.54m630.54 489.11m282.84 -282.84m-489.11 -630.53m-630.54 -489.11m-701.24 -418.4"/>
    <path class="fil7 str2" d="M-10892.31 2813.01l-1119.64 -1119.64 -141.42 141.42 -836.8 -1402.49 1402.49 836.8 -141.42 141.42 1119.64 1119.64 -282.85 282.85zm-559.82 -559.82m-630.53 -489.11m-489.11 -630.53m282.84 -282.84m630.53 489.11m489.11 630.54m418.4 701.24"/>
   </g>
  </g>
 </g>
</svg>
