<?xml version="1.0" encoding="UTF-8"?>
<!DOCTYPE svg PUBLIC "-//W3C//DTD SVG 1.1//EN" "http://www.w3.org/Graphics/SVG/1.1/DTD/svg11.dtd">
<!-- Creator: CorelDRAW 2017 -->
<svg xmlns="http://www.w3.org/2000/svg" xml:space="preserve" width="1.129in" height="1.023in" version="1.1" style="shape-rendering:geometricPrecision; text-rendering:geometricPrecision; image-rendering:optimizeQuality; fill-rule:evenodd; clip-rule:evenodd"
viewBox="0 0 1129 1023"
 xmlns:xlink="http://www.w3.org/1999/xlink">
 <defs>
  <style type="text/css">
   <![CDATA[
    .fil8 {fill:black}
    .fil2 {fill:#1DA7FF}
    .fil3 {fill:#23235F}
    .fil6 {fill:#2B3B47}
    .fil1 {fill:#5051F9}
    .fil4 {fill:#5453F6}
    .fil7 {fill:#D32A2A}
    .fil0 {fill:#FBFAFF}
    .fil5 {fill:#FF473E}
   ]]>
  </style>
 </defs>
 <g id="Layer_x0020_1">
  <metadata id="CorelCorpID_0Corel-Layer"/>
  <rect class="fil0" x="-1524.94" y="-1758.4" width="1395.83" height="10666.67"/>
  <g id="_2742431147536">
   <path class="fil1" d="M477.66 -1359.51l0 289.69c0,7.6 4.14,14.6 10.8,18.26l130.65 71.75 0 -56.5 54.41 0 0 -74.15 76.17 0 0 -105.93 -108.81 0 0 -109.46 108.81 0 0 -77.68 87.05 0 0 -52.97 47.15 0 -111.75 -62.17c-9.45,-5.26 -20.94,-5.26 -30.39,0l-253.38 140.96c-6.61,3.68 -10.7,10.65 -10.7,18.2z"/>
   <path class="fil2" d="M1022.33 -1374.28l-127.57 -75.17 0 52.96 -58.03 0 0 77.69 -79.8 0 0 102.4 108.81 0 0 105.93 -108.81 0 0 81.21 -79.8 0 0 56.5 -47.15 0 111.48 62.02c9.59,5.34 21.29,5.25 30.8,-0.24l249.89 -144.05c6.45,-3.72 10.43,-10.6 10.43,-18.05l0 -283.26c0,-7.37 -3.9,-14.2 -10.26,-17.95z"/>
   <path class="fil3" d="M583.89 -736.78l0 -116.67 47.83 0c8.11,0 14.94,1.28 20.5,3.83 5.56,2.56 9.78,6.11 12.67,10.67 2.89,4.44 4.33,9.61 4.33,15.5 0,5.89 -1.28,10.83 -3.83,14.83 -2.56,4 -5.94,7.11 -10.17,9.33 -4.22,2.11 -8.78,3.33 -13.67,3.67l2.67 -1.83c5.33,0.22 10.06,1.67 14.17,4.33 4.11,2.56 7.39,6 9.83,10.33 2.44,4.33 3.67,9.06 3.67,14.17 0,6.22 -1.5,11.72 -4.5,16.5 -3,4.78 -7.39,8.56 -13.17,11.33 -5.67,2.67 -12.61,4 -20.83,4l-49.5 0zm22.5 -18.33l23.5 0c6,0 10.67,-1.39 14,-4.17 3.44,-2.78 5.17,-6.78 5.17,-12 0,-5.22 -1.78,-9.28 -5.33,-12.17 -3.44,-3 -8.17,-4.5 -14.17,-4.5l-23.17 0 0 32.83zm0 -49.67l21.83 0c5.78,0 10.22,-1.33 13.33,-4 3.11,-2.67 4.67,-6.44 4.67,-11.33 0,-4.78 -1.56,-8.5 -4.67,-11.17 -3.11,-2.78 -7.67,-4.17 -13.67,-4.17l-21.5 0 0 30.67zm83.62 68l0 -116.67 47.83 0c8.11,0 14.94,1.28 20.5,3.83 5.56,2.56 9.78,6.11 12.67,10.67 2.89,4.44 4.33,9.61 4.33,15.5 0,5.89 -1.28,10.83 -3.83,14.83 -2.56,4 -5.94,7.11 -10.17,9.33 -4.22,2.11 -8.78,3.33 -13.67,3.67l2.67 -1.83c5.33,0.22 10.06,1.67 14.17,4.33 4.11,2.56 7.39,6 9.83,10.33 2.44,4.33 3.67,9.06 3.67,14.17 0,6.22 -1.5,11.72 -4.5,16.5 -3,4.78 -7.39,8.56 -13.17,11.33 -5.67,2.67 -12.61,4 -20.83,4l-49.5 0zm22.5 -18.33l23.5 0c6,0 10.67,-1.39 14,-4.17 3.44,-2.78 5.17,-6.78 5.17,-12 0,-5.22 -1.78,-9.28 -5.33,-12.17 -3.44,-3 -8.17,-4.5 -14.17,-4.5l-23.17 0 0 32.83zm0 -49.67l21.83 0c5.78,0 10.22,-1.33 13.33,-4 3.11,-2.67 4.67,-6.44 4.67,-11.33 0,-4.78 -1.56,-8.5 -4.67,-11.17 -3.11,-2.78 -7.67,-4.17 -13.67,-4.17l-21.5 0 0 30.67zm124.95 70c-8,0 -15.22,-1.44 -21.67,-4.33 -6.44,-2.89 -11.61,-6.94 -15.5,-12.17 -3.78,-5.22 -5.67,-11.28 -5.67,-18.17 0,-4.78 0.78,-9.11 2.33,-13 1.67,-3.89 3.94,-7.33 6.83,-10.33 3,-3 6.5,-5.28 10.5,-6.83 -5.11,-2.33 -9.17,-5.67 -12.17,-10 -3,-4.33 -4.5,-9.22 -4.5,-14.67 0,-5.44 1.5,-10.56 4.5,-15.33 3,-4.78 7.44,-8.61 13.33,-11.5 5.89,-2.89 13.22,-4.33 22,-4.33 8.78,0 16.11,1.44 22,4.33 6,2.89 10.44,6.72 13.33,11.5 3,4.78 4.5,9.89 4.5,15.33 0,5.33 -1.56,10.22 -4.67,14.67 -3,4.33 -7,7.67 -12,10 4,1.67 7.44,4 10.33,7 3,2.89 5.28,6.28 6.83,10.17 1.67,3.89 2.5,8.22 2.5,13 0,6.89 -1.94,12.94 -5.83,18.17 -3.78,5.22 -8.89,9.28 -15.33,12.17 -6.44,2.89 -13.67,4.33 -21.67,4.33zm0 -18.83c6.89,0 12.06,-1.67 15.5,-5 3.56,-3.33 5.33,-7.56 5.33,-12.67 0,-5.67 -1.83,-10.11 -5.5,-13.33 -3.67,-3.33 -8.78,-5 -15.33,-5 -6.44,0 -11.56,1.67 -15.33,5 -3.67,3.22 -5.5,7.67 -5.5,13.33 0,5.11 1.78,9.33 5.33,12.67 3.56,3.33 8.72,5 15.5,5zm0 -52.5c5.67,0 10.06,-1.44 13.17,-4.33 3.11,-2.89 4.67,-6.61 4.67,-11.17 0,-4.89 -1.56,-8.67 -4.67,-11.33 -3.11,-2.78 -7.5,-4.17 -13.17,-4.17 -5.56,0 -9.89,1.39 -13,4.17 -3.11,2.67 -4.67,6.5 -4.67,11.5 0,4.44 1.56,8.11 4.67,11 3.11,2.89 7.44,4.33 13,4.33zm117.48 69.33l0 -21.17 -57.33 0 0 -17.83 54.33 -77.67 25.33 0 0 76 15.33 0 0 19.5 -15.33 0 0 21.17 -22.33 0zm-33.33 -40.67l34.83 0 0 -51.17 -34.83 51.17zm-518.49 261.42c-8.44,0 -16,-1.45 -22.67,-4.33 -6.67,-2.89 -11.89,-7.11 -15.67,-12.67 -3.78,-5.56 -5.78,-12.28 -6,-20.17l23.83 0c0.11,3.44 1,6.56 2.67,9.34 1.67,2.77 4,5 7,6.67 3,1.56 6.56,2.33 10.67,2.33 3.56,0 6.61,-0.56 9.17,-1.67 2.67,-1.23 4.72,-2.9 6.17,-5 1.44,-2.11 2.17,-4.61 2.17,-7.5 0,-3.33 -0.83,-6.11 -2.5,-8.33 -1.56,-2.22 -3.78,-4.11 -6.67,-5.67 -2.89,-1.67 -6.22,-3.11 -10,-4.33 -3.67,-1.33 -7.56,-2.67 -11.67,-4 -9.11,-3 -16.11,-7 -21,-12 -4.78,-5 -7.17,-11.61 -7.17,-19.83 0,-7 1.67,-13 5,-18 3.44,-5 8.11,-8.83 14,-11.5 6,-2.67 12.89,-4 20.67,-4 7.89,0 14.78,1.39 20.67,4.17 6,2.67 10.72,6.56 14.17,11.67 3.44,5.11 5.28,11.11 5.5,18l-24.17 0c0,-2.56 -0.72,-4.94 -2.17,-7.17 -1.33,-2.33 -3.22,-4.17 -5.67,-5.5 -2.44,-1.44 -5.33,-2.17 -8.67,-2.17 -3,-0.11 -5.67,0.33 -8,1.33 -2.33,1 -4.22,2.5 -5.67,4.5 -1.33,1.89 -2,4.28 -2,7.17 0,2.78 0.67,5.11 2,7 1.33,1.89 3.22,3.56 5.67,5 2.56,1.33 5.44,2.61 8.67,3.83 3.33,1.11 6.94,2.28 10.83,3.5 5.89,2 11.22,4.39 16,7.17 4.89,2.67 8.78,6.17 11.67,10.5 2.89,4.33 4.33,10.06 4.33,17.17 0,6.11 -1.61,11.78 -4.83,17 -3.11,5.22 -7.72,9.44 -13.83,12.67 -6.11,3.22 -13.61,4.83 -22.5,4.83zm60.26 -2l0 -83.67 22.5 0 0 83.67 -22.5 0zm11.33 -95.34c-4.11,0 -7.44,-1.17 -10,-3.5 -2.56,-2.44 -3.83,-5.5 -3.83,-9.17 0,-3.67 1.28,-6.67 3.83,-9 2.56,-2.44 5.89,-3.67 10,-3.67 4.11,0 7.44,1.22 10,3.67 2.67,2.33 4,5.33 4,9 0,3.67 -1.33,6.72 -4,9.17 -2.56,2.33 -5.89,3.5 -10,3.5zm33.74 95.34l0 -83.67 19.83 0 1.83 11.17c2.67,-4.11 6.17,-7.33 10.5,-9.67 4.44,-2.33 9.5,-3.5 15.17,-3.5 4.22,0 8,0.56 11.33,1.67 3.33,1 6.28,2.61 8.83,4.83 2.67,2.11 4.83,4.72 6.5,7.83 3.22,-4.44 7.33,-7.94 12.33,-10.5 5,-2.56 10.44,-3.83 16.33,-3.83 7.33,0 13.44,1.44 18.33,4.33 4.89,2.89 8.61,7.17 11.17,12.83 2.56,5.56 3.83,12.39 3.83,20.5l0 48 -22.33 0 0 -45.84c0,-6.78 -1.33,-11.94 -4,-15.5 -2.67,-3.56 -6.72,-5.33 -12.17,-5.33 -3.67,0 -6.89,0.89 -9.67,2.67 -2.67,1.78 -4.78,4.33 -6.33,7.67 -1.56,3.33 -2.33,7.33 -2.33,12l0 44.34 -22.33 0 0 -45.84c0,-6.78 -1.33,-11.94 -4,-15.5 -2.67,-3.56 -6.83,-5.33 -12.5,-5.33 -3.44,0 -6.56,0.89 -9.33,2.67 -2.67,1.78 -4.78,4.33 -6.33,7.67 -1.44,3.33 -2.17,7.33 -2.17,12l0 44.34 -22.5 0zm188.07 2c-6.78,0 -12.61,-1.4 -17.5,-4.17 -4.78,-2.89 -8.44,-7.11 -11,-12.67 -2.44,-5.56 -3.67,-12.39 -3.67,-20.5l0 -48.33 22.33 0 0 46c0,6.78 1.39,11.94 4.17,15.5 2.89,3.44 7.28,5.17 13.17,5.17 3.78,0 7.11,-0.83 10,-2.5 3,-1.78 5.33,-4.33 7,-7.67 1.67,-3.33 2.5,-7.39 2.5,-12.17l0 -44.33 22.5 0 0 83.67 -19.83 0 -1.67 -13.67c-2.56,4.77 -6.22,8.61 -11,11.5 -4.67,2.77 -10.33,4.17 -17,4.17zm71.53 -2l0 -120 22.5 0 0 120 -22.5 0zm72.61 2c-7,0 -12.78,-1.11 -17.33,-3.33 -4.56,-2.33 -7.94,-5.39 -10.17,-9.17 -2.22,-3.9 -3.33,-8.11 -3.33,-12.67 0,-5.23 1.28,-9.72 3.83,-13.5 2.67,-3.89 6.67,-6.94 12,-9.17 5.33,-2.22 12,-3.33 20,-3.33l20.83 0c0,-4.11 -0.56,-7.5 -1.67,-10.17 -1.11,-2.67 -2.83,-4.67 -5.17,-6 -2.33,-1.33 -5.44,-2 -9.33,-2 -4.22,0 -7.83,0.94 -10.83,2.83 -2.89,1.78 -4.72,4.56 -5.5,8.33l-21.83 0c0.67,-6 2.67,-11.17 6,-15.5 3.44,-4.44 7.94,-7.89 13.5,-10.33 5.56,-2.44 11.83,-3.67 18.83,-3.67 7.89,0 14.72,1.33 20.5,4 5.78,2.56 10.22,6.39 13.33,11.5 3.11,5 4.67,11.11 4.67,18.33l0 51.84 -19 0 -2.5 -12.83c-1.22,2.22 -2.67,4.22 -4.33,6 -1.67,1.77 -3.61,3.33 -5.83,4.67 -2.22,1.33 -4.72,2.33 -7.5,3 -2.78,0.77 -5.83,1.17 -9.17,1.17zm5.33 -17.33c2.89,0 5.44,-0.5 7.67,-1.5 2.33,-1.11 4.33,-2.56 6,-4.33 1.67,-1.89 2.94,-4 3.83,-6.33 1,-2.45 1.67,-5 2,-7.67l0 -0.17 -17.17 0c-3.44,0 -6.28,0.44 -8.5,1.33 -2.11,0.78 -3.67,1.94 -4.67,3.5 -1,1.56 -1.5,3.33 -1.5,5.33 0,2.11 0.5,3.89 1.5,5.33 1,1.44 2.44,2.55 4.33,3.33 1.89,0.77 4.06,1.17 6.5,1.17zm100.52 15.33c-5.78,0 -10.89,-0.9 -15.33,-2.67 -4.44,-1.89 -7.89,-4.94 -10.33,-9.17 -2.44,-4.33 -3.67,-10.23 -3.67,-17.67l0 -35.34 -14.33 0 0 -18.83 14.33 0 2.67 -22.83 19.83 0 0 22.83 22.17 0 0 18.83 -22.17 0 0 35.67c0,3.77 0.83,6.39 2.5,7.83 1.67,1.44 4.5,2.17 8.5,2.17l10.83 0 0 19.17 -15 0zm34.61 0l0 -83.67 22.5 0 0 83.67 -22.5 0zm11.33 -95.34c-4.11,0 -7.44,-1.17 -10,-3.5 -2.56,-2.44 -3.83,-5.5 -3.83,-9.17 0,-3.67 1.28,-6.67 3.83,-9 2.56,-2.44 5.89,-3.67 10,-3.67 4.11,0 7.44,1.22 10,3.67 2.67,2.33 4,5.33 4,9 0,3.67 -1.33,6.72 -4,9.17 -2.56,2.33 -5.89,3.5 -10,3.5zm73.41 97.34c-8,0 -15.22,-1.83 -21.67,-5.5 -6.33,-3.78 -11.39,-8.95 -15.17,-15.5 -3.67,-6.67 -5.5,-14.28 -5.5,-22.84 0,-8.67 1.83,-16.28 5.5,-22.83 3.78,-6.56 8.89,-11.67 15.33,-15.33 6.44,-3.78 13.67,-5.67 21.67,-5.67 8.11,0 15.33,1.89 21.67,5.67 6.45,3.67 11.5,8.78 15.17,15.33 3.78,6.56 5.67,14.17 5.67,22.83 0,8.56 -1.88,16.17 -5.67,22.84 -3.67,6.55 -8.72,11.72 -15.17,15.5 -6.45,3.67 -13.72,5.5 -21.83,5.5zm0 -19.5c3.67,0 6.94,-0.9 9.83,-2.67 3,-1.78 5.39,-4.5 7.17,-8.17 1.78,-3.67 2.67,-8.17 2.67,-13.5 0,-5.44 -0.88,-9.94 -2.67,-13.5 -1.67,-3.67 -4,-6.39 -7,-8.17 -2.89,-1.78 -6.17,-2.67 -9.83,-2.67 -3.56,0 -6.83,0.89 -9.83,2.67 -3,1.78 -5.39,4.5 -7.17,8.17 -1.78,3.56 -2.67,8.06 -2.67,13.5 0,5.33 0.89,9.83 2.67,13.5 1.78,3.67 4.11,6.39 7,8.17 3,1.77 6.28,2.67 9.83,2.67zm62.06 17.5l0 -83.67 19.83 0 1.67 13.67c2.55,-4.78 6.17,-8.56 10.83,-11.33 4.77,-2.89 10.44,-4.33 17,-4.33 7,0 12.89,1.44 17.67,4.33 4.77,2.89 8.39,7.11 10.83,12.67 2.55,5.56 3.83,12.44 3.83,20.67l0 48 -22.33 0 0 -46c0,-6.67 -1.45,-11.78 -4.33,-15.33 -2.78,-3.56 -7.11,-5.33 -13,-5.33 -3.78,0 -7.17,0.89 -10.17,2.67 -2.9,1.78 -5.17,4.33 -6.83,7.67 -1.67,3.22 -2.5,7.22 -2.5,12l0 44.34 -22.5 0z"/>
  </g>
  <g id="_2742431144432">
   <g>
    <path class="fil4" d="M470.84 148.65c16.46,3.04 11.89,27.89 -4.58,24.85 -130.59,-24.3 -222.09,27.36 -152.82,155.28 8.28,14.53 -13.69,27.06 -21.96,12.54 -82.48,-144.63 24.47,-222.03 179.37,-192.68zm329.36 245.3c116.74,-142.89 65.33,-249.15 -75.04,-250.89 -16.67,-0.22 -16.98,25.04 -0.31,25.26 124.25,-0.53 153.81,91.47 56,209.35 -10.78,13.13 8.96,28.74 19.34,16.28zm-122.8 224.13c8.53,-14.19 -12.71,-27.39 -21.66,-13.06 -70.63,111.87 -156.96,77.41 -209.21,-57.49 -5.65,-16.07 -29.5,-7.67 -23.85,8.39 46.22,141.31 168.81,203.57 254.72,62.16l0 0zm-77.37 -251.65c0,-27.25 -29.68,-44.39 -53.3,-30.75 -23.62,13.62 -23.62,47.88 0,61.51 23.62,13.63 53.3,-3.5 53.3,-30.76zm-310.29 114.83c4.11,-112.29 167.54,-255.53 360.25,-304.81 16.54,-3.6 11.19,-28.29 -5.37,-24.69 -178,39.44 -389.17,197.83 -380.29,336.44 -30.85,18.64 -30.54,63.88 0.94,81.97 31.8,18.28 71.75,-4.69 71.75,-41.25 0,-27.48 -22.57,-47.29 -47.29,-47.67l0 0zm523.35 87.55c22.72,14.8 55.58,8.02 68.85,-18.53 16.32,-32.7 -9.15,-71.11 -45.74,-68.99 -34.35,1.99 -54.58,38.33 -40.15,68.07 -111,48.33 -317.16,-32.54 -438.38,-161.1 -11.09,-12.25 -29.82,4.74 -18.73,16.99 114.97,127.25 348.59,230.15 474.15,163.56zm-200.78 -521.11c0.01,-31.26 -31.19,-55.5 -62.78,-45.22 -34.85,11.35 -44.28,56.3 -16.93,80.72 23.02,20.54 57.67,13.71 72.56,-10.28 86.25,57.07 139.77,252.13 82.74,458.56 -4.93,15.98 19.23,23.46 24.17,7.48 51.82,-167.55 23.79,-415.67 -99.76,-491.26z"/>
   </g>
   <path class="fil4" d="M0.03 1020.92l0 -116.67 47.83 0c8.11,0 14.94,1.28 20.5,3.83 5.56,2.55 9.78,6.11 12.67,10.67 2.89,4.45 4.33,9.61 4.33,15.5 0,5.89 -1.28,10.83 -3.83,14.83 -2.56,4 -5.94,7.11 -10.17,9.33 -4.22,2.12 -8.78,3.33 -13.67,3.67l2.67 -1.83c5.33,0.22 10.06,1.67 14.17,4.33 4.11,2.55 7.39,6 9.83,10.33 2.44,4.33 3.67,9.06 3.67,14.17 0,6.22 -1.5,11.72 -4.5,16.5 -3,4.78 -7.39,8.55 -13.17,11.33 -5.67,2.67 -12.61,4 -20.83,4l-49.5 0zm22.5 -18.33l23.5 0c6,0 10.67,-1.39 14,-4.17 3.44,-2.78 5.17,-6.78 5.17,-12 0,-5.22 -1.78,-9.28 -5.33,-12.17 -3.44,-3 -8.17,-4.5 -14.17,-4.5l-23.17 0 0 32.83zm0 -49.67l21.83 0c5.78,0 10.22,-1.33 13.33,-4 3.11,-2.67 4.67,-6.44 4.67,-11.33 0,-4.78 -1.56,-8.5 -4.67,-11.17 -3.11,-2.78 -7.67,-4.17 -13.67,-4.17l-21.5 0 0 30.67zm83.62 68l0 -116.67 47.83 0c8.11,0 14.94,1.28 20.5,3.83 5.56,2.55 9.78,6.11 12.67,10.67 2.89,4.45 4.33,9.61 4.33,15.5 0,5.89 -1.28,10.83 -3.83,14.83 -2.56,4 -5.94,7.11 -10.17,9.33 -4.22,2.12 -8.78,3.33 -13.67,3.67l2.67 -1.83c5.33,0.22 10.06,1.67 14.17,4.33 4.11,2.55 7.39,6 9.83,10.33 2.44,4.33 3.67,9.06 3.67,14.17 0,6.22 -1.5,11.72 -4.5,16.5 -3,4.78 -7.39,8.55 -13.17,11.33 -5.67,2.67 -12.61,4 -20.83,4l-49.5 0zm22.5 -18.33l23.5 0c6,0 10.67,-1.39 14,-4.17 3.44,-2.78 5.17,-6.78 5.17,-12 0,-5.22 -1.78,-9.28 -5.33,-12.17 -3.44,-3 -8.17,-4.5 -14.17,-4.5l-23.17 0 0 32.83zm0 -49.67l21.83 0c5.78,0 10.22,-1.33 13.33,-4 3.11,-2.67 4.67,-6.44 4.67,-11.33 0,-4.78 -1.56,-8.5 -4.67,-11.17 -3.11,-2.78 -7.67,-4.17 -13.67,-4.17l-21.5 0 0 30.67zm124.95 70c-8,0 -15.22,-1.44 -21.67,-4.33 -6.44,-2.89 -11.61,-6.95 -15.5,-12.17 -3.78,-5.22 -5.67,-11.28 -5.67,-18.17 0,-4.78 0.78,-9.11 2.33,-13 1.67,-3.89 3.94,-7.33 6.83,-10.33 3,-3 6.5,-5.28 10.5,-6.83 -5.11,-2.33 -9.17,-5.67 -12.17,-10 -3,-4.33 -4.5,-9.22 -4.5,-14.67 0,-5.44 1.5,-10.55 4.5,-15.33 3,-4.78 7.44,-8.61 13.33,-11.5 5.89,-2.89 13.22,-4.33 22,-4.33 8.78,0 16.11,1.45 22,4.33 6,2.89 10.44,6.72 13.33,11.5 3,4.78 4.5,9.89 4.5,15.33 0,5.33 -1.56,10.22 -4.67,14.67 -3,4.33 -7,7.67 -12,10 4,1.67 7.44,4 10.33,7 3,2.89 5.28,6.28 6.83,10.17 1.67,3.89 2.5,8.22 2.5,13 0,6.89 -1.94,12.95 -5.83,18.17 -3.78,5.22 -8.89,9.28 -15.33,12.17 -6.44,2.89 -13.67,4.33 -21.67,4.33zm0 -18.83c6.89,0 12.06,-1.67 15.5,-5 3.56,-3.33 5.33,-7.55 5.33,-12.67 0,-5.67 -1.83,-10.11 -5.5,-13.33 -3.67,-3.33 -8.78,-5 -15.33,-5 -6.44,0 -11.56,1.67 -15.33,5 -3.67,3.22 -5.5,7.67 -5.5,13.33 0,5.12 1.78,9.33 5.33,12.67 3.56,3.33 8.72,5 15.5,5zm0 -52.5c5.67,0 10.06,-1.45 13.17,-4.33 3.11,-2.89 4.67,-6.61 4.67,-11.17 0,-4.89 -1.56,-8.67 -4.67,-11.33 -3.11,-2.78 -7.5,-4.17 -13.17,-4.17 -5.56,0 -9.89,1.39 -13,4.17 -3.11,2.67 -4.67,6.5 -4.67,11.5 0,4.45 1.56,8.11 4.67,11 3.11,2.89 7.44,4.33 13,4.33zm117.47 69.33l0 -21.17 -57.33 0 0 -17.83 54.33 -77.67 25.33 0 0 76 15.33 0 0 19.5 -15.33 0 0 21.17 -22.33 0zm-33.33 -40.67l34.83 0 0 -51.17 -34.83 51.17zm127.46 40.67l0 -116.67 43.83 0c9.44,0 17.22,1.61 23.33,4.83 6.22,3.11 10.83,7.45 13.83,13 3.11,5.45 4.67,11.61 4.67,18.5 0,6.45 -1.5,12.45 -4.5,18 -2.89,5.45 -7.44,9.83 -13.67,13.17 -6.11,3.33 -14,5 -23.67,5l-21.33 0 0 44.17 -22.5 0zm22.5 -62.33l19.83 0c7.22,0 12.39,-1.61 15.5,-4.83 3.22,-3.22 4.83,-7.61 4.83,-13.17 0,-5.67 -1.61,-10.05 -4.83,-13.17 -3.11,-3.22 -8.28,-4.83 -15.5,-4.83l-19.83 0 0 36zm79.54 62.33l0 -83.67 20 0 2 15.5c2.11,-3.67 4.67,-6.78 7.67,-9.33 3,-2.67 6.44,-4.67 10.33,-6 4,-1.44 8.39,-2.17 13.17,-2.17l0 23.83 -7.5 0c-3.33,0 -6.44,0.39 -9.33,1.17 -2.78,0.67 -5.22,1.89 -7.33,3.67 -2.11,1.78 -3.72,4.17 -4.83,7.17 -1.11,3 -1.67,6.78 -1.67,11.33l0 38.5 -22.5 0zm106.23 2c-8,0 -15.22,-1.83 -21.67,-5.5 -6.33,-3.78 -11.39,-8.94 -15.17,-15.5 -3.67,-6.67 -5.5,-14.28 -5.5,-22.83 0,-8.67 1.83,-16.28 5.5,-22.83 3.78,-6.55 8.89,-11.67 15.33,-15.33 6.44,-3.78 13.67,-5.67 21.67,-5.67 8.11,0 15.33,1.89 21.67,5.67 6.44,3.67 11.5,8.78 15.17,15.33 3.78,6.55 5.67,14.17 5.67,22.83 0,8.55 -1.89,16.17 -5.67,22.83 -3.67,6.56 -8.72,11.72 -15.17,15.5 -6.44,3.67 -13.72,5.5 -21.83,5.5zm0 -19.5c3.67,0 6.94,-0.88 9.83,-2.67 3,-1.78 5.39,-4.5 7.17,-8.17 1.78,-3.67 2.67,-8.17 2.67,-13.5 0,-5.45 -0.89,-9.95 -2.67,-13.5 -1.67,-3.67 -4,-6.39 -7,-8.17 -2.89,-1.78 -6.17,-2.67 -9.83,-2.67 -3.56,0 -6.83,0.89 -9.83,2.67 -3,1.78 -5.39,4.5 -7.17,8.17 -1.78,3.55 -2.67,8.05 -2.67,13.5 0,5.33 0.89,9.83 2.67,13.5 1.78,3.67 4.11,6.39 7,8.17 3,1.78 6.28,2.67 9.83,2.67zm96.47 17.5c-5.78,0 -10.89,-0.88 -15.33,-2.67 -4.44,-1.89 -7.89,-4.95 -10.33,-9.17 -2.44,-4.33 -3.67,-10.22 -3.67,-17.67l0 -35.33 -14.33 0 0 -18.83 14.33 0 2.67 -22.83 19.83 0 0 22.83 22.17 0 0 18.83 -22.17 0 0 35.67c0,3.78 0.83,6.39 2.5,7.83 1.67,1.45 4.5,2.17 8.5,2.17l10.83 0 0 19.17 -15 0zm71.66 2c-8,0 -15.22,-1.83 -21.67,-5.5 -6.33,-3.78 -11.39,-8.94 -15.17,-15.5 -3.67,-6.67 -5.5,-14.28 -5.5,-22.83 0,-8.67 1.83,-16.28 5.5,-22.83 3.78,-6.55 8.89,-11.67 15.33,-15.33 6.44,-3.78 13.67,-5.67 21.67,-5.67 8.11,0 15.33,1.89 21.67,5.67 6.44,3.67 11.5,8.78 15.16,15.33 3.78,6.55 5.67,14.17 5.67,22.83 0,8.55 -1.89,16.17 -5.67,22.83 -3.67,6.56 -8.72,11.72 -15.16,15.5 -6.44,3.67 -13.72,5.5 -21.83,5.5zm0 -19.5c3.67,0 6.94,-0.88 9.83,-2.67 3,-1.78 5.39,-4.5 7.17,-8.17 1.78,-3.67 2.67,-8.17 2.67,-13.5 0,-5.45 -0.89,-9.95 -2.67,-13.5 -1.67,-3.67 -4,-6.39 -7,-8.17 -2.89,-1.78 -6.17,-2.67 -9.83,-2.67 -3.56,0 -6.83,0.89 -9.83,2.67 -3,1.78 -5.39,4.5 -7.17,8.17 -1.78,3.55 -2.67,8.05 -2.67,13.5 0,5.33 0.89,9.83 2.67,13.5 1.78,3.67 4.11,6.39 7,8.17 3,1.78 6.28,2.67 9.83,2.67zm102.72 19.5c-8.44,0 -15.94,-1.83 -22.5,-5.5 -6.55,-3.78 -11.67,-8.94 -15.33,-15.5 -3.67,-6.67 -5.5,-14.22 -5.5,-22.67 0,-8.67 1.83,-16.28 5.5,-22.83 3.67,-6.55 8.78,-11.72 15.33,-15.5 6.56,-3.78 14.06,-5.67 22.5,-5.67 10.78,0 19.78,2.83 27,8.5 7.33,5.55 12,13.28 14,23.17l-23.83 0c-0.89,-3.88 -2.95,-6.94 -6.17,-9.17 -3.11,-2.22 -6.83,-3.33 -11.17,-3.33 -3.89,0 -7.39,1 -10.5,3 -3,2 -5.39,4.83 -7.17,8.5 -1.78,3.67 -2.67,8.06 -2.67,13.17 0,3.78 0.5,7.22 1.5,10.33 1.12,3 2.56,5.62 4.33,7.83 1.78,2.11 3.89,3.72 6.33,4.83 2.55,1.11 5.28,1.67 8.17,1.67 2.89,0 5.5,-0.45 7.83,-1.33 2.33,-1 4.33,-2.44 6,-4.33 1.78,-1.89 2.95,-4.17 3.5,-6.83l23.83 0c-2,9.67 -6.67,17.39 -14,23.17 -7.33,5.67 -16.33,8.5 -27,8.5zm100.07 0c-8,0 -15.22,-1.83 -21.67,-5.5 -6.33,-3.78 -11.39,-8.94 -15.17,-15.5 -3.67,-6.67 -5.5,-14.28 -5.5,-22.83 0,-8.67 1.83,-16.28 5.5,-22.83 3.78,-6.55 8.89,-11.67 15.33,-15.33 6.45,-3.78 13.67,-5.67 21.67,-5.67 8.11,0 15.33,1.89 21.67,5.67 6.44,3.67 11.5,8.78 15.17,15.33 3.78,6.55 5.67,14.17 5.67,22.83 0,8.55 -1.89,16.17 -5.67,22.83 -3.67,6.56 -8.72,11.72 -15.17,15.5 -6.45,3.67 -13.72,5.5 -21.83,5.5zm0 -19.5c3.67,0 6.95,-0.88 9.83,-2.67 3,-1.78 5.39,-4.5 7.17,-8.17 1.78,-3.67 2.67,-8.17 2.67,-13.5 0,-5.45 -0.89,-9.95 -2.67,-13.5 -1.67,-3.67 -4,-6.39 -7,-8.17 -2.89,-1.78 -6.17,-2.67 -9.83,-2.67 -3.55,0 -6.83,0.89 -9.83,2.67 -3,1.78 -5.39,4.5 -7.17,8.17 -1.78,3.55 -2.67,8.05 -2.67,13.5 0,5.33 0.89,9.83 2.67,13.5 1.78,3.67 4.11,6.39 7,8.17 3,1.78 6.28,2.67 9.83,2.67zm62.06 17.5l0 -120 22.5 0 0 120 -22.5 0z"/>
  </g>
  <path class="fil5" d="M-5819.1 1295.35c0,166.11 -134.63,300.74 -300.72,300.74 -166.09,0 -300.72,-134.63 -300.72,-300.74 0,-166.06 134.63,-300.71 300.72,-300.71 166.09,0 300.72,134.65 300.72,300.71z"/>
  <path class="fil6" d="M-6271.3 1249.21c18.23,0 33.01,-11.11 33.01,7.13l0 65.48c0,18.23 -14.78,33 -33.01,33 -18.23,0 -33.01,-14.77 -33.01,-33l0 -73.99c0,-18.23 14.78,-15.63 33.01,-15.63l0 17.01zm299.96 -8.5c-18.23,0 -33.01,5.89 -33.01,24.13l0 56.98c0,18.23 14.78,33 33.01,33 18.23,0 33,-14.77 33,-33l0 -73.99c0,-18.23 -14.78,-7.11 -33,-7.11zm-53.66 198.44c6.23,-5.63 6.71,-15.24 1.09,-21.47 -5.63,-6.22 -15.23,-6.71 -21.47,-1.09 -33.72,30.46 -86.53,37.32 -128.42,16.67 -7.53,-3.7 -16.63,-0.62 -20.35,6.91 -3.71,7.53 -0.62,16.65 6.91,20.35 20.3,10.01 42.63,14.86 64.89,14.86 35.63,0 71.04,-12.47 97.35,-36.23z"/>
  <path class="fil7" d="M-6011.85 1268.93c-2.28,0 -4.51,-0.7 -6.38,-2 -1.87,-1.3 -3.31,-3.15 -4.1,-5.28 -1.03,-2.78 -0.92,-5.87 0.32,-8.55 1.23,-2.7 3.49,-4.8 6.26,-5.83l87.02 -32.35c5.8,-2.15 12.24,0.8 14.38,6.58 1.04,2.78 0.92,5.85 -0.31,8.55 -1.23,2.7 -3.49,4.8 -6.27,5.83l-87.02 32.35c-1.25,0.46 -2.57,0.7 -3.9,0.7zm-205.46 -7.28c1.03,-2.78 0.92,-5.87 -0.32,-8.56 -1.24,-2.69 -3.49,-4.79 -6.27,-5.82l-87.02 -32.35c-5.77,-2.13 -12.22,0.79 -14.38,6.58 -1.03,2.78 -0.92,5.87 0.32,8.55 1.24,2.7 3.49,4.8 6.27,5.83l87.02 32.35c1.28,0.48 2.6,0.7 3.9,0.7 2.28,0 4.51,-0.7 6.38,-2 1.87,-1.3 3.31,-3.15 4.1,-5.28zm-198.96 -171.17c2.49,8.56 5.85,16.91 9.44,25.73 3.87,8.48 7.93,17.42 12.94,25.8 2.43,4.5 5.13,8.85 7.97,13.15 21.72,-41.13 52.69,-76.63 90.15,-103.7 -4.84,-0.4 -10.02,-0.81 -15.03,-1.96 -6.06,-0.97 -11.78,-2.74 -17.81,-4.5 -5.67,-1.98 -11.72,-4.11 -17.02,-6.65l-8.06 -3.89 -7.33 -4.21c-5.11,-2.82 -8.81,-5.88 -13.06,-8.83 -3.6,-2.96 -7.09,-5.97 -9.89,-8.75 -2.47,-2.74 -5.04,-5.44 -6.71,-7.67l-4.93 -7.5 -2.08 -3.15c-1.32,-2 -3.19,-3.59 -5.37,-4.59 -2.19,-0.98 -4.61,-1.33 -6.98,-1 -2.37,0.32 -4.61,1.32 -6.44,2.88 -1.83,1.54 -3.19,3.58 -3.91,5.86 0,0 -1.31,4.14 -3.27,12.35 -0.8,4.02 -1.22,8.75 -1.81,14.62 -0.32,5.66 -0.22,11.98 0.1,19.13 0.74,6.67 1.28,14.69 3,22.3 0.78,3.89 1.59,8.02 2.57,12.17l3.54 12.4z"/>
  <path class="fil7" d="M-5814.16 1024.49c-0.59,-5.86 -1.01,-10.59 -1.81,-14.62 -1.96,-8.21 -3.27,-12.33 -3.27,-12.33 -0.88,-2.78 -2.69,-5.18 -5.12,-6.78 -5.86,-3.85 -13.74,-2.23 -17.59,3.63l-2.07 3.16 -4.93 7.49c-1.68,2.23 -4.25,4.93 -6.72,7.67 -2.8,2.78 -6.3,5.79 -9.89,8.75 -4.24,2.97 -7.94,6.01 -13.05,8.83l-7.33 4.22 -8.07 3.88c-5.3,2.55 -11.35,4.67 -17.02,6.65 -6.04,1.76 -11.75,3.53 -17.81,4.5 -5.02,1.15 -10.2,1.57 -15.04,1.96 15.37,11.13 29.66,23.68 42.69,37.47 27.63,46.37 44.88,103.61 44.88,161.29 0,170.54 -138.26,308.76 -308.8,308.76 -59.34,0 -114.76,-16.75 -161.83,-45.8 53.92,51.33 126.83,82.91 207.13,82.91 166,0 300.56,-134.57 300.56,-300.58 0,-51.83 -13.78,-102.02 -37.34,-145.59 0.96,1.74 1.94,3.49 2.87,5.25 2.84,-4.3 5.54,-8.65 7.97,-13.15 5.01,-8.39 9.07,-17.32 12.94,-25.8 3.59,-8.8 6.95,-17.17 9.44,-25.73l3.54 -12.4c0.99,-4.15 1.79,-8.27 2.58,-12.17 1.72,-7.61 2.26,-15.63 3,-22.3 0.32,-7.15 0.42,-13.47 0.1,-19.13z"/>
  <path class="fil8" d="M-6642.53 1840.68l0 -116.67 72.17 0 0 11.5 -58.17 0 0 40.67 53.17 0 0 11.33 -53.17 0 0 41.67 58.17 0 0 11.5 -72.17 0zm120.74 2c-6.78,0 -12.44,-1.17 -17,-3.5 -4.56,-2.45 -7.94,-5.61 -10.17,-9.5 -2.22,-4 -3.33,-8.33 -3.33,-13 0,-5.67 1.44,-10.45 4.33,-14.33 3,-4 7.17,-7 12.5,-9 5.44,-2.11 11.83,-3.17 19.17,-3.17l22.17 0c0,-5.23 -0.83,-9.56 -2.5,-13 -1.56,-3.56 -3.89,-6.23 -7,-8 -3,-1.78 -6.78,-2.67 -11.33,-2.67 -5.33,0 -9.94,1.33 -13.83,4 -3.89,2.67 -6.28,6.6 -7.17,11.83l-14.33 0c0.67,-6 2.67,-11 6,-15 3.44,-4.11 7.78,-7.23 13,-9.33 5.22,-2.23 10.67,-3.33 16.33,-3.33 7.78,0 14.22,1.44 19.33,4.33 5.22,2.77 9.11,6.72 11.67,11.83 2.56,5 3.83,10.94 3.83,17.83l0 52 -12.5 0 -0.83 -14.83c-1.11,2.33 -2.56,4.55 -4.33,6.67 -1.67,2 -3.67,3.77 -6,5.33 -2.33,1.44 -5,2.61 -8,3.5 -2.89,0.89 -6.22,1.33 -10,1.33zm2.17 -11.83c3.89,0 7.39,-0.78 10.5,-2.33 3.22,-1.67 5.94,-3.9 8.17,-6.67 2.22,-2.89 3.89,-6.06 5,-9.5 1.22,-3.45 1.83,-7.06 1.83,-10.83l0 -0.5 -21 0c-5.44,0 -9.83,0.67 -13.17,2 -3.33,1.22 -5.72,3 -7.17,5.33 -1.44,2.22 -2.17,4.77 -2.17,7.67 0,3 0.67,5.6 2,7.83 1.44,2.22 3.5,3.94 6.17,5.17 2.78,1.22 6.06,1.83 9.83,1.83zm82.23 9.83l-31.83 -84 14.67 0 25.33 70.5 25.5 -70.5 14.33 0 -31.83 84 -16.17 0zm96.33 2c-7.89,0 -14.89,-1.83 -21,-5.5 -6,-3.67 -10.72,-8.78 -14.17,-15.33 -3.44,-6.67 -5.17,-14.39 -5.17,-23.17 0,-8.9 1.67,-16.61 5,-23.17 3.44,-6.56 8.22,-11.67 14.33,-15.33 6.22,-3.67 13.33,-5.5 21.33,-5.5 8.22,0 15.17,1.83 20.83,5.5 5.78,3.67 10.17,8.5 13.17,14.5 3.11,5.89 4.67,12.39 4.67,19.5 0,1.1 0,2.27 0,3.5 0,1.22 -0.06,2.6 -0.17,4.17l-68.67 0 0 -10.83 55.17 0c-0.33,-7.67 -2.89,-13.67 -7.67,-18 -4.67,-4.33 -10.56,-6.5 -17.67,-6.5 -4.78,0 -9.22,1.1 -13.33,3.33 -4,2.11 -7.22,5.27 -9.67,9.5 -2.44,4.11 -3.67,9.27 -3.67,15.5l0 4.67c0,6.88 1.22,12.67 3.67,17.33 2.56,4.67 5.83,8.17 9.83,10.5 4.11,2.33 8.5,3.5 13.17,3.5 5.89,0 10.72,-1.28 14.5,-3.83 3.89,-2.67 6.67,-6.23 8.33,-10.67l13.83 0c-1.33,5 -3.67,9.5 -7,13.5 -3.33,4 -7.5,7.17 -12.5,9.5 -4.89,2.22 -10.61,3.33 -17.17,3.33zm89.56 0c-7,0 -13.11,-1.17 -18.33,-3.5 -5.11,-2.33 -9.22,-5.56 -12.33,-9.67 -3,-4.23 -4.83,-9.17 -5.5,-14.83l14.33 0c0.56,2.89 1.72,5.55 3.5,8 1.78,2.44 4.17,4.44 7.17,6 3.11,1.44 6.89,2.17 11.33,2.17 3.89,0 7.11,-0.56 9.67,-1.67 2.56,-1.23 4.44,-2.83 5.67,-4.83 1.33,-2 2,-4.17 2,-6.5 0,-3.45 -0.83,-6.06 -2.5,-7.83 -1.56,-1.78 -3.89,-3.17 -7,-4.17 -3.11,-1.11 -6.89,-2.06 -11.33,-2.83 -3.67,-0.67 -7.28,-1.56 -10.83,-2.67 -3.56,-1.11 -6.72,-2.56 -9.5,-4.33 -2.78,-1.9 -5,-4.17 -6.67,-6.83 -1.56,-2.67 -2.33,-5.95 -2.33,-9.83 0,-4.78 1.22,-9 3.67,-12.67 2.44,-3.78 5.94,-6.73 10.5,-8.83 4.67,-2.11 10.06,-3.17 16.17,-3.17 9,0 16.28,2.17 21.83,6.5 5.56,4.33 8.83,10.6 9.83,18.83l-13.83 0c-0.56,-4.23 -2.39,-7.5 -5.5,-9.83 -3,-2.45 -7.17,-3.67 -12.5,-3.67 -5.22,0 -9.22,1.05 -12,3.17 -2.67,2.1 -4,4.89 -4,8.33 0,2.22 0.72,4.22 2.17,6 1.56,1.67 3.78,3.1 6.67,4.33 3,1.22 6.67,2.22 11,3 5.56,1 10.61,2.33 15.17,4 4.56,1.67 8.22,4.17 11,7.5 2.89,3.22 4.33,7.83 4.33,13.83 0,5.22 -1.33,9.77 -4,13.67 -2.56,3.89 -6.22,6.94 -11,9.17 -4.78,2.1 -10.39,3.17 -16.83,3.17zm88.99 0c-8.11,0 -15.22,-1.9 -21.33,-5.67 -6.11,-3.9 -10.83,-9.17 -14.17,-15.83 -3.33,-6.67 -5,-14.23 -5,-22.67 0,-8.45 1.67,-15.95 5,-22.5 3.33,-6.67 8.06,-11.9 14.17,-15.67 6.22,-3.78 13.39,-5.67 21.5,-5.67 6.89,0 12.89,1.39 18,4.17 5.22,2.77 9.22,6.67 12,11.67l0 -49.83 14 0 0 120 -12.67 0 -1.17 -13.83c-1.78,2.77 -4.06,5.39 -6.83,7.83 -2.78,2.33 -6.11,4.27 -10,5.83 -3.89,1.44 -8.39,2.17 -13.5,2.17zm1.67 -12.17c5.56,0 10.44,-1.33 14.67,-4 4.22,-2.67 7.5,-6.33 9.83,-11 2.33,-4.78 3.5,-10.4 3.5,-16.83 0,-6.33 -1.17,-11.9 -3.5,-16.67 -2.33,-4.78 -5.61,-8.5 -9.83,-11.17 -4.22,-2.67 -9.11,-4 -14.67,-4 -5.44,0 -10.28,1.33 -14.5,4 -4.22,2.67 -7.5,6.39 -9.83,11.17 -2.33,4.77 -3.5,10.33 -3.5,16.67 0,6.44 1.17,12.05 3.5,16.83 2.33,4.67 5.61,8.33 9.83,11 4.22,2.67 9.06,4 14.5,4zm65.83 10.17l0 -84 12.67 0 1 16c1.89,-3.78 4.28,-7 7.17,-9.67 3,-2.67 6.56,-4.73 10.67,-6.17 4.22,-1.45 9,-2.17 14.33,-2.17l0 14.67 -5.17 0c-3.56,0 -6.94,0.5 -10.17,1.5 -3.22,0.89 -6.11,2.39 -8.67,4.5 -2.44,2.11 -4.39,5 -5.83,8.67 -1.33,3.55 -2,8 -2,13.33l0 43.33 -14 0zm96.09 2c-7.78,0 -14.78,-1.78 -21,-5.33 -6.22,-3.67 -11.11,-8.78 -14.67,-15.33 -3.56,-6.67 -5.33,-14.4 -5.33,-23.17 0,-9 1.78,-16.78 5.33,-23.33 3.67,-6.67 8.61,-11.78 14.83,-15.33 6.33,-3.67 13.39,-5.5 21.17,-5.5 8,0 15.06,1.83 21.17,5.5 6.22,3.55 11.11,8.67 14.67,15.33 3.67,6.55 5.5,14.27 5.5,23.17 0,8.89 -1.83,16.67 -5.5,23.33 -3.67,6.55 -8.61,11.67 -14.83,15.33 -6.22,3.55 -13.33,5.33 -21.33,5.33zm0.17 -12c4.78,0 9.22,-1.17 13.33,-3.5 4.11,-2.45 7.44,-6.06 10,-10.83 2.56,-4.78 3.83,-10.67 3.83,-17.67 0,-7.11 -1.28,-13 -3.83,-17.67 -2.44,-4.78 -5.72,-8.33 -9.83,-10.67 -4,-2.45 -8.44,-3.67 -13.33,-3.67 -4.67,0 -9.11,1.22 -13.33,3.67 -4.11,2.33 -7.44,5.89 -10,10.67 -2.44,4.67 -3.67,10.55 -3.67,17.67 0,7 1.22,12.89 3.67,17.67 2.56,4.77 5.83,8.39 9.83,10.83 4.11,2.33 8.56,3.5 13.33,3.5zm61.13 46.67l0 -120.67 12.67 0 1.17 13.67c1.78,-2.67 4.06,-5.17 6.83,-7.5 2.78,-2.45 6.11,-4.39 10,-5.83 3.89,-1.56 8.33,-2.33 13.33,-2.33 8.22,0 15.33,1.94 21.33,5.83 6.11,3.88 10.83,9.17 14.17,15.83 3.44,6.55 5.17,14.05 5.17,22.5 0,8.44 -1.72,16 -5.17,22.67 -3.33,6.55 -8.06,11.72 -14.17,15.5 -6.11,3.77 -13.28,5.67 -21.5,5.67 -6.78,0 -12.78,-1.4 -18,-4.17 -5.11,-2.78 -9.06,-6.67 -11.83,-11.67l0 50.5 -14 0zm42.33 -46.83c5.44,0 10.28,-1.33 14.5,-4 4.22,-2.67 7.5,-6.33 9.83,-11 2.44,-4.78 3.67,-10.4 3.67,-16.83 0,-6.33 -1.22,-11.9 -3.67,-16.67 -2.33,-4.78 -5.61,-8.5 -9.83,-11.17 -4.22,-2.67 -9.06,-4 -14.5,-4 -5.56,0 -10.44,1.33 -14.67,4 -4.22,2.67 -7.5,6.39 -9.83,11.17 -2.33,4.77 -3.5,10.33 -3.5,16.67 0,6.44 1.17,12.05 3.5,16.83 2.33,4.67 5.61,8.33 9.83,11 4.22,2.67 9.11,4 14.67,4zm62 46.83l0 -120.67 12.67 0 1.17 13.67c1.78,-2.67 4.06,-5.17 6.83,-7.5 2.78,-2.45 6.11,-4.39 10,-5.83 3.89,-1.56 8.33,-2.33 13.33,-2.33 8.22,0 15.33,1.94 21.33,5.83 6.11,3.88 10.83,9.17 14.17,15.83 3.45,6.55 5.17,14.05 5.17,22.5 0,8.44 -1.72,16 -5.17,22.67 -3.33,6.55 -8.05,11.72 -14.17,15.5 -6.11,3.77 -13.28,5.67 -21.5,5.67 -6.78,0 -12.78,-1.4 -18,-4.17 -5.11,-2.78 -9.06,-6.67 -11.83,-11.67l0 50.5 -14 0zm42.33 -46.83c5.44,0 10.28,-1.33 14.5,-4 4.23,-2.67 7.5,-6.33 9.83,-11 2.45,-4.78 3.67,-10.4 3.67,-16.83 0,-6.33 -1.22,-11.9 -3.67,-16.67 -2.33,-4.78 -5.6,-8.5 -9.83,-11.17 -4.22,-2.67 -9.06,-4 -14.5,-4 -5.56,0 -10.44,1.33 -14.67,4 -4.22,2.67 -7.5,6.39 -9.83,11.17 -2.33,4.77 -3.5,10.33 -3.5,16.67 0,6.44 1.17,12.05 3.5,16.83 2.33,4.67 5.61,8.33 9.83,11 4.22,2.67 9.11,4 14.67,4zm98.83 12.17c-7.89,0 -14.89,-1.83 -21,-5.5 -6,-3.67 -10.73,-8.78 -14.17,-15.33 -3.45,-6.67 -5.17,-14.39 -5.17,-23.17 0,-8.9 1.67,-16.61 5,-23.17 3.44,-6.56 8.22,-11.67 14.33,-15.33 6.22,-3.67 13.33,-5.5 21.33,-5.5 8.22,0 15.17,1.83 20.83,5.5 5.77,3.67 10.17,8.5 13.17,14.5 3.1,5.89 4.67,12.39 4.67,19.5 0,1.1 0,2.27 0,3.5 0,1.22 -0.06,2.6 -0.17,4.17l-68.67 0 0 -10.83 55.17 0c-0.33,-7.67 -2.9,-13.67 -7.67,-18 -4.67,-4.33 -10.56,-6.5 -17.67,-6.5 -4.78,0 -9.23,1.1 -13.33,3.33 -4,2.11 -7.23,5.27 -9.67,9.5 -2.44,4.11 -3.67,9.27 -3.67,15.5l0 4.67c0,6.88 1.22,12.67 3.67,17.33 2.56,4.67 5.83,8.17 9.83,10.5 4.1,2.33 8.5,3.5 13.17,3.5 5.89,0 10.72,-1.28 14.5,-3.83 3.89,-2.67 6.67,-6.23 8.33,-10.67l13.83 0c-1.33,5 -3.67,9.5 -7,13.5 -3.33,4 -7.5,7.17 -12.5,9.5 -4.9,2.22 -10.61,3.33 -17.17,3.33zm57.9 -2l0 -84 12.67 0 1 16c1.89,-3.78 4.27,-7 7.17,-9.67 3,-2.67 6.55,-4.73 10.67,-6.17 4.22,-1.45 9,-2.17 14.33,-2.17l0 14.67 -5.17 0c-3.56,0 -6.95,0.5 -10.17,1.5 -3.23,0.89 -6.11,2.39 -8.67,4.5 -2.45,2.11 -4.4,5 -5.83,8.67 -1.33,3.55 -2,8 -2,13.33l0 43.33 -14 0z"/>
 </g>
</svg>
