<?xml version="1.0" encoding="UTF-8"?>
<!DOCTYPE svg PUBLIC "-//W3C//DTD SVG 1.1//EN" "http://www.w3.org/Graphics/SVG/1.1/DTD/svg11.dtd">
<!-- Creator: CorelDRAW 2017 -->
<svg xmlns="http://www.w3.org/2000/svg" xml:space="preserve" width="2.2in" height="6in" version="1.1" style="shape-rendering:geometricPrecision; text-rendering:geometricPrecision; image-rendering:optimizeQuality; fill-rule:evenodd; clip-rule:evenodd"
viewBox="0 0 2200 6000"
 xmlns:xlink="http://www.w3.org/1999/xlink">
 <defs>
  <style type="text/css">
   <![CDATA[
    .str0 {stroke:#042433;stroke-width:20.83;stroke-miterlimit:2.61313}
    .str2 {stroke:#042433;stroke-width:6.94;stroke-miterlimit:2.61313}
    .str1 {stroke:#FF9736;stroke-width:6.94;stroke-miterlimit:2.61313}
    .fil5 {fill:none}
    .fil0 {fill:#F5874F}
    .fil3 {fill:#F58634}
    .fil1 {fill:#9DD3AF}
    .fil4 {fill:#33CCCC}
    .fil6 {fill:#FF9736}
    .fil2 {fill:white}
    .fil7 {fill:#042433;fill-rule:nonzero}
   ]]>
  </style>
   <clipPath id="id0">
    <rect x="6236.85" y="2237.23" width="2269.51" height="2586.05"/>
   </clipPath>
 </defs>
 <g id="Layer_x0020_1">
  <metadata id="CorelCorpID_0Corel-Layer"/>
  <rect class="fil0 str0" x="5683.5" y="-1976.28" width="2333.33" height="2260.42"/>
  <rect class="fil1 str0" x="5829.33" y="-1840.86" width="2041.67" height="2000"/>
  <polygon class="fil2 str0" points="6100.17,-1590.86 6775.16,-1590.86 6606.42,-1422.1 6850.17,-1178.35 7093.91,-1422.1 6925.17,-1590.86 7600.17,-1590.86 7600.17,-915.86 7431.41,-1084.6 7187.65,-840.86 7431.41,-597.11 7600.17,-765.85 7600.17,-90.86 6925.17,-90.86 7093.91,-259.61 6850.17,-503.36 6606.42,-259.61 6775.16,-90.86 6100.17,-90.86 6100.17,-765.85 6268.92,-597.11 6512.68,-840.86 6268.92,-1084.6 6100.17,-915.86 "/>
  <g id="_3062414511696">
   <rect class="fil3 str0" x="126.85" y="-4759.53" width="2333" height="2260"/>
   <rect class="fil4 str0" x="272.02" y="-4624.76" width="2042.67" height="1990.46"/>
   <polygon class="fil2 str0" points="393.35,-3629.52 798.35,-4034.52 798.35,-3832.03 1090.86,-3832.03 1090.86,-4124.52 888.35,-4124.52 1293.35,-4529.53 1698.35,-4124.52 1495.85,-4124.52 1495.85,-3832.03 1788.35,-3832.03 1788.35,-4034.52 2193.35,-3629.52 1788.35,-3224.52 1788.35,-3427.03 1495.85,-3427.03 1495.85,-3134.52 1698.35,-3134.52 1293.35,-2729.52 888.35,-3134.52 1090.86,-3134.52 1090.86,-3427.03 798.35,-3427.03 798.35,-3224.52 "/>
  </g>
  <g style="clip-path:url(#id0)">
   <image x="6250.74" y="2251.12" width="2241.73" height="2558.27" xlink:href="vertical_bit_Images\vertical_bit_ImgID1.png"/>
  </g>
  <rect class="fil5" x="6250.74" y="2251.12" width="2241.73" height="2558.27"/>
  <g id="_3062414449808">
   <circle class="fil6 str1" cx="-5116.76" cy="-2968.79" r="1100"/>
   <g>
    <path class="fil7 str2" d="M-5283.59 -2768.78l1583.42 0 0 200 1583.42 -400 -1583.42 -400 0 200 -1583.42 0 0 400zm791.7 0m791.71 100m791.7 -100m0 -400m-791.7 -100m-791.71 100m-791.7 200"/>
    <path class="fil7 str2" d="M-4949.93 -2768.78l-1583.41 0 0 200 -1583.42 -400 1583.42 -400 0 200 1583.41 0 0 400zm-791.7 0m-791.71 100m-791.7 -100m0 -400m791.7 -100m791.71 100m791.7 200"/>
   </g>
  </g>
  <g id="_3062414447344">
   <circle class="fil6 str1" cx="1100" cy="3000" r="1100"/>
   <g>
    <path class="fil7 str2" d="M1300 3166.83l0 -1583.42 200 0 -400 -1583.42 -400 1583.42 200 0 0 1583.42 400 0zm0 -791.7m100 -791.71m-100 -791.7m-400 0m-100 791.7m100 791.71m200 791.7"/>
    <path class="fil7 str2" d="M1300 2833.17l0 1583.41 200 0 -400 1583.42 -400 -1583.42 200 0 0 -1583.41 400 0zm0 791.7m100 791.71m-100 791.7m-400 0m-100 -791.7m100 -791.71m200 -791.7"/>
   </g>
  </g>
  <g id="_3062414447312">
   <circle class="fil6 str1" cx="-4891.35" cy="3259.7" r="1100"/>
   <g>
    <path class="fil7 str2" d="M-4867.9 3519.09l1119.64 -1119.64 141.42 141.42 836.8 -1402.48 -1402.48 836.8 141.42 141.43 -1119.64 1119.64 282.85 282.85zm559.82 -559.82m630.53 -489.11m489.11 -630.54m-282.84 -282.84m-630.53 489.11m-489.11 630.53m-418.4 701.24"/>
    <path class="fil7 str2" d="M-4631.96 3283.16l-1119.65 1119.64 141.42 141.42 -1402.49 836.8 836.8 -1402.49 141.42 141.43 1119.65 -1119.65 282.85 282.85zm-559.82 559.82m-489.12 630.54m-630.53 489.11m-282.85 -282.84m489.11 -630.53m630.54 -489.11m701.24 -418.4"/>
   </g>
  </g>
  <g id="_3062414447632">
   <circle class="fil6 str1" cx="-12768.85" cy="4453.62" r="1100"/>
   <g>
    <path class="fil7 str2" d="M-13028.25 4477.07l1119.65 1119.65 -141.42 141.42 1402.49 836.8 -836.8 -1402.49 -141.42 141.42 -1119.65 -1119.64 -282.85 282.84zm559.82 559.82m489.11 630.54m630.54 489.11m282.84 -282.84m-489.11 -630.53m-630.54 -489.11m-701.24 -418.4"/>
    <path class="fil7 str2" d="M-12792.31 4713.01l-1119.64 -1119.64 -141.42 141.42 -836.8 -1402.49 1402.49 836.8 -141.42 141.42 1119.64 1119.64 -282.85 282.85zm-559.82 -559.82m-630.53 -489.11m-489.11 -630.53m282.84 -282.84m630.53 489.11m489.11 630.54m418.4 701.24"/>
   </g>
  </g>
 </g>
</svg>
